{
.appVersion = "3108";
.formatVersion = 3;
DisplayStrings = (

glyphs = (
{
glyphname = A;
lastChange = "2022-03-05 18:20:57 +0000";
layers = (
{
layerId = m01;
name = "QBeginners Light";
shapes = (
{
closed = 1;
nodes = (
(307,625,ls),
(311,636,o),
(302,650,o),
(283,650,cs),
(261,650,o),
(260,639,o),
(254,625,cs),
(-13,32,ls),
(-22,12,o),
(-9,0,o),
(6,0,cs),
(26,0,o),
(31,7,o),
(38,25,cs),
(306,619,l)
);
},
{
closed = 1;
nodes = (
(321,327,l),
(313,372,l),
(181,372,l),
(162,327,l)
);
},
{
closed = 1;
nodes = (
(270,563,l),
(354,19,ls),
(355,9,o),
(359,0,o),
(381,0,c),
(399,0,o),
(404,11,o),
(402,26,cs),
(308,635,l)
);
}
);
width = 433;
},
{
associatedMasterId = m002;
attr = {
axisRules = (
{
max = 800;
min = 600;
}
);
};
layerId = "2BD1AC13-F975-43DE-9324-FFA3EF678F39";
name = "28 Feb 22, 07:34";
shapes = (
{
closed = 1;
nodes = (
(430,602,l),
(437,629,o),
(417,650,o),
(384,650,cs),
(350,650,o),
(342,636,o),
(333,616,c),
(43,60,ls),
(24,24,o),
(50,0,o),
(80,0,cs),
(107,0,o),
(122,8,o),
(135,33,cs),
(416,591,l)
);
},
{
closed = 1;
nodes = (
(433,270,l),
(425,350,l),
(227,350,l),
(184,270,l)
);
},
{
closed = 1;
nodes = (
(350,584,l),
(386,40,ls),
(388,16,o),
(404,0,o),
(435,0,cs),
(463,0,o),
(483,15,o),
(480,46,cs),
(431,620,l)
);
}
);
width = 564;
},
{
layerId = m002;
name = "NSW ACT Print ExtraBold";
shapes = (
{
closed = 1;
nodes = (
(360,604,l),
(363,630,o),
(341,650,o),
(310,650,cs),
(276,650,o),
(269,636,o),
(261,616,c),
(10,60,ls),
(-7,24,o),
(21,0,o),
(51,0,cs),
(78,0,o),
(93,8,o),
(104,33,cs),
(296,492,l)
);
},
{
closed = 1;
nodes = (
(329,292,l),
(315,372,l),
(232,372,l),
(198,292,l)
);
},
{
closed = 1;
nodes = (
(290,506,l),
(354,40,ls),
(358,16,o),
(375,0,o),
(406,0,cs),
(434,0,o),
(453,15,o),
(448,46,cs),
(359,619,l)
);
}
);
width = 483;
},
{
associatedMasterId = m01;
attr = {
axisRules = (
{
max = 800;
min = 600;
}
);
};
layerId = "F26795CF-3851-46EB-8335-361574138B0A";
name = "28 Feb 22, 07:35";
shapes = (
{
closed = 1;
nodes = (
(383,625,ls),
(387,636,o),
(379,650,o),
(360,650,cs),
(338,650,o),
(337,639,o),
(330,625,cs),
(21,32,ls),
(11,12,o),
(23,0,o),
(38,0,cs),
(58,0,o),
(63,7,o),
(72,25,cs),
(381,619,l)
);
},
{
closed = 1;
nodes = (
(376,327,l),
(371,372,l),
(239,372,l),
(217,327,l)
);
},
{
closed = 1;
nodes = (
(341,563,l),
(387,19,ls),
(388,9,o),
(391,0,o),
(413,0,c),
(431,0,o),
(437,11,o),
(436,26,cs),
(384,635,l)
);
}
);
visible = 1;
width = 508;
}
);
unicode = 65;
},
{
glyphname = B;
lastChange = "2022-03-07 22:09:05 +0000";
layers = (
{
layerId = m01;
shapes = (
{
closed = 1;
nodes = (
(392,300,o),
(415,367,o),
(427,475,cs),
(440,593,o),
(333,650,o),
(108,650,c),
(102,605,l),
(288,605,o),
(386,565,o),
(377,477,cs),
(369,405,o),
(361,350,o),
(94,350,c),
(89,300,l)
);
},
{
closed = 1;
nodes = (
(330,0,o),
(405,31,o),
(417,144,cs),
(430,270,o),
(300,350,o),
(90,350,c),
(86,300,l),
(276,300,o),
(376,239,o),
(367,151,cs),
(358,66,o),
(253,45,o),
(43,45,c),
(39,0,l)
);
},
{
closed = 1;
nodes = (
(132,641,o),
(127,650,o),
(108,650,cs),
(91,650,o),
(82,643,o),
(80,623,cs),
(18,31,ls),
(16,14,o),
(27,0,o),
(44,0,cs),
(58,0,o),
(66,9,o),
(68,29,cs),
(130,619,ls)
);
}
);
width = 443;
},
{
layerId = m002;
shapes = (
{
closed = 1;
nodes = (
(437,282,o),
(461,384,o),
(470,462,cs),
(479,548,o),
(435,650,o),
(132,650,c),
(121,559,l),
(398,559,o),
(379,494,o),
(375,467,cs),
(370,435,o),
(345,358,o),
(145,358,c),
(137,282,l)
);
},
{
closed = 1;
nodes = (
(366,0,o),
(459,21,o),
(473,151,cs),
(487,285,o),
(327,358,o),
(140,358,c),
(131,282,l),
(308,282,o),
(386,241,o),
(379,168,cs),
(372,99,o),
(299,96,o),
(81,96,c),
(73,0,l)
);
},
{
closed = 1;
nodes = (
(190,643,o),
(158,650,o),
(134,650,cs),
(110,650,o),
(89,642,o),
(85,609,cs),
(26,53,ls),
(23,23,o),
(47,0,o),
(77,0,cs),
(100,0,o),
(122,11,o),
(126,44,cs),
(185,599,ls)
);
}
);
width = 507;
}
);
metricLeft = N;
metricRight = O;
unicode = 66;
},
{
glyphname = C;
lastChange = "2022-03-05 17:43:56 +0000";
layers = (
{
layerId = m01;
shapes = (
{
closed = 1;
nodes = (
(437,580,o),
(454,578,o),
(462,595,cs),
(470,611,o),
(460,625,o),
(450,629,cs),
(419,642,o),
(387,649,o),
(300,649,cs),
(145,649,o),
(66,510,o),
(49,338,cs),
(48,318,o),
(37,218,o),
(40,172,cs),
(46,85,o),
(81,-4,o),
(207,-4,cs),
(297,-4,o),
(377,60,o),
(406,119,cs),
(421,152,o),
(424,164,o),
(407,173,cs),
(386,183,o),
(374,171,o),
(363,148,cs),
(337,98,o),
(275,46,o),
(203,46,cs),
(112,46,o),
(94,114,o),
(90,171,cs),
(86,225,o),
(97,310,o),
(102,349,cs),
(115,484,o),
(184,599,o),
(303,599,cs),
(381,599,o),
(405,592,o),
(427,584,cs)
);
}
);
width = 444;
},
{
layerId = m002;
shapes = (
{
closed = 1;
nodes = (
(479,533,o),
(508,537,o),
(518,570,cs),
(527,601,o),
(515,620,o),
(497,628,cs),
(458,645,o),
(390,650,o),
(339,650,cs),
(139,650,o),
(74,497,o),
(59,348,cs),
(55,327,o),
(45,219,o),
(48,168,cs),
(53,104,o),
(94,-4,o),
(242,-4,cs),
(351,-4,o),
(439,58,o),
(465,127,cs),
(486,188,o),
(489,220,o),
(440,232,cs),
(397,242,o),
(389,214,o),
(375,176,cs),
(358,131,o),
(305,96,o),
(236,96,cs),
(175,96,o),
(152,120,o),
(148,167,cs),
(145,220,o),
(155,310,o),
(161,347,cs),
(172,451,o),
(212,550,o),
(346,550,cs),
(375,550,o),
(424,546,o),
(462,537,cs)
);
}
);
width = 509;
}
);
metricLeft = O;
metricRight = O;
unicode = 67;
},
{
glyphname = D;
lastChange = "2022-03-07 22:08:48 +0000";
layers = (
{
layerId = m01;
shapes = (
{
closed = 1;
nodes = (
(106,0,ls),
(298,0,o),
(415,128,o),
(438,351,cs),
(457,521,o),
(333,650,o),
(144,650,cs),
(108,650,l),
(106,600,l),
(151,600,ls),
(310,600,o),
(403,489,o),
(389,350,cs),
(368,155,o),
(265,50,o),
(103,50,cs),
(50,50,l),
(43,0,l)
);
},
{
closed = 1;
nodes = (
(131,637,o),
(130,650,o),
(109,650,cs),
(87,650,o),
(82,639,o),
(80,623,cs),
(17,27,ls),
(15,12,o),
(24,0,o),
(42,0,cs),
(64,0,o),
(66,15,o),
(67,25,cs),
(130,619,ls)
);
}
);
width = 443;
},
{
layerId = m002;
shapes = (
{
closed = 1;
nodes = (
(152,0,ls),
(345,0,o),
(471,129,o),
(494,351,cs),
(512,523,o),
(376,650,o),
(184,650,cs),
(134,650,l),
(132,562,l),
(195,562,ls),
(333,562,o),
(411,473,o),
(398,350,cs),
(379,177,o),
(289,89,o),
(146,89,cs),
(86,89,l),
(74,0,l)
);
},
{
closed = 1;
nodes = (
(189,641,o),
(163,650,o),
(135,650,cs),
(103,650,o),
(88,636,o),
(85,609,cs),
(26,49,ls),
(23,21,o),
(44,0,o),
(76,0,cs),
(103,0,o),
(123,15,o),
(126,41,cs),
(185,600,ls)
);
}
);
width = 507;
}
);
metricLeft = N;
metricRight = O;
unicode = 68;
},
{
glyphname = E;
lastChange = "2022-03-07 22:08:37 +0000";
layers = (
{
layerId = m01;
shapes = (
{
closed = 1;
nodes = (
(131,637,o),
(130,650,o),
(109,650,cs),
(87,650,o),
(82,639,o),
(80,623,c),
(17,27,l),
(15,12,o),
(24,0,o),
(42,0,cs),
(64,0,o),
(66,15,o),
(67,25,c),
(130,619,l)
);
},
{
closed = 1;
nodes = (
(379,0,ls),
(399,0,o),
(403,14,o),
(403,26,cs),
(403,38,o),
(396,50,o),
(376,50,cs),
(48,50,l),
(43,0,l)
);
},
{
closed = 1;
nodes = (
(390,328,ls),
(410,328,o),
(415,338,o),
(415,350,cs),
(415,362,o),
(407,373,o),
(387,373,cs),
(83,373,l),
(78,328,l)
);
},
{
closed = 1;
nodes = (
(443,600,ls),
(463,600,o),
(467,613,o),
(467,625,cs),
(467,637,o),
(460,650,o),
(440,650,cs),
(113,650,l),
(107,600,l)
);
}
);
width = 452;
},
{
layerId = m002;
shapes = (
{
closed = 1;
nodes = (
(188,638,o),
(164,650,o),
(136,650,cs),
(105,650,o),
(88,639,o),
(85,611,cs),
(26,50,ls),
(23,22,o),
(36,0,o),
(66,0,cs),
(98,0,o),
(123,18,o),
(125,40,cs),
(184,597,ls)
);
},
{
closed = 1;
nodes = (
(414,0,ls),
(444,0,o),
(461,26,o),
(461,52,cs),
(461,76,o),
(442,95,o),
(410,95,cs),
(81,95,l),
(73,0,l)
);
},
{
closed = 1;
nodes = (
(417,288,ls),
(449,288,o),
(468,307,o),
(468,331,cs),
(468,357,o),
(446,373,o),
(416,373,cs),
(115,373,l),
(105,288,l)
);
},
{
closed = 1;
nodes = (
(473,555,ls),
(503,555,o),
(521,580,o),
(521,606,cs),
(521,631,o),
(500,650,o),
(469,650,cs),
(143,650,l),
(133,555,l)
);
}
);
width = 516;
}
);
metricLeft = N;
metricRight = N;
unicode = 69;
},
{
glyphname = F;
kernRight = Fvowel;
lastChange = "2022-03-07 22:08:26 +0000";
layers = (
{
layerId = m01;
shapes = (
{
closed = 1;
nodes = (
(132,637,o),
(130,650,o),
(109,650,cs),
(87,650,o),
(82,639,o),
(80,623,cs),
(17,27,ls),
(15,12,o),
(24,0,o),
(42,0,cs),
(64,0,o),
(66,15,o),
(67,25,cs),
(130,619,ls)
);
},
{
closed = 1;
nodes = (
(381,328,ls),
(401,328,o),
(406,338,o),
(406,350,cs),
(406,362,o),
(398,373,o),
(378,373,cs),
(82,373,l),
(78,328,l)
);
},
{
closed = 1;
nodes = (
(443,600,ls),
(463,600,o),
(467,613,o),
(467,625,cs),
(467,637,o),
(460,650,o),
(440,650,cs),
(110,650,l),
(106,600,l)
);
}
);
width = 452;
},
{
layerId = m002;
shapes = (
{
closed = 1;
nodes = (
(188,638,o),
(162,650,o),
(134,650,cs),
(103,650,o),
(88,638,o),
(85,610,cs),
(26,54,ls),
(23,27,o),
(37,0,o),
(65,0,cs),
(106,0,o),
(123,21,o),
(126,51,cs),
(184,597,ls)
);
},
{
closed = 1;
nodes = (
(416,290,ls),
(448,290,o),
(462,309,o),
(462,333,cs),
(462,359,o),
(441,375,o),
(411,375,cs),
(105,375,l),
(96,290,l)
);
},
{
closed = 1;
nodes = (
(470,555,ls),
(500,555,o),
(521,575,o),
(521,604,cs),
(521,632,o),
(500,650,o),
(469,650,cs),
(137,650,l),
(124,555,l)
);
}
);
width = 516;
}
);
metricLeft = N;
metricRight = N;
unicode = 70;
},
{
glyphname = G;
lastChange = "2022-03-05 17:43:56 +0000";
layers = (
{
layerId = m01;
shapes = (
{
closed = 1;
nodes = (
(391,350,o),
(387,343,o),
(335,255,cs),
(302,199,o),
(210,46,o),
(155,46,cs),
(105,46,o),
(93,89,o),
(90,135,cs),
(85,200,o),
(97,310,o),
(103,364,cs),
(113,450,o),
(139,600,o),
(334,600,cs),
(376,600,o),
(401,581,o),
(411,544,cs),
(415,531,o),
(434,528,o),
(446,531,cs),
(461,535,o),
(460,549,o),
(457,559,cs),
(443,617,o),
(391,650,o),
(328,650,cs),
(107,650,o),
(64,483,o),
(49,338,cs),
(48,318,o),
(35,203,o),
(39,140,cs),
(44,70,o),
(74,-4,o),
(155,-4,cs),
(235,-4,o),
(325,134,o),
(407,275,c),
(415,350,l)
);
},
{
closed = 1;
nodes = (
(436,340,o),
(431,350,o),
(414,350,cs),
(394,350,o),
(386,342,o),
(384,323,cs),
(353,27,ls),
(352,15,o),
(355,1,o),
(375,0,cs),
(398,-1,o),
(402,16,o),
(403,27,cs),
(434,323,ls)
);
}
);
width = 452;
},
{
layerId = m002;
shapes = (
{
closed = 1;
nodes = (
(390,370,o),
(385,361,o),
(333,271,cs),
(302,217,o),
(224,85,o),
(185,85,cs),
(157,85,o),
(151,114,o),
(148,155,cs),
(144,214,o),
(154,304,o),
(159,354,cs),
(169,445,o),
(185,550,o),
(350,550,cs),
(373,550,o),
(395,536,o),
(399,519,cs),
(407,487,o),
(443,480,o),
(467,486,cs),
(494,494,o),
(501,521,o),
(494,546,cs),
(476,617,o),
(411,650,o),
(343,650,cs),
(108,650,o),
(73,487,o),
(57,341,cs),
(55,321,o),
(44,212,o),
(48,151,cs),
(53,79,o),
(83,-4,o),
(179,-4,cs),
(274,-4,o),
(362,153,o),
(425,265,c),
(428,370,l)
);
},
{
closed = 1;
nodes = (
(476,351,o),
(458,370,o),
(427,370,cs),
(388,370,o),
(377,343,o),
(375,327,cs),
(346,49,ls),
(343,18,o),
(364,0,o),
(398,0,cs),
(433,0,o),
(440,18,o),
(443,42,cs),
(473,320,ls)
);
}
);
width = 500;
}
);
metricLeft = O;
metricRight = N;
unicode = 71;
},
{
glyphname = H;
lastChange = "2022-03-05 17:56:27 +0000";
layers = (
{
layerId = m01;
shapes = (
{
closed = 1;
nodes = (
(132,637,o),
(126,650,o),
(109,650,cs),
(90,650,o),
(82,639,o),
(80,623,cs),
(17,27,ls),
(15,12,o),
(24,0,o),
(42,0,cs),
(64,0,o),
(66,15,o),
(67,25,cs),
(130,619,ls)
);
},
{
closed = 1;
nodes = (
(397,328,l),
(402,373,l),
(93,373,l),
(88,328,l)
);
},
{
closed = 1;
nodes = (
(469,638,o),
(462,650,o),
(442,650,cs),
(424,650,o),
(418,638,o),
(417,628,cs),
(353,27,ls),
(352,15,o),
(355,0,o),
(378,0,cs),
(397,0,o),
(402,13,o),
(403,22,cs),
(467,621,ls)
);
}
);
width = 452;
},
{
layerId = m002;
shapes = (
{
closed = 1;
nodes = (
(188,632,o),
(170,650,o),
(141,650,cs),
(114,650,o),
(88,637,o),
(85,609,cs),
(27,49,ls),
(24,21,o),
(45,0,o),
(77,0,cs),
(111,0,o),
(125,20,o),
(127,40,cs),
(184,597,ls)
);
},
{
closed = 1;
nodes = (
(407,292,l),
(415,372,l),
(141,372,l),
(133,292,l)
);
},
{
closed = 1;
nodes = (
(523,631,o),
(502,650,o),
(471,650,cs),
(443,650,o),
(423,635,o),
(421,613,cs),
(362,49,ls),
(359,20,o),
(377,0,o),
(410,0,cs),
(439,0,o),
(459,17,o),
(461,37,cs),
(520,599,ls)
);
}
);
width = 516;
}
);
metricLeft = N;
metricRight = N;
unicode = 72;
},
{
glyphname = I;
lastChange = "2022-03-05 17:56:27 +0000";
layers = (
{
layerId = m01;
shapes = (
{
closed = 1;
nodes = (
(152,637,o),
(149,650,o),
(129,650,cs),
(109,650,o),
(102,639,o),
(100,623,cs),
(37,27,ls),
(35,12,o),
(44,0,o),
(62,0,cs),
(84,0,o),
(86,15,o),
(87,25,cs),
(150,619,ls)
);
}
);
width = 155;
},
{
layerId = m002;
shapes = (
{
closed = 1;
nodes = (
(208,639,o),
(183,650,o),
(158,650,cs),
(129,650,o),
(108,637,o),
(105,609,cs),
(46,49,ls),
(43,21,o),
(59,0,o),
(89,0,cs),
(123,0,o),
(143,18,o),
(145,39,cs),
(204,597,ls)
);
}
);
width = 220;
}
);
metricLeft = "=N+20";
metricRight = "=N+20";
unicode = 73;
},
{
glyphname = J;
lastChange = "2022-03-05 17:56:27 +0000";
layers = (
{
layerId = m01;
shapes = (
{
closed = 1;
nodes = (
(272,205,ls),
(267,157,o),
(258,105,o),
(228,76,cs),
(210,57,o),
(181,50,o),
(147,50,cs),
(121,50,o),
(97,64,o),
(78,88,cs),
(65,105,o),
(44,113,o),
(33,103,cs),
(18,90,o),
(23,77,o),
(42,55,cs),
(67,26,o),
(103,0,o),
(150,0,cs),
(201,0,o),
(237,13,o),
(262,37,cs),
(299,72,o),
(314,131,o),
(322,205,cs),
(365,623,ls),
(367,641,o),
(363,654,o),
(343,654,cs),
(323,654,o),
(317,643,o),
(315,627,cs)
);
}
);
width = 351;
},
{
layerId = m002;
shapes = (
{
closed = 1;
nodes = (
(288,276,ls),
(281,213,o),
(282,152,o),
(253,122,cs),
(236,103,o),
(204,94,o),
(183,94,cs),
(147,94,o),
(122,118,o),
(112,127,cs),
(92,146,o),
(55,147,o),
(37,119,cs),
(27,105,o),
(31,78,o),
(45,63,cs),
(63,44,o),
(102,-4,o),
(192,-4,cs),
(247,-4,o),
(297,20,o),
(333,59,cs),
(378,107,o),
(377,184,o),
(386,268,cs),
(421,597,ls),
(425,639,o),
(401,650,o),
(376,650,cs),
(347,650,o),
(326,637,o),
(323,609,cs)
);
}
);
width = 417;
}
);
metricLeft = N;
metricRight = N;
unicode = 74;
},
{
glyphname = K;
lastChange = "2022-03-07 22:07:27 +0000";
layers = (
{
layerId = m01;
shapes = (
{
closed = 1;
nodes = (
(450,600,ls),
(461,610,o),
(467,619,o),
(468,628,cs),
(468,640,o),
(460,650,o),
(447,650,cs),
(438,651,o),
(428,647,o),
(416,637,cs),
(99,360,l),
(100,348,l),
(157,344,l)
);
},
{
closed = 1;
nodes = (
(99,356,l),
(100,345,l),
(350,19,ls),
(357,9,o),
(368,0,o),
(381,0,cs),
(391,0,o),
(401,6,o),
(403,17,cs),
(404,24,o),
(403,32,o),
(395,42,cs),
(156,354,l)
);
},
{
closed = 1;
nodes = (
(133,637,o),
(129,650,o),
(110,650,cs),
(90,650,o),
(83,639,o),
(81,623,cs),
(18,32,ls),
(16,17,o),
(25,0,o),
(43,0,cs),
(64,0,o),
(67,18,o),
(68,31,cs),
(131,619,ls)
);
}
);
width = 452;
},
{
layerId = m002;
shapes = (
{
closed = 1;
nodes = (
(496,562,ls),
(509,574,o),
(520,587,o),
(521,602,cs),
(522,625,o),
(503,650,o),
(474,650,cs),
(458,650,o),
(438,644,o),
(423,631,cs),
(120,368,l),
(123,326,l),
(217,320,l)
);
},
{
closed = 1;
nodes = (
(119,382,l),
(122,338,l),
(362,25,ls),
(374,9,o),
(393,0,o),
(412,0,cs),
(432,0,o),
(454,10,o),
(457,31,cs),
(459,44,o),
(457,60,o),
(446,74,cs),
(220,368,l)
);
},
{
closed = 1;
nodes = (
(189,636,o),
(163,650,o),
(139,650,cs),
(113,650,o),
(89,637,o),
(86,609,cs),
(26,54,ls),
(23,24,o),
(46,0,o),
(78,0,cs),
(109,0,o),
(123,19,o),
(126,45,cs),
(185,597,ls)
);
}
);
width = 516;
}
);
metricLeft = N;
metricRight = N;
unicode = 75;
},
{
glyphname = L;
lastChange = "2022-03-07 22:07:09 +0000";
layers = (
{
layerId = m01;
shapes = (
{
closed = 1;
nodes = (
(132,637,o),
(129,650,o),
(109,650,cs),
(89,650,o),
(82,639,o),
(80,623,cs),
(17,27,ls),
(15,12,o),
(24,0,o),
(42,0,cs),
(64,0,o),
(66,15,o),
(67,25,cs),
(131,619,ls)
);
},
{
closed = 1;
nodes = (
(379,0,ls),
(397,0,o),
(404,14,o),
(403,26,cs),
(402,38,o),
(394,50,o),
(376,50,cs),
(44,50,l),
(47,0,l)
);
}
);
width = 451;
},
{
layerId = m002;
shapes = (
{
closed = 1;
nodes = (
(188,639,o),
(163,650,o),
(138,650,cs),
(109,650,o),
(88,637,o),
(85,609,cs),
(26,49,ls),
(23,21,o),
(39,0,o),
(69,0,cs),
(103,0,o),
(123,18,o),
(125,39,cs),
(184,597,ls)
);
},
{
closed = 1;
nodes = (
(415,0,ls),
(445,0,o),
(462,22,o),
(462,46,cs),
(462,70,o),
(439,91,o),
(409,91,cs),
(80,91,l),
(70,0,l)
);
}
);
width = 516;
}
);
metricLeft = N;
metricRight = N;
unicode = 76;
},
{
glyphname = M;
lastChange = "2022-03-07 22:07:38 +0000";
layers = (
{
layerId = m01;
shapes = (
{
closed = 1;
nodes = (
(142,630,ls),
(139,639,o),
(129,650,o),
(108,650,c),
(104,589,l),
(308,18,ls),
(312,8,o),
(323,0,o),
(337,0,c),
(343,67,l)
);
},
{
closed = 1;
nodes = (
(109,650,l),
(87,650,o),
(82,639,o),
(80,623,cs),
(17,27,ls),
(15,12,o),
(24,0,o),
(42,0,cs),
(64,0,o),
(66,16,o),
(67,28,cs),
(129,612,l)
);
},
{
closed = 1;
nodes = (
(652,0,o),
(655,15,o),
(656,25,cs),
(719,619,ls),
(721,637,o),
(717,650,o),
(698,650,c),
(663,569,l),
(606,27,ls),
(605,15,o),
(611,0,o),
(630,0,c)
);
},
{
closed = 1;
nodes = (
(336,0,l),
(350,0,o),
(355,8,o),
(361,18,cs),
(694,573,l),
(697,650,l),
(679,650,o),
(677,643,o),
(672,634,cs),
(329,62,l)
);
}
);
width = 704;
},
{
layerId = m002;
shapes = (
{
closed = 1;
nodes = (
(194,620,ls),
(186,641,o),
(160,650,o),
(134,650,c),
(138,491,l),
(306,35,ls),
(314,13,o),
(343,0,o),
(379,0,c),
(385,100,l)
);
},
{
closed = 1;
nodes = (
(137,650,l),
(105,650,o),
(88,636,o),
(85,609,cs),
(27,49,ls),
(24,21,o),
(44,0,o),
(73,0,cs),
(106,0,o),
(125,19,o),
(127,42,cs),
(174,498,l)
);
},
{
closed = 1;
nodes = (
(706,0,o),
(715,19,o),
(717,40,cs),
(775,597,ls),
(778,629,o),
(762,650,o),
(729,650,c),
(661,464,l),
(617,45,ls),
(614,19,o),
(642,0,o),
(672,0,c)
);
},
{
closed = 1;
nodes = (
(373,0,l),
(409,0,o),
(426,13,o),
(439,35,cs),
(689,462,l),
(731,650,l),
(695,650,o),
(681,641,o),
(669,620,cs),
(366,103,l)
);
}
);
width = 771;
}
);
metricLeft = N;
metricRight = N;
unicode = 77;
},
{
glyphname = N;
lastChange = "2022-03-05 17:55:52 +0000";
layers = (
{
layerId = m01;
shapes = (
{
closed = 1;
nodes = (
(140,630,ls),
(135,639,o),
(126,650,o),
(108,650,c),
(105,589,l),
(420,18,ls),
(425,8,o),
(434,0,o),
(448,0,c),
(450,67,l)
);
},
{
closed = 1;
nodes = (
(109,650,l),
(87,650,o),
(82,639,o),
(80,623,cs),
(17,27,ls),
(15,12,o),
(24,0,o),
(42,0,cs),
(64,0,o),
(66,16,o),
(67,28,cs),
(129,612,l)
);
},
{
closed = 1;
nodes = (
(469,0,o),
(470,15,o),
(471,25,cs),
(534,619,ls),
(536,637,o),
(532,650,o),
(513,650,cs),
(493,650,o),
(486,639,o),
(484,623,cs),
(423,48,l),
(447,0,l)
);
}
);
width = 519;
},
{
layerId = m002;
shapes = (
{
closed = 1;
nodes = (
(189,620,ls),
(177,641,o),
(160,650,o),
(134,650,c),
(109,569,l),
(409,28,ls),
(419,10,o),
(434,0,o),
(460,0,c),
(462,126,l)
);
},
{
closed = 1;
nodes = (
(137,650,l),
(105,650,o),
(88,636,o),
(85,609,cs),
(27,49,ls),
(24,21,o),
(44,0,o),
(73,0,cs),
(106,0,o),
(125,19,o),
(127,42,cs),
(184,592,l)
);
},
{
closed = 1;
nodes = (
(493,0,o),
(502,19,o),
(504,40,cs),
(562,597,ls),
(565,629,o),
(548,653,o),
(515,653,cs),
(487,653,o),
(466,637,o),
(463,609,cs),
(410,105,l),
(459,0,l)
);
}
);
width = 558;
}
);
unicode = 78;
},
{
glyphname = O;
lastChange = "2022-03-05 17:42:36 +0000";
layers = (
{
layerId = m01;
shapes = (
{
closed = 1;
nodes = (
(323,-4,o),
(426,247,o),
(446,435,cs),
(458,548,o),
(396,650,o),
(268,650,cs),
(145,650,o),
(92,557,o),
(60,409,cs),
(52,369,o),
(46,322,o),
(46,278,cs),
(43,143,o),
(75,-4,o),
(162,-4,cs)
);
},
{
closed = 1;
nodes = (
(111,46,o),
(96,178,o),
(96,268,cs),
(97,310,o),
(100,355,o),
(107,388,cs),
(135,526,o),
(177,600,o),
(264,600,cs),
(385,600,o),
(404,511,o),
(395,425,cs),
(378,263,o),
(279,46,o),
(158,46,cs)
);
}
);
width = 442;
},
{
layerId = m002;
shapes = (
{
closed = 1;
nodes = (
(360,-4,o),
(485,242,o),
(504,429,cs),
(516,548,o),
(427,652,o),
(299,652,cs),
(171,652,o),
(100,555,o),
(68,410,cs),
(60,370,o),
(54,325,o),
(54,283,cs),
(52,150,o),
(70,-4,o),
(190,-4,cs)
);
},
{
closed = 1;
nodes = (
(158,86,o),
(153,187,o),
(154,269,cs),
(154,308,o),
(158,348,o),
(164,378,cs),
(190,505,o),
(224,562,o),
(301,562,cs),
(405,562,o),
(409,484,o),
(403,427,cs),
(387,281,o),
(277,86,o),
(200,86,cs)
);
}
);
width = 508;
}
);
unicode = 79;
},
{
glyphname = P;
kernRight = Pvowel;
lastChange = "2022-03-06 02:41:27 +0000";
layers = (
{
layerId = m01;
shapes = (
{
closed = 1;
nodes = (
(264,300,o),
(418,321,o),
(434,476,cs),
(446,597,o),
(309,650,o),
(113,650,c),
(116,600,l),
(297,600,o),
(393,561,o),
(384,481,cs),
(372,367,o),
(240,350,o),
(96,350,c),
(92,300,l)
);
},
{
closed = 1;
nodes = (
(132,637,o),
(130,650,o),
(109,650,cs),
(87,650,o),
(82,639,o),
(80,623,cs),
(17,27,ls),
(15,12,o),
(24,-4,o),
(42,-4,cs),
(64,-4,o),
(66,15,o),
(67,25,cs),
(130,619,ls)
);
}
);
width = 425;
},
{
layerId = m002;
shapes = (
{
closed = 1;
nodes = (
(261,269,o),
(449,289,o),
(468,467,cs),
(483,602,o),
(342,656,o),
(131,652,c),
(138,561,l),
(320,564,o),
(385,535,o),
(378,472,cs),
(368,382,o),
(229,359,o),
(136,358,c),
(127,268,l)
);
},
{
closed = 1;
nodes = (
(188,639,o),
(160,652,o),
(135,652,cs),
(105,652,o),
(88,637,o),
(85,609,cs),
(26,48,ls),
(23,21,o),
(43,-6,o),
(76,-6,cs),
(110,-6,o),
(124,17,o),
(126,39,cs),
(184,597,ls)
);
}
);
width = 468;
}
);
metricLeft = N;
metricRight = O;
unicode = 80;
},
{
glyphname = Q;
lastChange = "2022-03-05 17:43:56 +0000";
layers = (
{
layerId = m01;
shapes = (
{
closed = 1;
nodes = (
(204,146,o),
(185,149,o),
(174,135,cs),
(165,125,o),
(169,111,o),
(183,97,cs),
(321,-34,ls),
(335,-47,o),
(354,-51,o),
(364,-41,cs),
(375,-32,o),
(371,-13,o),
(360,-2,cs),
(217,134,ls)
);
},
{
closed = 1;
nodes = (
(323,-4,o),
(426,250,o),
(446,438,cs),
(458,551,o),
(396,650,o),
(268,650,cs),
(145,650,o),
(92,557,o),
(60,409,cs),
(52,369,o),
(46,322,o),
(46,278,cs),
(43,143,o),
(75,-4,o),
(162,-4,cs)
);
},
{
closed = 1;
nodes = (
(111,46,o),
(95,178,o),
(95,268,cs),
(96,310,o),
(100,355,o),
(107,388,cs),
(135,526,o),
(177,600,o),
(264,600,cs),
(385,600,o),
(404,511,o),
(395,425,cs),
(378,263,o),
(279,46,o),
(158,46,cs)
);
}
);
width = 441;
},
{
layerId = m002;
shapes = (
{
closed = 1;
nodes = (
(257,180,o),
(222,179,o),
(209,161,cs),
(194,143,o),
(193,117,o),
(218,94,cs),
(348,-30,ls),
(372,-52,o),
(405,-54,o),
(423,-38,cs),
(444,-20,o),
(439,9,o),
(418,30,cs),
(285,158,l)
);
},
{
closed = 1;
nodes = (
(360,-4,o),
(485,242,o),
(504,429,cs),
(516,548,o),
(427,652,o),
(299,652,cs),
(171,652,o),
(100,555,o),
(68,410,cs),
(60,370,o),
(54,325,o),
(54,283,cs),
(52,150,o),
(70,-4,o),
(190,-4,cs)
);
},
{
closed = 1;
nodes = (
(158,86,o),
(153,187,o),
(154,269,cs),
(154,308,o),
(158,348,o),
(164,378,cs),
(190,505,o),
(224,562,o),
(301,562,cs),
(405,562,o),
(409,482,o),
(403,425,cs),
(387,279,o),
(277,86,o),
(200,86,cs)
);
}
);
width = 508;
}
);
metricLeft = O;
metricRight = O;
unicode = 81;
},
{
glyphname = R;
lastChange = "2022-03-05 17:56:27 +0000";
layers = (
{
layerId = m01;
shapes = (
{
closed = 1;
nodes = (
(274,303,o),
(436,321,o),
(452,476,cs),
(464,597,o),
(330,650,o),
(113,650,c),
(116,600,l),
(309,600,o),
(411,560,o),
(402,481,cs),
(390,368,o),
(249,350,o),
(88,350,c),
(84,303,l)
);
},
{
closed = 1;
nodes = (
(83,319,l),
(353,19,ls),
(364,6,o),
(372,0,o),
(380,0,cs),
(390,0,o),
(400,7,o),
(402,15,cs),
(404,23,o),
(404,34,o),
(397,42,cs),
(148,319,l)
);
},
{
closed = 1;
nodes = (
(132,637,o),
(130,650,o),
(109,650,cs),
(87,650,o),
(82,639,o),
(80,623,cs),
(18,33,ls),
(16,16,o),
(24,0,o),
(42,0,cs),
(64,0,o),
(66,16,o),
(68,31,cs),
(130,619,ls)
);
}
);
width = 443;
},
{
layerId = m002;
shapes = (
{
closed = 1;
nodes = (
(299,274,o),
(487,289,o),
(506,467,cs),
(521,602,o),
(381,650,o),
(134,650,c),
(140,559,l),
(356,562,o),
(416,533,o),
(409,470,cs),
(400,382,o),
(269,359,o),
(142,359,c),
(133,274,l)
);
},
{
closed = 1;
nodes = (
(136,285,l),
(370,23,ls),
(388,2,o),
(404,0,o),
(417,0,cs),
(436,0,o),
(456,11,o),
(460,29,cs),
(463,42,o),
(464,57,o),
(453,69,cs),
(257,289,l)
);
},
{
closed = 1;
nodes = (
(188,638,o),
(166,650,o),
(138,650,cs),
(107,650,o),
(88,637,o),
(85,609,cs),
(26,54,ls),
(23,24,o),
(37,0,o),
(69,0,cs),
(108,0,o),
(123,23,o),
(126,53,cs),
(184,597,ls)
);
}
);
width = 507;
}
);
metricLeft = N;
metricRight = O;
unicode = 82;
},
{
glyphname = S;
lastChange = "2022-03-05 17:43:56 +0000";
layers = (
{
layerId = m01;
shapes = (
{
closed = 1;
nodes = (
(114,50,o),
(81,66,o),
(72,103,cs),
(68,116,o),
(49,119,o),
(37,116,cs),
(22,112,o),
(23,98,o),
(26,88,cs),
(40,30,o),
(96,0,o),
(162,0,cs),
(306,0,o),
(405,50,o),
(418,172,cs),
(427,258,o),
(342,318,o),
(267,368,cs),
(190,419,o),
(114,452,o),
(119,497,cs),
(125,555,o),
(220,600,o),
(296,600,cs),
(385,600,o),
(402,584,o),
(411,547,cs),
(414,534,o),
(434,531,o),
(446,534,cs),
(460,538,o),
(459,552,o),
(457,562,cs),
(440,626,o),
(399,650,o),
(294,650,cs),
(166,650,o),
(77,576,o),
(70,505,cs),
(61,422,o),
(154,385,o),
(229,334,cs),
(312,278,o),
(373,236,o),
(368,177,cs),
(359,88,o),
(278,50,o),
(159,50,cs)
);
}
);
width = 442;
},
{
layerId = m002;
shapes = (
{
closed = 1;
nodes = (
(164,94,o),
(132,103,o),
(126,124,cs),
(118,153,o),
(84,160,o),
(63,154,cs),
(38,148,o),
(29,126,o),
(36,102,cs),
(53,34,o),
(115,0,o),
(189,0,cs),
(326,0,o),
(463,51,o),
(477,174,cs),
(488,285,o),
(373,341,o),
(308,385,cs),
(255,421,o),
(173,456,o),
(171,484,cs),
(168,522,o),
(246,556,o),
(324,556,cs),
(394,556,o),
(415,549,o),
(420,526,cs),
(427,496,o),
(465,489,o),
(486,495,cs),
(511,503,o),
(518,524,o),
(513,548,cs),
(494,621,o),
(439,650,o),
(333,650,cs),
(176,650,o),
(68,573,o),
(74,480,cs),
(81,392,o),
(189,352,o),
(246,313,cs),
(313,266,o),
(385,227,o),
(381,184,cs),
(375,122,o),
(297,94,o),
(226,94,cs)
);
}
);
width = 508;
}
);
metricLeft = O;
metricRight = O;
unicode = 83;
},
{
glyphname = T;
kernRight = Tvowel;
lastChange = "2022-03-06 02:01:49 +0000";
layers = (
{
layerId = m01;
shapes = (
{
closed = 1;
nodes = (
(248,611,l),
(186,27,ls),
(184,12,o),
(192,0,o),
(210,0,cs),
(232,0,o),
(235,18,o),
(236,28,cs),
(298,611,l)
);
},
{
closed = 1;
nodes = (
(463,600,o),
(467,613,o),
(467,625,cs),
(467,637,o),
(460,650,o),
(440,650,cs),
(106,650,ls),
(86,650,o),
(81,637,o),
(81,625,cs),
(81,613,o),
(89,600,o),
(109,600,cs),
(443,600,ls)
);
}
);
width = 452;
},
{
layerId = m002;
shapes = (
{
closed = 1;
nodes = (
(249,576,l),
(193,49,ls),
(190,21,o),
(211,-2,o),
(242,-2,cs),
(275,-2,o),
(287,22,o),
(290,43,cs),
(347,576,l)
);
},
{
closed = 1;
nodes = (
(505,563,o),
(521,583,o),
(520,607,cs),
(518,633,o),
(496,653,o),
(466,653,cs),
(131,653,ls),
(101,653,o),
(83,633,o),
(85,607,cs),
(86,583,o),
(106,563,o),
(138,563,cs),
(473,563,ls)
);
}
);
width = 515;
}
);
metricLeft = N;
metricRight = N;
unicode = 84;
},
{
glyphname = U;
lastChange = "2022-03-05 17:56:27 +0000";
layers = (
{
layerId = m01;
shapes = (
{
closed = 1;
nodes = (
(428,520,l),
(418,520,l),
(415,509,l),
(403,467,o),
(354,351,o),
(341,320,cs),
(282,192,o),
(167,45,o),
(117,45,cs),
(70,45,o),
(77,116,o),
(84,180,cs),
(134,622,ls),
(136,636,o),
(126,649,o),
(111,650,cs),
(95,650,o),
(85,636,o),
(83,620,cs),
(34,183,ls),
(19,52,o),
(55,-4,o),
(114,-4,cs),
(191,-4,o),
(300,118,o),
(377,283,c),
(400,327,l)
);
},
{
closed = 1;
nodes = (
(470,639,o),
(463,650,o),
(443,650,cs),
(425,650,o),
(419,638,o),
(418,626,cs),
(354,27,ls),
(352,8,o),
(365,-1,o),
(379,-1,cs),
(391,-1,o),
(403,7,o),
(404,22,cs),
(468,624,ls)
);
}
);
width = 453;
},
{
layerId = m002;
shapes = (
{
closed = 1;
nodes = (
(436,543,l),
(417,543,l),
(411,510,ls),
(395,423,o),
(366,364,o),
(349,337,cs),
(306,265,o),
(202,86,o),
(155,86,cs),
(136,86,o),
(134,125,o),
(141,185,cs),
(187,600,ls),
(190,629,o),
(168,650,o),
(139,650,cs),
(106,651,o),
(89,624,o),
(87,606,cs),
(41,195,ls),
(26,57,o),
(72,-4,o),
(145,-4,cs),
(230,-4,o),
(313,76,o),
(397,215,c),
(413,385,l)
);
},
{
closed = 1;
nodes = (
(524,630,o),
(505,650,o),
(471,650,cs),
(443,650,o),
(423,635,o),
(421,612,cs),
(362,49,ls),
(359,16,o),
(383,0,o),
(411,0,cs),
(434,0,o),
(458,12,o),
(461,37,cs),
(521,602,ls)
);
}
);
width = 516;
}
);
metricLeft = N;
metricRight = N;
unicode = 85;
},
{
glyphname = V;
kernRight = Wvowel;
lastChange = "2022-03-07 22:06:07 +0000";
layers = (
{
layerId = m01;
shapes = (
{
closed = 1;
nodes = (
(187,0,o),
(190,11,o),
(196,25,cs),
(433,618,ls),
(440,638,o),
(429,650,o),
(414,650,cs),
(395,650,o),
(386,642,o),
(379,625,cs),
(146,39,l),
(168,0,l)
);
},
{
closed = 1;
nodes = (
(98,626,ls),
(97,636,o),
(92,650,o),
(70,650,c),
(52,650,o),
(46,639,o),
(48,624,cs),
(139,28,ls),
(141,15,o),
(150,0,o),
(169,0,c),
(187,37,l)
);
}
);
width = 402;
},
{
layerId = m002;
shapes = (
{
closed = 1;
nodes = (
(236,-2,o),
(249,15,o),
(257,34,cs),
(497,591,ls),
(512,625,o),
(489,650,o),
(457,650,cs),
(428,650,o),
(409,638,o),
(400,618,cs),
(176,98,l),
(207,-2,l)
);
},
{
closed = 1;
nodes = (
(162,610,ls),
(158,633,o),
(141,650,o),
(109,650,cs),
(80,650,o),
(61,634,o),
(66,604,cs),
(155,44,ls),
(159,19,o),
(179,-1,o),
(209,-2,c),
(244,98,l)
);
}
);
width = 475;
}
);
metricLeft = A;
metricRight = A;
unicode = 86;
},
{
glyphname = W;
lastChange = "2022-03-07 22:05:10 +0000";
layers = (
{
layerId = m01;
shapes = (
{
closed = 1;
nodes = (
(525,0,o),
(529,11,o),
(535,25,cs),
(773,618,ls),
(782,639,o),
(768,650,o),
(754,650,cs),
(735,650,o),
(729,644,o),
(722,625,cs),
(508,92,l),
(506,0,l)
);
},
{
closed = 1;
nodes = (
(98,626,ls),
(96,636,o),
(92,650,o),
(70,650,c),
(52,650,o),
(46,639,o),
(48,624,cs),
(139,28,ls),
(141,12,o),
(153,0,o),
(168,0,c),
(181,87,l)
);
},
{
closed = 1;
nodes = (
(187,0,o),
(192,15,o),
(196,26,cs),
(411,570,l),
(408,650,l),
(392,650,o),
(382,633,o),
(379,626,cs),
(167,89,l),
(167,0,l)
);
},
{
closed = 1;
nodes = (
(438,626,ls),
(436,636,o),
(432,650,o),
(407,650,c),
(395,575,l),
(480,19,ls),
(481,13,o),
(489,0,o),
(507,0,c),
(520,89,l)
);
}
);
width = 742;
},
{
layerId = m002;
shapes = (
{
closed = 1;
nodes = (
(579,0,o),
(591,12,o),
(600,33,cs),
(840,591,ls),
(850,615,o),
(835,650,o),
(797,650,cs),
(765,650,o),
(748,630,o),
(742,616,cs),
(550,171,l),
(548,0,l)
);
},
{
closed = 1;
nodes = (
(166,610,ls),
(162,633,o),
(142,650,o),
(110,650,cs),
(81,650,o),
(61,634,o),
(66,604,cs),
(155,44,ls),
(160,15,o),
(179,0,o),
(213,0,c),
(241,139,l)
);
},
{
closed = 1;
nodes = (
(243,0,o),
(265,14,o),
(273,34,cs),
(452,479,l),
(453,650,l),
(420,650,o),
(408,631,o),
(403,619,cs),
(213,147,l),
(212,0,l)
);
},
{
closed = 1;
nodes = (
(509,610,ls),
(505,635,o),
(487,650,o),
(452,650,c),
(429,483,l),
(496,32,ls),
(499,15,o),
(517,0,o),
(547,0,c),
(574,171,l)
);
}
);
width = 817;
}
);
metricLeft = A;
metricRight = A;
unicode = 87;
},
{
glyphname = X;
lastChange = "2022-03-05 17:56:27 +0000";
layers = (
{
layerId = m01;
shapes = (
{
closed = 1;
nodes = (
(472,624,o),
(469,638,o),
(460,645,cs),
(449,653,o),
(430,652,o),
(420,637,cs),
(22,38,ls),
(14,26,o),
(17,13,o),
(27,6,cs),
(38,-3,o),
(55,-2,o),
(65,13,cs),
(462,609,ls)
);
},
{
closed = 1;
nodes = (
(127,650,o),
(106,654,o),
(95,649,cs),
(83,645,o),
(80,632,o),
(88,614,cs),
(354,20,ls),
(362,1,o),
(380,-3,o),
(393,3,cs),
(402,8,o),
(409,20,o),
(402,35,cs),
(135,631,ls)
);
}
);
width = 453;
},
{
layerId = m002;
shapes = (
{
closed = 1;
nodes = (
(510,602,o),
(503,623,o),
(484,639,cs),
(465,655,o),
(426,656,o),
(409,631,cs),
(34,69,ls),
(20,48,o),
(24,29,o),
(43,13,cs),
(63,-3,o),
(103,-8,o),
(119,16,cs),
(494,578,ls)
);
},
{
closed = 1;
nodes = (
(175,651,o),
(140,654,o),
(118,647,cs),
(92,637,o),
(83,617,o),
(97,586,cs),
(346,28,ls),
(359,-1,o),
(399,-6,o),
(422,6,cs),
(442,17,o),
(450,36,o),
(439,61,cs),
(188,623,ls)
);
}
);
width = 498;
}
);
metricLeft = N;
metricRight = N;
unicode = 88;
},
{
glyphname = Y;
kernRight = Yvowel;
lastChange = "2022-03-06 02:09:42 +0000";
layers = (
{
layerId = m01;
shapes = (
{
closed = 1;
nodes = (
(253,353,l),
(133,630,ls),
(128,642,o),
(113,655,o),
(94,648,cs),
(77,642,o),
(79,629,o),
(86,613,cs),
(224,295,l)
);
},
{
closed = 1;
nodes = (
(418,624,o),
(417,638,o),
(408,645,cs),
(397,653,o),
(375,650,o),
(368,635,cs),
(98,38,ls),
(93,26,o),
(92,13,o),
(102,6,cs),
(113,-3,o),
(134,-4,o),
(141,11,cs),
(411,609,ls)
);
}
);
width = 400;
},
{
layerId = m002;
shapes = (
{
closed = 1;
nodes = (
(273,407,l),
(183,621,ls),
(175,641,o),
(147,658,o),
(112,646,cs),
(85,637,o),
(80,612,o),
(90,588,cs),
(214,292,l)
);
},
{
closed = 1;
nodes = (
(451,602,o),
(447,630,o),
(421,645,cs),
(400,656,o),
(363,650,o),
(351,624,cs),
(98,69,ls),
(89,48,o),
(88,29,o),
(107,13,cs),
(127,-3,o),
(173,-8,o),
(184,16,cs),
(440,578,ls)
);
}
);
width = 441;
}
);
metricLeft = N;
metricRight = N;
unicode = 89;
},
{
glyphname = Z;
lastChange = "2022-03-05 17:56:27 +0000";
layers = (
{
layerId = m01;
shapes = (
{
closed = 1;
nodes = (
(469,619,o),
(469,630,o),
(464,638,cs),
(459,645,o),
(448,650,o),
(437,650,cs),
(430,650,o),
(426,644,o),
(421,638,cs),
(23,39,ls),
(19,32,o),
(14,22,o),
(20,13,cs),
(25,6,o),
(35,0,o),
(52,0,cs),
(58,0,o),
(63,7,o),
(65,11,cs),
(461,608,ls)
);
},
{
closed = 1;
nodes = (
(379,0,ls),
(399,0,o),
(404,13,o),
(403,25,cs),
(402,37,o),
(396,50,o),
(376,50,cs),
(83,50,l),
(45,0,l)
);
},
{
closed = 1;
nodes = (
(441,650,l),
(106,650,ls),
(86,650,o),
(80,637,o),
(81,625,cs),
(82,613,o),
(89,600,o),
(109,600,cs),
(401,600,l)
);
}
);
width = 452;
},
{
layerId = m002;
shapes = (
{
closed = 1;
nodes = (
(507,595,o),
(509,614,o),
(500,629,cs),
(491,644,o),
(473,653,o),
(449,653,cs),
(435,653,o),
(419,644,o),
(412,633,cs),
(34,70,ls),
(25,57,o),
(21,39,o),
(30,23,cs),
(37,11,o),
(56,0,o),
(85,0,cs),
(101,0,o),
(114,10,o),
(119,17,cs),
(495,577,ls)
);
},
{
closed = 1;
nodes = (
(397,0,ls),
(429,0,o),
(446,19,o),
(444,43,cs),
(442,69,o),
(421,90,o),
(391,90,cs),
(155,90,l),
(82,0,l)
);
},
{
closed = 1;
nodes = (
(451,653,l),
(133,653,ls),
(103,653,o),
(85,633,o),
(87,607,cs),
(88,583,o),
(108,563,o),
(140,563,cs),
(378,563,l)
);
}
);
width = 500;
}
);
metricLeft = N;
metricRight = N;
unicode = 90;
},
{
glyphname = a;
lastChange = "2022-03-08 02:48:23 +0000";
layers = (
{
layerId = m01;
shapes = (
{
closed = 1;
nodes = (
(239,241,l),
(186,110,o),
(129,46,o),
(100,46,cs),
(73,46,o),
(63,61,o),
(63,126,cs),
(63,184,o),
(96,300,o),
(167,300,cs),
(180,300,o),
(233,300,o),
(241,300,c),
(246,350,l),
(234,350,o),
(180,350,o),
(164,350,cs),
(61,350,o),
(13,211,o),
(13,121,cs),
(13,21,o),
(54,-4,o),
(92,-4,cs),
(146,-4,o),
(190,45,o),
(226,109,c)
);
},
{
closed = 1;
nodes = (
(287,329,o),
(286,337,o),
(283,342,cs),
(280,347,o),
(276,350,o),
(269,350,cs),
(239,350,l),
(204,23,ls),
(203,15,o),
(205,0,o),
(227,0,cs),
(253,0,o),
(253,18,o),
(254,23,cs),
(286,316,ls)
);
}
);
width = 298;
},
{
layerId = m002;
shapes = (
{
closed = 1;
nodes = (
(240,195,l),
(191,112,o),
(155,83,o),
(133,83,cs),
(115,83,o),
(105,101,o),
(108,130,cs),
(113,175,o),
(109,263,o),
(222,263,cs),
(228,263,o),
(242,263,o),
(249,263,c),
(258,350,l),
(250,350,o),
(225,350,o),
(218,350,cs),
(62,350,o),
(34,261,o),
(19,120,cs),
(8,21,o),
(70,-4,o),
(127,-4,cs),
(157,-4,o),
(195,17,o),
(226,47,c)
);
},
{
closed = 1;
nodes = (
(327,310,o),
(326,320,o),
(322,329,cs),
(315,342,o),
(300,350,o),
(284,350,cs),
(235,350,l),
(203,44,ls),
(201,21,o),
(218,0,o),
(250,0,cs),
(286,0,o),
(296,22,o),
(298,37,cs),
(325,295,ls)
);
}
);
width = 333;
}
);
metricLeft = "=n-15";
metricRight = o;
unicode = 97;
},
{
glyphname = b;
lastChange = "2022-03-08 02:42:21 +0000";
layers = (
{
layerId = m01;
shapes = (
{
closed = 1;
nodes = (
(131,621,ls),
(133,640,o),
(122,650,o),
(110,650,cs),
(97,650,o),
(83,641,o),
(81,621,cs),
(16,22,ls),
(15,10,o),
(22,0,o),
(34,0,c),
(65,0,l)
);
},
{
closed = 1;
nodes = (
(64,108,l),
(117,239,o),
(174,303,o),
(203,303,cs),
(230,303,o),
(240,288,o),
(240,223,cs),
(240,165,o),
(207,50,o),
(136,50,cs),
(123,50,o),
(70,50,o),
(62,50,c),
(57,0,l),
(69,0,o),
(123,0,o),
(139,0,cs),
(242,0,o),
(290,138,o),
(290,228,cs),
(290,328,o),
(249,353,o),
(211,353,cs),
(157,353,o),
(113,304,o),
(77,240,c)
);
}
);
width = 313;
},
{
layerId = m002;
shapes = (
{
closed = 1;
nodes = (
(186,599,ls),
(189,632,o),
(164,650,o),
(137,650,cs),
(117,650,o),
(90,640,o),
(86,607,cs),
(26,44,ls),
(23,18,o),
(42,0,o),
(69,0,cs),
(123,0,l)
);
},
{
closed = 1;
nodes = (
(112,155,l),
(161,238,o),
(200,267,o),
(219,267,cs),
(237,267,o),
(245,249,o),
(242,220,cs),
(237,175,o),
(243,87,o),
(130,87,cs),
(124,87,o),
(110,87,o),
(103,87,c),
(94,0,l),
(102,0,o),
(127,0,o),
(134,0,cs),
(290,0,o),
(318,89,o),
(333,230,cs),
(344,329,o),
(282,354,o),
(225,354,cs),
(195,354,o),
(157,333,o),
(126,303,c)
);
}
);
width = 347;
}
);
metricLeft = n;
metricRight = o;
unicode = 98;
},
{
glyphname = c;
lastChange = "2022-03-08 02:43:08 +0000";
layers = (
{
layerId = m01;
shapes = (
{
closed = 1;
nodes = (
(257,141,o),
(247,154,o),
(240,158,cs),
(232,162,o),
(214,165,o),
(208,154,cs),
(178,96,o),
(133,46,o),
(109,46,cs),
(81,46,o),
(73,77,o),
(74,105,cs),
(76,181,o),
(103,300,o),
(177,300,cs),
(195,300,o),
(220,296,o),
(233,294,cs),
(245,292,o),
(261,292,o),
(269,309,cs),
(276,324,o),
(272,337,o),
(258,340,cs),
(239,344,o),
(204,350,o),
(177,350,cs),
(64,350,o),
(24,207,o),
(23,95,cs),
(23,20,o),
(68,-4,o),
(109,-4,cs),
(162,-4,o),
(216,60,o),
(252,131,cs)
);
}
);
width = 284;
},
{
layerId = m002;
shapes = (
{
closed = 1;
nodes = (
(280,132,o),
(279,159,o),
(253,172,cs),
(227,185,o),
(201,179,o),
(193,164,cs),
(171,122,o),
(141,83,o),
(124,83,cs),
(110,83,o),
(101,99,o),
(103,118,cs),
(108,164,o),
(118,264,o),
(177,264,cs),
(188,264,o),
(217,264,o),
(239,259,cs),
(250,256,o),
(274,257,o),
(289,290,cs),
(303,321,o),
(291,332,o),
(278,337,cs),
(256,346,o),
(215,350,o),
(184,350,cs),
(54,350,o),
(26,233,o),
(14,120,cs),
(3,24,o),
(65,-4,o),
(114,-4,cs),
(182,-4,o),
(239,56,o),
(274,121,cs)
);
}
);
width = 301;
}
);
metricLeft = o;
metricRight = o;
unicode = 99;
},
{
glyphname = d;
lastChange = "2022-03-08 02:43:21 +0000";
layers = (
{
layerId = m01;
shapes = (
{
closed = 1;
nodes = (
(320,640,o),
(307,650,o),
(293,650,cs),
(282,650,o),
(270,644,o),
(268,629,cs),
(204,27,ls),
(202,9,o),
(217,0,o),
(231,0,cs),
(242,0,o),
(252,7,o),
(254,22,cs),
(318,624,ls)
);
},
{
closed = 1;
nodes = (
(239,241,l),
(186,110,o),
(129,46,o),
(100,46,cs),
(73,46,o),
(63,61,o),
(63,126,cs),
(63,184,o),
(96,300,o),
(167,300,cs),
(180,300,o),
(233,300,o),
(241,300,c),
(246,350,l),
(234,350,o),
(180,350,o),
(164,350,cs),
(61,350,o),
(13,211,o),
(13,121,cs),
(13,21,o),
(54,-4,o),
(92,-4,cs),
(146,-4,o),
(190,45,o),
(226,109,c)
);
}
);
width = 303;
},
{
layerId = m002;
shapes = (
{
closed = 1;
nodes = (
(361,631,o),
(339,650,o),
(311,650,cs),
(289,650,o),
(267,640,o),
(264,612,cs),
(204,50,ls),
(200,15,o),
(226,0,o),
(249,0,cs),
(271,0,o),
(296,15,o),
(299,44,cs),
(358,599,ls)
);
},
{
closed = 1;
nodes = (
(240,195,l),
(191,112,o),
(155,83,o),
(133,83,cs),
(115,83,o),
(105,101,o),
(108,130,cs),
(113,175,o),
(109,263,o),
(222,263,cs),
(228,263,o),
(242,263,o),
(249,263,c),
(258,350,l),
(250,350,o),
(225,350,o),
(218,350,cs),
(62,350,o),
(34,261,o),
(19,120,cs),
(8,21,o),
(70,-4,o),
(127,-4,cs),
(157,-4,o),
(195,17,o),
(226,47,c)
);
}
);
width = 353;
}
);
metricLeft = a;
metricRight = n;
unicode = 100;
},
{
glyphname = e;
lastChange = "2022-03-08 02:43:33 +0000";
layers = (
{
layerId = m01;
shapes = (
{
closed = 1;
nodes = (
(151,145,o),
(270,222,o),
(277,287,cs),
(281,328,o),
(238,350,o),
(187,350,cs),
(71,350,o),
(27,225,o),
(23,107,cs),
(19,19,o),
(64,-4,o),
(102,-4,cs),
(155,-4,o),
(207,37,o),
(227,68,cs),
(246,97,o),
(248,114,o),
(237,121,cs),
(226,129,o),
(208,130,o),
(191,105,cs),
(180,92,o),
(142,46,o),
(105,46,cs),
(92,46,o),
(72,64,o),
(73,98,cs),
(76,193,o),
(99,300,o),
(196,300,cs),
(214,300,o),
(227,292,o),
(226,284,cs),
(224,267,o),
(131,194,o),
(67,194,c),
(59,145,l)
);
}
);
width = 292;
},
{
layerId = m002;
shapes = (
{
closed = 1;
nodes = (
(172,136,o),
(262,180,o),
(291,251,cs),
(312,303,o),
(281,350,o),
(197,351,cs),
(67,352,o),
(18,247,o),
(16,117,cs),
(15,19,o),
(61,-4,o),
(104,-4,cs),
(193,-4,o),
(235,45,o),
(254,71,cs),
(277,102,o),
(263,130,o),
(248,141,cs),
(227,155,o),
(206,145,o),
(187,120,cs),
(176,106,o),
(153,81,o),
(115,81,cs),
(102,81,o),
(101,102,o),
(102,118,cs),
(105,177,o),
(129,281,o),
(184,281,cs),
(198,281,o),
(213,278,o),
(210,270,cs),
(200,235,o),
(109,210,o),
(74,210,c),
(66,136,l)
);
}
);
width = 307;
}
);
metricLeft = o;
metricRight = o;
unicode = 101;
},
{
glyphname = f;
kernRight = fvowels;
lastChange = "2022-03-08 02:45:58 +0000";
layers = (
{
layerId = m01;
shapes = (
{
closed = 1;
nodes = (
(301,594,o),
(319,592,o),
(326,611,cs),
(333,629,o),
(321,639,o),
(313,642,cs),
(296,647,o),
(277,650,o),
(258,650,cs),
(208,650,o),
(158,616,o),
(149,527,cs),
(96,28,ls),
(95,16,o),
(104,0,o),
(122,0,cs),
(139,0,o),
(145,15,o),
(146,27,cs),
(198,518,ls),
(204,578,o),
(228,600,o),
(261,600,cs),
(272,600,o),
(283,599,o),
(293,596,cs)
);
},
{
closed = 1;
nodes = (
(274,305,o),
(278,316,o),
(278,328,cs),
(278,340,o),
(271,350,o),
(251,350,cs),
(56,350,ls),
(36,350,o),
(31,340,o),
(31,328,cs),
(31,316,o),
(39,305,o),
(59,305,cs),
(254,305,ls)
);
}
);
width = 276;
},
{
layerId = m002;
shapes = (
{
closed = 1;
nodes = (
(353,548,o),
(373,550,o),
(387,578,cs),
(400,604,o),
(396,624,o),
(376,634,cs),
(349,648,o),
(327,650,o),
(286,650,cs),
(235,650,o),
(175,614,o),
(165,519,cs),
(115,49,ls),
(113,26,o),
(134,-2,o),
(168,-2,cs),
(195,-2,o),
(212,18,o),
(215,42,cs),
(264,502,ls),
(268,541,o),
(282,560,o),
(300,560,cs),
(320,560,o),
(331,556,o),
(339,553,cs)
);
},
{
closed = 1;
nodes = (
(319,265,o),
(337,281,o),
(336,307,cs),
(334,331,o),
(316,350,o),
(284,350,cs),
(101,350,ls),
(70,350,o),
(53,331,o),
(55,307,cs),
(56,283,o),
(75,265,o),
(106,265,cs),
(289,265,ls)
);
}
);
width = 320;
}
);
unicode = 102;
},
{
glyphname = g;
lastChange = "2022-03-08 02:47:47 +0000";
layers = (
{
layerId = m01;
shapes = (
{
closed = 1;
nodes = (
(239,241,l),
(186,110,o),
(129,46,o),
(100,46,cs),
(73,46,o),
(63,61,o),
(63,126,cs),
(63,184,o),
(96,300,o),
(167,300,cs),
(180,300,o),
(233,300,o),
(241,300,c),
(246,350,l),
(234,350,o),
(180,350,o),
(164,350,cs),
(61,350,o),
(13,211,o),
(13,121,cs),
(13,21,o),
(54,-4,o),
(92,-4,cs),
(146,-4,o),
(190,45,o),
(226,109,c)
);
},
{
closed = 1;
nodes = (
(3,-230,o),
(-11,-228,o),
(-21,-240,cs),
(-31,-252,o),
(-28,-266,o),
(-17,-274,cs),
(1,-287,o),
(35,-300,o),
(71,-300,cs),
(122,-300,o),
(158,-287,o),
(183,-263,cs),
(220,-228,o),
(234,-169,o),
(242,-95,cs),
(287,326,ls),
(289,343,o),
(278,350,o),
(261,350,c),
(239,350,l),
(222,198,l),
(192,-95,ls),
(187,-143,o),
(179,-195,o),
(149,-224,cs),
(131,-243,o),
(101,-250,o),
(67,-250,cs),
(48,-250,o),
(25,-240,o),
(10,-233,cs)
);
}
);
width = 303;
},
{
layerId = m002;
shapes = (
{
closed = 1;
nodes = (
(243,195,l),
(194,112,o),
(158,83,o),
(136,83,cs),
(118,83,o),
(107,101,o),
(110,130,cs),
(115,175,o),
(112,263,o),
(225,263,cs),
(231,263,o),
(245,263,o),
(252,263,c),
(261,350,l),
(253,350,o),
(228,350,o),
(221,350,cs),
(65,350,o),
(34,261,o),
(19,120,cs),
(8,21,o),
(73,-4,o),
(130,-4,cs),
(160,-4,o),
(198,17,o),
(229,47,c)
);
},
{
closed = 1;
nodes = (
(48,-189,o),
(10,-181,o),
(-8,-208,cs),
(-31,-243,o),
(-12,-268,o),
(4,-278,cs),
(18,-287,o),
(60,-300,o),
(108,-300,cs),
(163,-300,o),
(202,-276,o),
(239,-237,cs),
(283,-189,o),
(284,-112,o),
(293,-28,cs),
(330,305,l),
(332,335,o),
(304,350,o),
(277,350,cs),
(232,350,l),
(217,192,l),
(193,-20,ls),
(186,-83,o),
(188,-144,o),
(159,-174,cs),
(141,-193,o),
(120,-202,o),
(99,-202,cs),
(86,-202,o),
(68,-200,o),
(61,-196,cs)
);
}
);
width = 356;
}
);
metricLeft = a;
metricRight = n;
unicode = 103;
},
{
glyphname = h;
lastChange = "2022-03-08 02:43:44 +0000";
layers = (
{
layerId = m01;
shapes = (
{
closed = 1;
nodes = (
(66,114,l),
(128,251,o),
(167,305,o),
(209,305,cs),
(234,305,o),
(243,261,o),
(240,234,cs),
(217,23,ls),
(216,15,o),
(218,0,o),
(240,0,c),
(266,0,o),
(266,18,o),
(267,23,cs),
(290,234,ls),
(296,291,o),
(270,354,o),
(212,354,cs),
(157,354,o),
(120,313,o),
(76,246,c)
);
},
{
closed = 1;
nodes = (
(132,641,o),
(122,650,o),
(109,650,cs),
(96,650,o),
(82,641,o),
(80,623,cs),
(16,23,ls),
(14,8,o),
(26,0,o),
(39,0,cs),
(52,0,o),
(64,7,o),
(66,23,cs),
(130,623,ls)
);
}
);
width = 316;
},
{
layerId = m002;
shapes = (
{
closed = 1;
nodes = (
(123,173,l),
(163,236,o),
(198,266,o),
(221,266,cs),
(237,266,o),
(237,239,o),
(234,214,cs),
(216,46,ls),
(213,22,o),
(231,0,o),
(263,0,cs),
(299,0,o),
(314,23,o),
(316,38,cs),
(334,206,ls),
(344,301,o),
(311,354,o),
(233,354,cs),
(194,354,o),
(162,332,o),
(136,315,c)
);
},
{
closed = 1;
nodes = (
(189,633,o),
(164,653,o),
(137,653,cs),
(113,653,o),
(89,637,o),
(86,609,cs),
(27,45,ls),
(24,17,o),
(47,-2,o),
(74,-2,cs),
(98,-2,o),
(124,11,o),
(127,37,cs),
(186,601,ls)
);
}
);
width = 371;
}
);
metricLeft = n;
metricRight = n;
unicode = 104;
},
{
glyphname = i;
lastChange = "2022-03-06 03:46:17 +0000";
layers = (
{
layerId = m01;
shapes = (
{
closed = 1;
nodes = (
(102,340,o),
(90,350,o),
(78,350,cs),
(65,350,o),
(52,341,o),
(50,323,cs),
(19,28,ls),
(17,9,o),
(29,0,o),
(42,0,cs),
(54,0,o),
(67,10,o),
(69,28,cs),
(100,320,ls)
);
},
{
closed = 1;
nodes = (
(106,440,o),
(118,454,o),
(118,468,cs),
(118,483,o),
(106,495,o),
(91,495,cs),
(77,495,o),
(63,483,o),
(63,468,cs),
(63,454,o),
(77,440,o),
(91,440,cs)
);
}
);
width = 119;
},
{
layerId = m002;
shapes = (
{
closed = 1;
nodes = (
(156,327,o),
(130,350,o),
(105,350,cs),
(81,350,o),
(57,332,o),
(54,305,cs),
(27,49,ls),
(24,19,o),
(48,0,o),
(74,0,cs),
(96,0,o),
(123,10,o),
(126,37,cs),
(153,294,ls)
);
},
{
closed = 1;
nodes = (
(151,417,o),
(171,439,o),
(171,466,cs),
(171,493,o),
(151,515,o),
(124,515,cs),
(98,515,o),
(73,493,o),
(73,466,cs),
(73,439,o),
(98,417,o),
(124,417,cs)
);
}
);
width = 181;
}
);
metricLeft = n;
metricRight = n;
unicode = 105;
},
{
glyphname = j;
kernLeft = ij;
lastChange = "2022-03-07 22:11:27 +0000";
layers = (
{
layerId = m01;
shapes = (
{
closed = 1;
nodes = (
(35,-197,o),
(5,-226,cs),
(-13,-245,o),
(-44,-250,o),
(-78,-250,cs),
(-97,-250,o),
(-120,-240,o),
(-135,-233,cs),
(-142,-230,o),
(-156,-228,o),
(-166,-240,cs),
(-176,-252,o),
(-173,-266,o),
(-162,-274,cs),
(-144,-287,o),
(-110,-300,o),
(-74,-300,cs),
(-23,-300,o),
(13,-287,o),
(38,-263,cs),
(79,-224,o),
(91,-156,o),
(97,-94,cs),
(141,327,ls),
(143,344,o),
(131,351,o),
(114,351,cs),
(103,351,o),
(92,340,o),
(91,329,cs),
(47,-94,ls),
(43,-129,o)
);
},
{
closed = 1;
nodes = (
(147,440,o),
(158,453,o),
(158,469,cs),
(158,484,o),
(147,495,o),
(132,495,cs),
(117,495,o),
(103,484,o),
(103,469,cs),
(103,453,o),
(117,440,o),
(132,440,cs)
);
}
);
width = 159;
},
{
layerId = m002;
shapes = (
{
closed = 1;
nodes = (
(35,-149,o),
(11,-174,cs),
(-7,-193,o),
(-26,-202,o),
(-47,-202,cs),
(-60,-202,o),
(-78,-200,o),
(-85,-196,cs),
(-98,-189,o),
(-136,-181,o),
(-154,-208,cs),
(-177,-243,o),
(-158,-268,o),
(-142,-278,cs),
(-128,-287,o),
(-86,-300,o),
(-38,-300,cs),
(17,-300,o),
(53,-276,o),
(89,-236,cs),
(132,-189,o),
(142,-78,o),
(147,-28,cs),
(182,305,ls),
(185,335,o),
(161,350,o),
(131,350,cs),
(103,350,o),
(85,335,o),
(82,306,cs),
(47,-20,ls),
(44,-51,o)
);
},
{
closed = 1;
nodes = (
(174,417,o),
(194,442,o),
(194,470,cs),
(194,499,o),
(172,516,o),
(148,516,cs),
(120,516,o),
(94,494,o),
(94,466,cs),
(94,437,o),
(122,417,o),
(147,417,cs)
);
}
);
width = 208;
}
);
metricRight = n;
unicode = 106;
},
{
glyphname = k;
lastChange = "2022-03-08 02:44:08 +0000";
layers = (
{
layerId = m01;
shapes = (
{
closed = 1;
nodes = (
(132,642,o),
(121,650,o),
(105,650,cs),
(90,650,o),
(82,639,o),
(80,622,cs),
(16,26,ls),
(14,10,o),
(25,0,o),
(38,0,cs),
(54,0,o),
(64,7,o),
(66,26,cs),
(130,621,ls)
);
},
{
closed = 1;
nodes = (
(68,175,l),
(214,18,ls),
(223,8,o),
(232,-1,o),
(245,-1,cs),
(255,-1,o),
(265,5,o),
(267,16,cs),
(268,23,o),
(270,32,o),
(261,42,cs),
(136,175,l)
);
},
{
closed = 1;
nodes = (
(74,167,o),
(88,189,o),
(95,197,cs),
(110,215,o),
(136,259,o),
(153,274,cs),
(172,290,o),
(192,305,o),
(212,305,cs),
(226,305,o),
(236,287,o),
(235,274,cs),
(232,248,o),
(215,236,o),
(187,219,cs),
(167,207,o),
(96,185,o),
(68,175,c),
(130,144,l),
(143,148,o),
(192,164,o),
(210,175,cs),
(245,196,o),
(281,225,o),
(284,254,cs),
(288,288,o),
(273,354,o),
(214,354,cs),
(181,354,o),
(149,336,o),
(120,311,cs),
(104,297,o),
(88,271,o),
(72,254,c),
(68,158,l)
);
}
);
width = 316;
},
{
layerId = m002;
shapes = (
{
closed = 1;
nodes = (
(190,633,o),
(164,653,o),
(136,653,cs),
(111,653,o),
(89,638,o),
(86,608,cs),
(28,48,ls),
(25,19,o),
(47,-2,o),
(74,-2,cs),
(101,-2,o),
(125,11,o),
(128,40,cs),
(186,599,ls)
);
},
{
closed = 1;
nodes = (
(89,153,l),
(210,27,ls),
(225,11,o),
(241,0,o),
(259,0,cs),
(279,0,o),
(300,13,o),
(304,33,cs),
(306,45,o),
(306,57,o),
(293,71,cs),
(203,164,l)
);
},
{
closed = 1;
nodes = (
(132,176,o),
(136,183,o),
(141,189,cs),
(147,196,o),
(188,246,o),
(200,256,cs),
(217,271,o),
(233,275,o),
(241,275,cs),
(248,275,o),
(256,268,o),
(256,261,cs),
(256,251,o),
(241,240,o),
(218,228,cs),
(187,212,o),
(145,199,o),
(115,190,c),
(183,128,l),
(195,131,o),
(241,146,o),
(258,157,cs),
(291,177,o),
(330,207,o),
(334,242,cs),
(338,279,o),
(320,353,o),
(250,353,cs),
(214,353,o),
(180,346,o),
(154,323,cs),
(135,308,o),
(120,279,o),
(104,266,c),
(127,168,l)
);
}
);
width = 367;
}
);
metricLeft = n;
metricRight = n;
unicode = 107;
},
{
glyphname = l;
lastChange = "2022-03-08 00:53:17 +0000";
layers = (
{
layerId = m01;
shapes = (
{
closed = 1;
nodes = (
(132,640,o),
(118,650,o),
(104,650,cs),
(93,650,o),
(82,644,o),
(80,629,cs),
(16,27,ls),
(14,9,o),
(28,0,o),
(42,0,cs),
(53,0,o),
(65,7,o),
(66,22,cs),
(130,624,ls)
);
}
);
width = 115;
},
{
layerId = m002;
shapes = (
{
closed = 1;
nodes = (
(188,631,o),
(161,650,o),
(133,650,cs),
(111,650,o),
(89,640,o),
(86,612,cs),
(27,50,ls),
(23,15,o),
(53,0,o),
(76,0,cs),
(98,0,o),
(124,15,o),
(127,44,cs),
(185,599,ls)
);
}
);
width = 181;
}
);
metricLeft = n;
metricRight = n;
unicode = 108;
},
{
glyphname = m;
lastChange = "2022-03-08 00:54:49 +0000";
layers = (
{
layerId = m01;
shapes = (
{
closed = 1;
nodes = (
(100,340,o),
(97,350,o),
(80,350,c),
(61,350,o),
(50,342,o),
(48,323,cs),
(16,23,ls),
(15,15,o),
(18,0,o),
(40,0,cs),
(66,0,o),
(65,18,o),
(66,23,cs),
(98,323,ls)
);
},
{
closed = 1;
nodes = (
(60,114,l),
(122,251,o),
(161,305,o),
(203,305,cs),
(228,305,o),
(237,261,o),
(234,234,cs),
(211,23,ls),
(210,15,o),
(212,0,o),
(234,0,c),
(260,0,o),
(260,18,o),
(261,23,cs),
(284,234,ls),
(290,291,o),
(264,354,o),
(206,354,cs),
(151,354,o),
(114,313,o),
(70,246,c)
);
},
{
closed = 1;
nodes = (
(255,114,l),
(317,251,o),
(356,305,o),
(398,305,cs),
(423,305,o),
(432,261,o),
(429,234,cs),
(406,23,ls),
(405,15,o),
(407,0,o),
(429,0,c),
(455,0,o),
(455,18,o),
(456,23,cs),
(479,234,ls),
(485,291,o),
(459,354,o),
(401,354,cs),
(346,354,o),
(309,313,o),
(265,246,c)
);
}
);
width = 505;
},
{
layerId = m002;
shapes = (
{
closed = 1;
nodes = (
(158,331,o),
(140,350,o),
(111,350,cs),
(82,350,o),
(60,337,o),
(54,309,c),
(26,43,ls),
(23,15,o),
(42,0,o),
(71,0,cs),
(108,0,o),
(124,23,o),
(126,37,cs),
(155,302,ls)
);
},
{
closed = 1;
nodes = (
(123,173,l),
(163,236,o),
(198,266,o),
(221,266,cs),
(237,266,o),
(237,239,o),
(234,214,cs),
(216,46,ls),
(213,22,o),
(231,0,o),
(263,0,cs),
(299,0,o),
(314,23,o),
(316,38,cs),
(334,206,ls),
(344,301,o),
(311,354,o),
(233,354,cs),
(194,354,o),
(162,332,o),
(136,315,c)
);
},
{
closed = 1;
nodes = (
(304,173,l),
(344,236,o),
(379,266,o),
(402,266,cs),
(418,266,o),
(418,239,o),
(415,214,cs),
(397,46,ls),
(394,22,o),
(412,0,o),
(444,0,cs),
(480,0,o),
(495,23,o),
(497,38,cs),
(515,206,ls),
(525,301,o),
(492,354,o),
(414,354,cs),
(375,354,o),
(343,332,o),
(317,315,c)
);
}
);
width = 552;
}
);
metricLeft = n;
metricRight = n;
unicode = 109;
},
{
glyphname = n;
lastChange = "2022-03-08 00:56:40 +0000";
layers = (
{
layerId = m01;
shapes = (
{
closed = 1;
nodes = (
(100,340,o),
(97,350,o),
(80,350,cs),
(60,350,o),
(50,341,o),
(48,323,cs),
(16,23,ls),
(15,15,o),
(18,0,o),
(40,0,cs),
(66,0,o),
(65,18,o),
(66,23,cs),
(98,323,ls)
);
},
{
closed = 1;
nodes = (
(60,114,l),
(122,251,o),
(161,305,o),
(203,305,cs),
(228,305,o),
(237,261,o),
(234,234,cs),
(211,23,ls),
(210,15,o),
(212,0,o),
(234,0,c),
(260,0,o),
(260,18,o),
(261,23,cs),
(284,234,ls),
(290,291,o),
(264,354,o),
(206,354,cs),
(151,354,o),
(114,313,o),
(70,246,c)
);
}
);
width = 310;
},
{
layerId = m002;
shapes = (
{
closed = 1;
nodes = (
(158,332,o),
(141,350,o),
(109,350,cs),
(67,350,o),
(56,320,o),
(54,308,cs),
(26,44,ls),
(24,20,o),
(36,0,o),
(70,0,cs),
(107,0,o),
(124,22,o),
(126,37,cs),
(155,302,ls)
);
},
{
closed = 1;
nodes = (
(123,173,l),
(163,236,o),
(198,266,o),
(221,266,cs),
(237,266,o),
(237,239,o),
(234,214,cs),
(216,46,ls),
(213,22,o),
(231,0,o),
(263,0,cs),
(299,0,o),
(314,23,o),
(316,38,cs),
(334,206,ls),
(344,301,o),
(311,354,o),
(233,354,cs),
(194,354,o),
(162,332,o),
(136,315,c)
);
}
);
width = 371;
}
);
unicode = 110;
},
{
glyphname = o;
lastChange = "2022-03-08 00:59:09 +0000";
layers = (
{
layerId = m01;
shapes = (
{
closed = 1;
nodes = (
(193,-4,o),
(280,157,o),
(290,248,cs),
(296,308,o),
(247,350,o),
(177,350,cs),
(64,350,o),
(24,207,o),
(23,95,cs),
(23,20,o),
(68,-4,o),
(109,-4,cs)
);
},
{
closed = 1;
nodes = (
(81,46,o),
(73,77,o),
(74,105,cs),
(76,181,o),
(103,300,o),
(177,300,cs),
(217,300,o),
(243,287,o),
(239,247,cs),
(230,163,o),
(146,46,o),
(109,46,cs)
);
}
);
width = 309;
},
{
layerId = m002;
shapes = (
{
closed = 1;
nodes = (
(223,-4,o),
(304,151,o),
(313,236,cs),
(322,313,o),
(260,350,o),
(184,350,cs),
(54,350,o),
(26,233,o),
(14,120,cs),
(3,24,o),
(65,-4,o),
(114,-4,cs)
);
},
{
closed = 1;
nodes = (
(110,83,o),
(101,99,o),
(103,118,cs),
(108,164,o),
(118,264,o),
(177,264,cs),
(197,264,o),
(220,254,o),
(218,235,cs),
(213,184,o),
(152,83,o),
(124,83,cs)
);
}
);
width = 327;
}
);
unicode = 111;
},
{
glyphname = p;
kernLeft = qp;
lastChange = "2022-03-08 02:47:07 +0000";
layers = (
{
layerId = m01;
shapes = (
{
closed = 1;
nodes = (
(102,342,o),
(91,350,o),
(78,350,cs),
(66,350,o),
(52,342,o),
(50,327,cs),
(-15,-276,ls),
(-17,-292,o),
(-4,-300,o),
(9,-300,cs),
(21,-300,o),
(33,-292,o),
(35,-277,cs),
(100,327,ls)
);
},
{
closed = 1;
nodes = (
(64,108,l),
(117,239,o),
(174,303,o),
(203,303,cs),
(230,303,o),
(240,288,o),
(240,223,cs),
(240,165,o),
(207,50,o),
(136,50,cs),
(123,50,o),
(70,50,o),
(62,50,c),
(57,0,l),
(69,0,o),
(123,0,o),
(139,0,cs),
(242,0,o),
(290,138,o),
(290,228,cs),
(290,328,o),
(249,353,o),
(211,353,cs),
(157,353,o),
(113,304,o),
(77,240,c)
);
}
);
width = 313;
},
{
layerId = m002;
shapes = (
{
closed = 1;
nodes = (
(157,327,o),
(134,350,o),
(107,350,cs),
(84,350,o),
(57,335,o),
(54,310,cs),
(-5,-254,ls),
(-8,-283,o),
(18,-303,o),
(45,-303,cs),
(68,-303,o),
(92,-288,o),
(95,-263,cs),
(154,299,ls)
);
},
{
closed = 1;
nodes = (
(112,155,l),
(161,238,o),
(200,267,o),
(219,267,cs),
(237,267,o),
(245,249,o),
(242,220,cs),
(237,175,o),
(243,87,o),
(130,87,cs),
(124,87,o),
(110,87,o),
(103,87,c),
(94,0,l),
(102,0,o),
(127,0,o),
(134,0,cs),
(290,0,o),
(318,89,o),
(333,230,cs),
(344,329,o),
(282,354,o),
(225,354,cs),
(195,354,o),
(157,333,o),
(126,303,c)
);
}
);
width = 347;
}
);
metricLeft = n;
metricRight = o;
unicode = 112;
},
{
glyphname = q;
lastChange = "2022-03-08 01:02:27 +0000";
layers = (
{
layerId = m01;
shapes = (
{
closed = 1;
nodes = (
(186,-154,ls),
(179,-223,o),
(184,-300,o),
(254,-300,cs),
(305,-300,o),
(337,-218,o),
(336,-206,cs),
(335,-191,o),
(323,-184,o),
(312,-184,cs),
(300,-184,o),
(292,-192,o),
(290,-196,cs),
(264,-241,o),
(257,-252,o),
(250,-252,cs),
(230,-252,o),
(231,-203,o),
(235,-168,cs),
(287,327,ls),
(288,335,o),
(286,350,o),
(264,350,cs),
(239,350,l)
);
},
{
closed = 1;
nodes = (
(239,241,l),
(186,110,o),
(129,46,o),
(100,46,cs),
(73,46,o),
(63,61,o),
(63,126,cs),
(63,184,o),
(96,300,o),
(167,300,cs),
(180,300,o),
(233,300,o),
(241,300,c),
(246,350,l),
(234,350,o),
(180,350,o),
(164,350,cs),
(61,350,o),
(13,211,o),
(13,121,cs),
(13,21,o),
(54,-4,o),
(92,-4,cs),
(146,-4,o),
(190,45,o),
(226,109,c)
);
}
);
width = 306;
},
{
layerId = m002;
shapes = (
{
closed = 1;
nodes = (
(187,-62,ls),
(174,-188,o),
(167,-300,o),
(276,-300,cs),
(340,-300,o),
(399,-242,o),
(395,-187,cs),
(393,-160,o),
(372,-147,o),
(350,-147,cs),
(338,-147,o),
(327,-158,o),
(319,-171,cs),
(303,-196,o),
(296,-201,o),
(288,-201,cs),
(280,-201,o),
(274,-187,o),
(278,-154,cs),
(327,306,ls),
(329,328,o),
(312,350,o),
(279,350,cs),
(232,350,l)
);
},
{
closed = 1;
nodes = (
(240,195,l),
(191,112,o),
(155,83,o),
(133,83,cs),
(115,83,o),
(105,101,o),
(108,130,cs),
(113,175,o),
(109,263,o),
(222,263,cs),
(228,263,o),
(242,263,o),
(249,263,c),
(258,350,l),
(250,350,o),
(225,350,o),
(218,350,cs),
(62,350,o),
(34,261,o),
(19,120,cs),
(8,21,o),
(70,-4,o),
(127,-4,cs),
(157,-4,o),
(195,17,o),
(226,47,c)
);
}
);
width = 354;
}
);
metricLeft = a;
unicode = 113;
},
{
glyphname = r;
lastChange = "2022-03-08 02:44:23 +0000";
layers = (
{
layerId = m01;
shapes = (
{
closed = 1;
nodes = (
(100,340,o),
(89,350,o),
(76,350,cs),
(64,350,o),
(50,341,o),
(48,323,cs),
(17,27,ls),
(15,9,o),
(27,0,o),
(40,0,cs),
(53,0,o),
(65,9,o),
(67,27,cs),
(98,320,ls)
);
},
{
closed = 1;
nodes = (
(235,251,o),
(253,247,o),
(265,253,cs),
(276,258,o),
(284,268,o),
(280,287,cs),
(271,324,o),
(246,354,o),
(206,354,cs),
(151,354,o),
(114,313,o),
(70,246,c),
(60,114,l),
(122,251,o),
(161,305,o),
(203,305,cs),
(220,305,o),
(228,284,o),
(233,262,cs)
);
}
);
width = 285;
},
{
layerId = m002;
shapes = (
{
closed = 1;
nodes = (
(156,329,o),
(130,351,o),
(104,351,cs),
(82,351,o),
(57,336,o),
(54,309,cs),
(27,48,ls),
(24,18,o),
(50,-1,o),
(76,-1,cs),
(99,-1,o),
(124,14,o),
(127,41,cs),
(153,297,ls)
);
},
{
closed = 1;
nodes = (
(239,229,o),
(283,223,o),
(299,230,cs),
(329,243,o),
(334,271,o),
(329,290,cs),
(316,332,o),
(284,354,o),
(233,354,cs),
(194,354,o),
(162,332,o),
(136,315,c),
(123,173,l),
(163,236,o),
(198,266,o),
(221,266,cs),
(229,266,o),
(232,260,o),
(234,251,cs)
);
}
);
width = 340;
}
);
metricLeft = n;
unicode = 114;
},
{
glyphname = s;
lastChange = "2022-03-08 02:46:42 +0000";
layers = (
{
layerId = m01;
shapes = (
{
closed = 1;
nodes = (
(111,46,o),
(79,68,o),
(63,80,cs),
(48,90,o),
(26,85,o),
(20,73,cs),
(11,56,o),
(26,45,o),
(44,32,cs),
(80,7,o),
(119,-4,o),
(146,-4,cs),
(194,-4,o),
(242,22,o),
(248,80,cs),
(252,117,o),
(235,145,o),
(216,162,cs),
(192,184,o),
(165,197,o),
(137,216,cs),
(114,231,o),
(86,246,o),
(88,265,cs),
(90,287,o),
(121,300,o),
(153,300,cs),
(185,300,o),
(213,289,o),
(225,279,cs),
(238,269,o),
(262,272,o),
(268,284,cs),
(277,301,o),
(264,315,o),
(245,325,cs),
(208,346,o),
(177,350,o),
(150,350,cs),
(90,350,o),
(45,319,o),
(38,265,cs),
(34,226,o),
(75,194,o),
(106,176,cs),
(134,159,o),
(159,144,o),
(174,133,cs),
(187,122,o),
(200,102,o),
(198,83,cs),
(195,55,o),
(170,48,o),
(143,46,cs)
);
}
);
width = 285;
},
{
layerId = m002;
shapes = (
{
closed = 1;
nodes = (
(119,82,o),
(95,103,o),
(85,108,cs),
(61,120,o),
(26,117,o),
(14,94,cs),
(2,68,o),
(17,42,o),
(60,20,cs),
(87,6,o),
(120,-4,o),
(147,-4,cs),
(197,-4,o),
(257,21,o),
(263,87,cs),
(267,128,o),
(245,159,o),
(225,177,cs),
(213,188,o),
(187,203,o),
(166,216,cs),
(145,229,o),
(122,239,o),
(121,252,cs),
(121,262,o),
(138,264,o),
(156,264,cs),
(175,264,o),
(199,255,o),
(210,249,cs),
(235,237,o),
(268,236,o),
(279,258,cs),
(293,288,o),
(274,314,o),
(236,333,cs),
(209,344,o),
(177,350,o),
(150,350,cs),
(86,350,o),
(35,319,o),
(29,259,cs),
(24,213,o),
(71,173,o),
(101,156,cs),
(124,142,o),
(145,129,o),
(159,120,cs),
(167,113,o),
(168,110,o),
(168,102,cs),
(167,92,o),
(162,84,o),
(142,82,cs)
);
}
);
width = 293;
}
);
metricLeft = o;
metricRight = o;
unicode = 115;
},
{
glyphname = t;
kernRight = tvowel;
lastChange = "2022-03-08 00:55:57 +0000";
layers = (
{
layerId = m01;
shapes = (
{
closed = 1;
nodes = (
(228,640,o),
(214,650,o),
(200,650,cs),
(189,650,o),
(177,643,o),
(176,629,cs),
(111,24,ls),
(109,8,o),
(123,0,o),
(136,0,cs),
(149,0,o),
(159,7,o),
(161,23,cs),
(226,622,ls)
);
},
{
closed = 1;
nodes = (
(303,305,o),
(307,316,o),
(307,328,cs),
(307,340,o),
(300,350,o),
(280,350,cs),
(56,350,ls),
(36,350,o),
(31,340,o),
(31,328,cs),
(31,316,o),
(39,305,o),
(59,305,cs),
(283,305,ls)
);
}
);
width = 305;
},
{
layerId = m002;
shapes = (
{
closed = 1;
nodes = (
(271,631,o),
(248,650,o),
(220,650,cs),
(192,650,o),
(170,631,o),
(168,611,cs),
(110,44,ls),
(107,12,o),
(134,0,o),
(160,0,cs),
(185,0,o),
(207,9,o),
(210,35,cs),
(268,602,ls)
);
},
{
closed = 1;
nodes = (
(326,265,o),
(342,283,o),
(342,307,cs),
(342,332,o),
(321,350,o),
(289,350,cs),
(79,350,ls),
(47,350,o),
(32,332,o),
(32,307,cs),
(32,283,o),
(52,265,o),
(84,265,cs),
(294,265,ls)
);
}
);
width = 347;
}
);
metricRight = A;
unicode = 116;
},
{
glyphname = u;
lastChange = "2022-03-08 00:47:45 +0000";
layers = (
{
layerId = m01;
shapes = (
{
closed = 1;
nodes = (
(211,10,o),
(215,0,o),
(232,0,c),
(252,0,o),
(261,9,o),
(263,27,cs),
(295,327,ls),
(296,335,o),
(294,350,o),
(272,350,cs),
(246,350,o),
(246,332,o),
(245,327,cs),
(213,27,ls)
);
},
{
closed = 1;
nodes = (
(250,236,l),
(188,99,o),
(149,45,o),
(107,45,cs),
(82,45,o),
(73,89,o),
(76,116,cs),
(99,327,ls),
(100,335,o),
(98,350,o),
(76,350,c),
(50,350,o),
(50,332,o),
(49,327,cs),
(26,116,ls),
(20,59,o),
(46,-4,o),
(104,-4,cs),
(159,-4,o),
(196,37,o),
(240,104,c)
);
}
);
width = 311;
},
{
layerId = m002;
shapes = (
{
closed = 1;
nodes = (
(213,18,o),
(230,0,o),
(262,0,cs),
(304,0,o),
(315,30,o),
(317,42,cs),
(345,306,ls),
(347,330,o),
(335,350,o),
(301,350,cs),
(264,350,o),
(247,328,o),
(245,313,cs),
(216,48,ls)
);
},
{
closed = 1;
nodes = (
(248,177,l),
(208,114,o),
(173,84,o),
(150,84,cs),
(134,84,o),
(134,111,o),
(137,136,cs),
(155,304,ls),
(158,328,o),
(140,350,o),
(108,350,cs),
(72,350,o),
(57,327,o),
(55,312,cs),
(37,144,ls),
(27,49,o),
(60,-4,o),
(138,-4,cs),
(177,-4,o),
(209,18,o),
(235,35,c)
);
}
);
width = 371;
}
);
metricLeft = n;
metricRight = n;
unicode = 117;
},
{
glyphname = v;
lastChange = "2022-03-05 17:49:05 +0000";
layers = (
{
layerId = m01;
shapes = (
{
closed = 1;
nodes = (
(100,340,o),
(90,350,o),
(77,350,cs),
(65,350,o),
(50,341,o),
(48,323,cs),
(25,102,ls),
(19,49,o),
(38,-4,o),
(80,-4,cs),
(140,-4,o),
(199,69,o),
(229,138,cs),
(251,189,o),
(280,269,o),
(294,314,cs),
(301,336,o),
(296,350,o),
(276,350,cs),
(258,350,o),
(249,336,o),
(244,322,cs),
(229,279,o),
(213,229,o),
(194,183,cs),
(177,142,o),
(123,47,o),
(89,47,cs),
(68,47,o),
(73,79,o),
(75,102,cs),
(98,320,ls)
);
}
);
width = 313;
},
{
layerId = m002;
shapes = (
{
closed = 1;
nodes = (
(158,331,o),
(134,350,o),
(107,350,cs),
(85,350,o),
(57,335,o),
(54,308,cs),
(34,115,ls),
(28,56,o),
(49,-4,o),
(112,-4,cs),
(198,-4,o),
(249,55,o),
(288,129,cs),
(311,173,o),
(340,248,o),
(353,289,cs),
(369,340,o),
(332,350,o),
(310,350,cs),
(283,350,o),
(271,337,o),
(259,308,cs),
(253,293,o),
(243,262,o),
(227,223,cs),
(213,188,o),
(189,125,o),
(161,96,cs),
(121,53,o),
(133,99,o),
(139,157,cs),
(154,298,ls)
);
}
);
width = 383;
}
);
metricLeft = n;
metricRight = n;
unicode = 118;
},
{
glyphname = w;
lastChange = "2022-03-05 17:49:05 +0000";
layers = (
{
layerId = m01;
shapes = (
{
closed = 1;
nodes = (
(100,340,o),
(90,350,o),
(77,350,cs),
(65,350,o),
(50,341,o),
(48,323,cs),
(25,102,ls),
(19,49,o),
(38,-4,o),
(80,-4,cs),
(140,-4,o),
(201,68,o),
(229,138,cs),
(252,195,l),
(276,350,l),
(258,350,o),
(249,336,o),
(244,322,cs),
(229,279,o),
(213,229,o),
(194,183,cs),
(177,142,o),
(123,47,o),
(89,47,cs),
(68,47,o),
(73,79,o),
(75,102,cs),
(98,320,ls)
);
},
{
closed = 1;
nodes = (
(298,340,o),
(288,350,o),
(275,350,c),
(233,196,l),
(223,102,ls),
(217,49,o),
(236,-4,o),
(278,-4,cs),
(338,-4,o),
(397,69,o),
(427,138,cs),
(449,189,o),
(478,269,o),
(492,314,cs),
(499,336,o),
(494,350,o),
(474,350,cs),
(456,350,o),
(447,336,o),
(442,322,cs),
(427,279,o),
(411,229,o),
(392,183,cs),
(375,142,o),
(321,47,o),
(287,47,cs),
(266,47,o),
(271,79,o),
(273,102,cs),
(296,320,ls)
);
}
);
width = 511;
},
{
layerId = m002;
shapes = (
{
closed = 1;
nodes = (
(158,331,o),
(134,350,o),
(107,350,cs),
(85,350,o),
(57,335,o),
(54,308,cs),
(34,115,ls),
(28,56,o),
(49,-4,o),
(112,-4,cs),
(198,-4,o),
(251,54,o),
(288,129,cs),
(300,153,l),
(313,350,l),
(286,350,o),
(271,337,o),
(259,308,cs),
(253,293,o),
(243,262,o),
(227,223,cs),
(213,188,o),
(189,125,o),
(161,96,cs),
(121,53,o),
(133,99,o),
(139,157,cs),
(154,298,ls)
);
},
{
closed = 1;
nodes = (
(365,331,o),
(339,350,o),
(312,350,c),
(244,148,l),
(241,115,ls),
(236,56,o),
(256,-4,o),
(319,-4,cs),
(405,-4,o),
(456,55,o),
(495,129,cs),
(518,173,o),
(547,248,o),
(560,289,cs),
(576,340,o),
(539,350,o),
(517,350,cs),
(490,350,o),
(478,337,o),
(466,308,cs),
(460,293,o),
(450,262,o),
(434,223,cs),
(420,188,o),
(396,125,o),
(368,96,cs),
(328,53,o),
(340,99,o),
(346,157,cs),
(361,298,ls)
);
}
);
width = 590;
}
);
metricLeft = n;
metricRight = v;
unicode = 119;
},
{
glyphname = x;
lastChange = "2022-03-08 01:00:49 +0000";
layers = (
{
layerId = m01;
shapes = (
{
closed = 1;
nodes = (
(279,314,o),
(284,317,o),
(283,327,cs),
(283,333,o),
(280,339,o),
(275,344,cs),
(270,349,o),
(263,350,o),
(256,350,cs),
(249,349,o),
(241,347,o),
(237,341,cs),
(14,43,ls),
(8,34,o),
(5,28,o),
(7,21,cs),
(8,16,o),
(11,11,o),
(16,6,cs),
(20,2,o),
(25,0,o),
(32,0,cs),
(40,0,o),
(48,5,o),
(52,10,cs),
(275,308,ls)
);
},
{
closed = 1;
nodes = (
(83,344,o),
(72,350,o),
(64,350,cs),
(57,350,o),
(51,347,o),
(46,343,cs),
(41,339,o),
(39,333,o),
(38,327,cs),
(39,321,o),
(42,314,o),
(45,309,cs),
(206,12,ls),
(210,5,o),
(220,1,o),
(225,0,cs),
(232,-1,o),
(240,3,o),
(244,8,cs),
(249,13,o),
(253,20,o),
(252,27,cs),
(252,33,o),
(248,38,o),
(245,44,cs),
(87,336,ls)
);
}
);
width = 300;
},
{
layerId = m002;
shapes = (
{
closed = 1;
nodes = (
(313,285,o),
(319,294,o),
(318,309,cs),
(318,321,o),
(313,331,o),
(303,340,cs),
(295,348,o),
(280,350,o),
(267,350,cs),
(256,350,o),
(239,345,o),
(232,337,cs),
(29,76,ls),
(19,64,o),
(14,52,o),
(17,38,cs),
(19,29,o),
(24,21,o),
(31,12,cs),
(39,4,o),
(53,0,o),
(66,0,cs),
(80,0,o),
(96,7,o),
(103,16,cs),
(306,277,ls)
);
},
{
closed = 1;
nodes = (
(123,345,o),
(108,350,o),
(94,350,cs),
(82,350,o),
(71,347,o),
(61,339,cs),
(53,332,o),
(48,321,o),
(47,310,cs),
(48,299,o),
(55,288,o),
(59,281,cs),
(207,18,ls),
(216,2,o),
(239,0,o),
(249,0,cs),
(261,0,o),
(272,7,o),
(278,14,cs),
(284,22,o),
(291,33,o),
(290,45,cs),
(289,54,o),
(284,62,o),
(279,71,cs),
(134,331,l)
);
}
);
width = 345;
}
);
metricLeft = "=n-10";
metricRight = n;
unicode = 120;
},
{
glyphname = y;
lastChange = "2022-03-08 01:02:19 +0000";
layers = (
{
layerId = m01;
shapes = (
{
closed = 1;
nodes = (
(193,99,o),
(154,45,o),
(112,45,cs),
(87,45,o),
(78,89,o),
(81,116,cs),
(104,327,ls),
(105,335,o),
(103,350,o),
(81,350,c),
(55,350,o),
(55,332,o),
(54,327,cs),
(31,116,ls),
(25,59,o),
(51,-4,o),
(109,-4,cs),
(164,-4,o),
(201,37,o),
(245,104,c),
(255,236,l)
);
},
{
closed = 1;
nodes = (
(302,344,o),
(290,351,o),
(273,351,cs),
(262,351,o),
(251,340,o),
(250,329,cs),
(206,-94,ls),
(202,-129,o),
(194,-197,o),
(164,-226,cs),
(146,-245,o),
(115,-250,o),
(81,-250,cs),
(62,-250,o),
(39,-240,o),
(24,-233,cs),
(17,-230,o),
(3,-228,o),
(-7,-240,cs),
(-17,-252,o),
(-14,-266,o),
(-3,-274,cs),
(15,-287,o),
(49,-300,o),
(85,-300,cs),
(136,-300,o),
(172,-287,o),
(197,-263,cs),
(238,-224,o),
(250,-156,o),
(256,-94,cs),
(300,327,ls)
);
}
);
width = 316;
},
{
layerId = m002;
shapes = (
{
closed = 1;
nodes = (
(208,114,o),
(173,84,o),
(150,84,cs),
(134,84,o),
(134,111,o),
(137,136,cs),
(155,304,ls),
(158,328,o),
(140,350,o),
(108,350,cs),
(72,350,o),
(57,327,o),
(55,312,cs),
(37,144,ls),
(27,49,o),
(60,-4,o),
(138,-4,cs),
(177,-4,o),
(209,18,o),
(235,35,c),
(248,177,l)
);
},
{
closed = 1;
nodes = (
(347,335,o),
(323,350,o),
(293,350,cs),
(265,350,o),
(247,335,o),
(244,306,cs),
(209,-20,ls),
(206,-51,o),
(197,-149,o),
(173,-174,cs),
(155,-193,o),
(136,-202,o),
(115,-202,cs),
(102,-202,o),
(84,-200,o),
(77,-196,cs),
(64,-189,o),
(26,-181,o),
(8,-208,cs),
(-15,-243,o),
(4,-268,o),
(20,-278,cs),
(34,-287,o),
(76,-300,o),
(124,-300,cs),
(179,-300,o),
(215,-276,o),
(251,-236,cs),
(294,-189,o),
(304,-78,o),
(309,-28,cs),
(344,305,ls)
);
}
);
width = 370;
}
);
metricLeft = n;
metricRight = n;
unicode = 121;
},
{
glyphname = z;
lastChange = "2022-03-08 01:01:06 +0000";
layers = (
{
layerId = m01;
shapes = (
{
closed = 1;
nodes = (
(300,326,o),
(294,337,o),
(287,344,cs),
(282,349,o),
(275,350,o),
(268,350,cs),
(261,349,o),
(253,347,o),
(249,341,cs),
(23,44,ls),
(13,31,o),
(15,19,o),
(26,6,cs),
(30,2,o),
(35,0,o),
(42,0,cs),
(50,0,o),
(57,6,o),
(61,11,cs),
(287,309,ls)
);
},
{
closed = 1;
nodes = (
(239,0,ls),
(259,0,o),
(263,13,o),
(263,25,cs),
(263,37,o),
(256,50,o),
(236,50,cs),
(77,50,l),
(40,0,l)
);
},
{
closed = 1;
nodes = (
(270,350,l),
(73,350,ls),
(53,350,o),
(48,337,o),
(48,325,cs),
(48,313,o),
(56,300,o),
(76,300,cs),
(233,300,l)
);
}
);
width = 311;
},
{
background = {
shapes = (
{
closed = 1;
nodes = (
(184,599,ls),
(187,632,o),
(162,650,o),
(135,650,cs),
(115,650,o),
(88,640,o),
(84,607,cs),
(24,44,ls),
(21,18,o),
(40,0,o),
(67,0,cs),
(121,0,l)
);
},
{
closed = 1;
nodes = (
(365,631,o),
(343,650,o),
(315,650,cs),
(293,650,o),
(271,640,o),
(268,612,cs),
(208,50,ls),
(204,15,o),
(230,0,o),
(253,0,cs),
(275,0,o),
(300,15,o),
(303,44,cs),
(362,599,ls)
);
}
);
};
layerId = m002;
shapes = (
{
closed = 1;
nodes = (
(335,296,o),
(335,321,o),
(317,340,cs),
(308,348,o),
(294,350,o),
(281,350,cs),
(269,350,o),
(255,345,o),
(248,337,cs),
(38,75,ls),
(23,57,o),
(22,34,o),
(40,12,cs),
(48,4,o),
(62,0,o),
(75,0,cs),
(89,0,o),
(104,7,o),
(112,16,cs),
(320,277,ls)
);
},
{
closed = 1;
nodes = (
(260,0,ls),
(290,0,o),
(307,19,o),
(305,43,cs),
(303,67,o),
(284,85,o),
(254,85,cs),
(144,85,l),
(74,0,l)
);
},
{
closed = 1;
nodes = (
(282,350,l),
(99,350,ls),
(69,350,o),
(52,329,o),
(54,305,cs),
(55,281,o),
(75,260,o),
(105,260,cs),
(216,260,l)
);
}
);
width = 360;
}
);
metricLeft = n;
metricRight = n;
unicode = 122;
},
{
glyphname = a.sc;
lastChange = "2022-03-05 18:33:28 +0000";
layers = (
{
layerId = m01;
name = "QBeginners Light";
shapes = (
{
closed = 1;
nodes = (
(190,365,l),
(193,381,o),
(182,396,o),
(164,396,cs),
(149,396,o),
(145,387,o),
(141,377,cs),
(-13,35,ls),
(-21,18,o),
(-8,0,o),
(9,0,cs),
(24,0,o),
(30,6,o),
(37,21,cs),
(189,359,l)
);
},
{
closed = 1;
nodes = (
(202,175,l),
(195,216,l),
(81,216,l),
(61,175,l)
);
},
{
closed = 1;
nodes = (
(143,358,l),
(195,25,ls),
(197,13,o),
(204,0,o),
(223,0,cs),
(238,0,o),
(248,10,o),
(245,28,cs),
(191,378,l)
);
}
);
width = 276;
},
{
layerId = m002;
name = "QBeginners Light";
shapes = (
{
closed = 1;
nodes = (
(232,348,l),
(238,380,o),
(219,396,o),
(188,396,cs),
(164,396,o),
(153,383,o),
(146,367,cs),
(10,65,ls),
(-3,34,o),
(9,0,o),
(42,0,cs),
(64,0,o),
(78,9,o),
(88,31,cs),
(217,317,l)
);
},
{
closed = 1;
nodes = (
(253,151,l),
(242,221,l),
(102,221,l),
(63,151,l)
);
},
{
closed = 1;
nodes = (
(168,326,l),
(205,45,ls),
(209,18,o),
(222,0,o),
(250,0,cs),
(277,0,o),
(292,21,o),
(287,50,cs),
(232,371,l)
);
}
);
width = 322;
},
{
associatedMasterId = m01;
attr = {
axisRules = (
{
max = 800;
min = 600;
}
);
};
layerId = "4A5161CB-C52A-439D-9936-046CF82AA347";
name = "5 Mar 22, 05:23";
shapes = (
{
closed = 1;
nodes = (
(224,365,l),
(227,381,o),
(216,396,o),
(198,396,cs),
(183,396,o),
(179,387,o),
(175,377,cs),
(21,35,ls),
(13,18,o),
(26,0,o),
(43,0,cs),
(58,0,o),
(64,6,o),
(71,21,cs),
(223,359,l)
);
},
{
closed = 1;
nodes = (
(236,175,l),
(229,216,l),
(115,216,l),
(95,175,l)
);
},
{
closed = 1;
nodes = (
(177,358,l),
(229,25,ls),
(231,13,o),
(238,0,o),
(257,0,cs),
(272,0,o),
(282,10,o),
(279,28,cs),
(225,378,l)
);
}
);
width = 352;
},
{
associatedMasterId = m002;
attr = {
axisRules = (
{
max = 800;
min = 600;
}
);
};
layerId = "0C86E8E2-A06F-4424-A96B-ACA4383749A9";
name = "5 Mar 22, 05:23";
shapes = (
{
closed = 1;
nodes = (
(264,348,l),
(270,380,o),
(251,396,o),
(220,396,cs),
(196,396,o),
(185,383,o),
(178,367,cs),
(42,65,ls),
(29,34,o),
(41,0,o),
(74,0,cs),
(96,0,o),
(110,9,o),
(120,31,cs),
(249,317,l)
);
},
{
closed = 1;
nodes = (
(288,120,l),
(276,190,l),
(136,190,l),
(98,120,l)
);
},
{
closed = 1;
nodes = (
(200,326,l),
(237,45,ls),
(241,18,o),
(254,0,o),
(282,0,cs),
(309,0,o),
(324,21,o),
(319,50,cs),
(264,371,l)
);
}
);
width = 404;
}
);
metricLeft = A;
metricRight = A;
},
{
glyphname = b.sc;
lastChange = "2022-03-05 17:56:27 +0000";
layers = (
{
layerId = m01;
shapes = (
{
closed = 1;
nodes = (
(105,384,o),
(94,396,o),
(79,396,cs),
(64,396,o),
(55,387,o),
(53,369,cs),
(18,32,ls),
(16,15,o),
(28,0,o),
(44,0,cs),
(56,0,o),
(66,8,o),
(68,27,cs),
(103,363,ls)
);
},
{
closed = 1;
nodes = (
(200,-1,o),
(263,18,o),
(272,92,cs),
(280,175,o),
(187,224,o),
(77,224,c),
(73,171,l),
(171,171,o),
(227,144,o),
(223,100,cs),
(218,59,o),
(157,49,o),
(47,50,c),
(42,0,l)
);
},
{
closed = 1;
nodes = (
(252,171,o),
(284,212,o),
(291,281,cs),
(300,360,o),
(197,396,o),
(78,396,c),
(72,345,l),
(175,346,o),
(246,329,o),
(241,286,cs),
(238,247,o),
(220,224,o),
(81,224,c),
(76,171,l)
);
}
);
width = 304;
},
{
layerId = m002;
shapes = (
{
closed = 1;
nodes = (
(157,374,o),
(133,396,o),
(104,396,cs),
(79,396,o),
(61,380,o),
(58,352,cs),
(26,54,ls),
(23,25,o),
(47,0,o),
(77,0,cs),
(99,0,o),
(119,16,o),
(122,43,cs),
(153,340,ls)
);
},
{
closed = 1;
nodes = (
(219,0,o),
(300,12,o),
(308,95,cs),
(318,193,o),
(202,236,o),
(128,236,c),
(120,153,l),
(180,153,o),
(221,141,o),
(219,115,cs),
(217,91,o),
(167,80,o),
(83,80,c),
(75,0,l)
);
},
{
closed = 1;
nodes = (
(278,153,o),
(316,197,o),
(325,270,cs),
(335,364,o),
(225,396,o),
(102,396,c),
(91,317,l),
(186,317,o),
(239,302,o),
(236,280,cs),
(233,253,o),
(223,236,o),
(131,236,c),
(123,153,l)
);
}
);
width = 347;
}
);
metricLeft = B;
metricRight = B;
},
{
glyphname = c.sc;
lastChange = "2022-03-05 17:44:14 +0000";
layers = (
{
layerId = m01;
shapes = (
{
closed = 1;
nodes = (
(281,141,o),
(271,154,o),
(264,158,cs),
(256,162,o),
(238,165,o),
(232,154,cs),
(202,96,o),
(156,46,o),
(130,46,cs),
(97,46,o),
(82,119,o),
(82,169,cs),
(82,227,o),
(121,346,o),
(200,346,cs),
(218,346,o),
(248,343,o),
(261,338,cs),
(273,333,o),
(289,335,o),
(297,352,cs),
(304,367,o),
(300,378,o),
(286,383,cs),
(267,390,o),
(227,396,o),
(200,396,cs),
(87,396,o),
(32,249,o),
(32,169,cs),
(32,62,o),
(74,-4,o),
(130,-4,cs),
(183,-4,o),
(240,60,o),
(276,131,cs)
);
}
);
width = 304;
},
{
layerId = m002;
shapes = (
{
closed = 1;
nodes = (
(316,132,o),
(315,159,o),
(289,172,cs),
(263,185,o),
(238,178,o),
(230,163,cs),
(208,121,o),
(171,86,o),
(153,86,cs),
(134,86,o),
(126,138,o),
(131,183,cs),
(135,218,o),
(150,302,o),
(209,302,cs),
(220,302,o),
(260,301,o),
(270,299,cs),
(292,296,o),
(315,299,o),
(330,332,cs),
(344,363,o),
(330,372,o),
(306,382,cs),
(295,386,o),
(258,392,o),
(216,392,cs),
(86,392,o),
(51,275,o),
(41,185,cs),
(28,66,o),
(84,-4,o),
(157,-4,cs),
(201,-4,o),
(275,56,o),
(310,121,cs)
);
}
);
width = 348;
}
);
metricLeft = C;
metricRight = C;
},
{
glyphname = d.sc;
lastChange = "2022-03-05 17:56:27 +0000";
layers = (
{
layerId = m01;
shapes = (
{
closed = 1;
nodes = (
(81,0,ls),
(182,0,o),
(272,78,o),
(285,210,cs),
(296,315,o),
(206,396,o),
(100,396,cs),
(79,396,l),
(94,342,l),
(107,342,ls),
(184,342,o),
(243,287,o),
(235,214,cs),
(225,107,o),
(153,50,o),
(78,50,cs),
(63,50,l),
(44,0,l)
);
},
{
closed = 1;
nodes = (
(106,377,o),
(98,396,o),
(80,396,cs),
(63,396,o),
(56,388,o),
(54,369,cs),
(18,29,ls),
(16,14,o),
(27,0,o),
(45,0,cs),
(63,0,o),
(67,12,o),
(68,22,cs),
(104,359,ls)
);
}
);
width = 304;
},
{
layerId = m002;
shapes = (
{
closed = 1;
nodes = (
(109,0,ls),
(210,0,o),
(305,78,o),
(319,205,cs),
(329,313,o),
(230,396,o),
(122,396,cs),
(104,396,l),
(120,316,l),
(131,316,ls),
(188,316,o),
(229,270,o),
(223,216,cs),
(216,129,o),
(161,74,o),
(104,74,cs),
(94,74,l),
(76,0,l)
);
},
{
closed = 1;
nodes = (
(156,367,o),
(136,396,o),
(104,396,cs),
(81,396,o),
(61,385,o),
(58,353,cs),
(26,52,ls),
(23,24,o),
(46,0,o),
(77,0,cs),
(104,0,o),
(119,17,o),
(121,38,cs),
(153,336,ls)
);
}
);
width = 347;
}
);
metricLeft = D;
metricRight = D;
},
{
glyphname = e.sc;
lastChange = "2022-03-05 17:56:27 +0000";
layers = (
{
layerId = m01;
shapes = (
{
closed = 1;
nodes = (
(106,385,o),
(99,396,o),
(81,396,cs),
(64,396,o),
(56,387,o),
(55,374,cs),
(18,29,ls),
(16,13,o),
(27,0,o),
(44,0,cs),
(61,0,o),
(67,12,o),
(68,23,cs),
(104,368,ls)
);
},
{
closed = 1;
nodes = (
(240,0,ls),
(255,0,o),
(263,12,o),
(263,26,cs),
(263,39,o),
(253,51,o),
(236,51,cs),
(60,51,l),
(42,0,l)
);
},
{
closed = 1;
nodes = (
(248,190,ls),
(265,190,o),
(271,201,o),
(271,214,cs),
(271,227,o),
(261,238,o),
(244,238,cs),
(80,238,l),
(76,190,l)
);
},
{
closed = 1;
nodes = (
(278,346,ls),
(294,346,o),
(302,358,o),
(302,372,cs),
(302,384,o),
(292,396,o),
(274,396,cs),
(83,396,l),
(94,346,l)
);
}
);
width = 313;
},
{
layerId = m002;
shapes = (
{
closed = 1;
nodes = (
(161,374,o),
(136,396,o),
(106,396,cs),
(75,396,o),
(60,377,o),
(58,355,cs),
(26,52,ls),
(23,25,o),
(40,0,o),
(72,0,cs),
(102,0,o),
(123,19,o),
(125,39,cs),
(157,339,ls)
);
},
{
closed = 1;
nodes = (
(256,0,ls),
(285,0,o),
(302,18,o),
(302,44,cs),
(302,69,o),
(281,85,o),
(252,85,cs),
(113,85,l),
(72,0,l)
);
},
{
closed = 1;
nodes = (
(258,150,ls),
(288,150,o),
(307,169,o),
(307,194,cs),
(307,220,o),
(283,238,o),
(255,238,cs),
(131,238,l),
(120,150,l)
);
},
{
closed = 1;
nodes = (
(289,303,ls),
(317,303,o),
(334,325,o),
(334,351,cs),
(334,377,o),
(312,396,o),
(283,396,cs),
(105,396,l),
(136,303,l)
);
}
);
width = 356;
}
);
metricLeft = E;
metricRight = E;
},
{
glyphname = f.sc;
lastChange = "2022-03-05 17:56:27 +0000";
layers = (
{
layerId = m01;
shapes = (
{
closed = 1;
nodes = (
(106,384,o),
(97,396,o),
(80,396,cs),
(63,396,o),
(56,387,o),
(55,374,cs),
(18,29,ls),
(16,14,o),
(26,0,o),
(43,0,cs),
(61,0,o),
(66,13,o),
(67,23,cs),
(104,368,ls)
);
},
{
closed = 1;
nodes = (
(243,190,ls),
(259,190,o),
(266,200,o),
(266,214,cs),
(266,228,o),
(255,238,o),
(239,238,cs),
(76,238,l),
(72,190,l)
);
},
{
closed = 1;
nodes = (
(279,346,ls),
(296,346,o),
(302,360,o),
(302,374,cs),
(302,387,o),
(292,396,o),
(275,396,cs),
(80,396,l),
(91,346,l)
);
}
);
width = 313;
},
{
layerId = m002;
shapes = (
{
closed = 1;
nodes = (
(160,374,o),
(135,396,o),
(105,396,cs),
(78,396,o),
(61,380,o),
(58,354,cs),
(27,54,ls),
(24,28,o),
(41,0,o),
(71,0,cs),
(101,0,o),
(123,16,o),
(126,45,cs),
(156,339,ls)
);
},
{
closed = 1;
nodes = (
(257,150,ls),
(286,150,o),
(302,169,o),
(302,194,cs),
(302,220,o),
(279,238,o),
(251,238,cs),
(128,238,l),
(119,150,l)
);
},
{
closed = 1;
nodes = (
(286,303,ls),
(314,303,o),
(334,323,o),
(334,350,cs),
(334,377,o),
(310,396,o),
(282,396,cs),
(105,396,l),
(132,303,l)
);
}
);
width = 356;
}
);
metricLeft = F;
metricRight = F;
},
{
glyphname = g.sc;
lastChange = "2022-03-05 17:44:14 +0000";
layers = (
{
layerId = m01;
shapes = (
{
closed = 1;
nodes = (
(244,225,o),
(243,230,o),
(205,164,cs),
(186,132,o),
(136,48,o),
(103,48,cs),
(91,48,o),
(86,64,o),
(84,89,cs),
(81,125,o),
(84,188,o),
(86,211,cs),
(88,236,o),
(89,346,o),
(215,346,cs),
(237,346,o),
(245,342,o),
(249,325,cs),
(252,312,o),
(268,304,o),
(281,308,cs),
(295,311,o),
(298,325,o),
(295,337,cs),
(286,377,o),
(250,396,o),
(210,396,cs),
(40,396,o),
(38,230,o),
(36,214,cs),
(34,195,o),
(31,129,o),
(34,92,cs),
(37,49,o),
(57,-4,o),
(104,-4,cs),
(152,-4,o),
(195,52,o),
(236,115,c),
(259,225,l)
);
},
{
closed = 1;
nodes = (
(284,214,o),
(274,225,o),
(259,225,cs),
(241,225,o),
(233,214,o),
(233,199,c),
(214,29,ls),
(212,15,o),
(221,1,o),
(238,0,cs),
(256,-1,o),
(263,12,o),
(264,25,cs),
(282,196,ls)
);
}
);
width = 312;
},
{
layerId = m002;
shapes = (
{
closed = 1;
nodes = (
(243,236,o),
(230,210,o),
(203,165,cs),
(169,106,o),
(145,84,o),
(138,84,cs),
(133,84,o),
(134,105,o),
(133,130,cs),
(132,156,o),
(134,176,o),
(136,197,cs),
(139,220,o),
(139,305,o),
(213,305,cs),
(218,304,o),
(236,304,o),
(239,295,cs),
(244,282,o),
(271,269,o),
(296,280,cs),
(320,290,o),
(327,310,o),
(319,336,cs),
(307,370,o),
(284,396,o),
(227,396,cs),
(75,396,o),
(54,289,o),
(44,209,cs),
(44,208,o),
(37,135,o),
(39,102,cs),
(42,59,o),
(68,-4,o),
(123,-4,cs),
(171,-4,o),
(220,52,o),
(261,115,c),
(279,236,l)
);
},
{
closed = 1;
nodes = (
(320,204,o),
(305,236,o),
(278,236,cs),
(276,236,o),
(243,229,o),
(240,213,cs),
(213,45,ls),
(210,28,o),
(223,0,o),
(261,0,cs),
(285,0,o),
(301,22,o),
(302,36,cs),
(318,188,ls)
);
}
);
width = 357;
}
);
metricLeft = G;
metricRight = G;
},
{
glyphname = h.sc;
lastChange = "2022-03-05 17:56:27 +0000";
layers = (
{
layerId = m01;
shapes = (
{
closed = 1;
nodes = (
(106,386,o),
(95,396,o),
(81,396,cs),
(65,396,o),
(56,388,o),
(55,374,cs),
(18,29,ls),
(16,13,o),
(27,0,o),
(44,0,cs),
(61,0,o),
(67,12,o),
(68,23,cs),
(104,368,ls)
);
},
{
closed = 1;
nodes = (
(244,190,l),
(249,238,l),
(79,238,l),
(74,190,l)
);
},
{
closed = 1;
nodes = (
(303,385,o),
(293,396,o),
(276,396,cs),
(261,396,o),
(253,389,o),
(252,377,cs),
(215,29,ls),
(213,14,o),
(221,0,o),
(240,0,cs),
(255,0,o),
(263,11,o),
(264,22,cs),
(301,369,ls)
);
}
);
width = 313;
},
{
layerId = m002;
shapes = (
{
closed = 1;
nodes = (
(160,372,o),
(138,396,o),
(110,396,cs),
(83,396,o),
(60,377,o),
(58,354,cs),
(27,51,ls),
(24,20,o),
(50,0,o),
(78,0,cs),
(106,0,o),
(124,18,o),
(126,39,cs),
(157,340,ls)
);
},
{
closed = 1;
nodes = (
(230,153,l),
(240,238,l),
(131,238,l),
(121,153,l)
);
},
{
closed = 1;
nodes = (
(336,373,o),
(312,396,o),
(283,396,cs),
(258,396,o),
(236,378,o),
(234,356,cs),
(203,50,ls),
(200,22,o),
(222,0,o),
(253,0,cs),
(278,0,o),
(299,16,o),
(301,37,cs),
(333,340,ls)
);
}
);
width = 356;
}
);
metricLeft = H;
metricRight = H;
},
{
glyphname = i.sc;
lastChange = "2022-03-05 17:56:27 +0000";
layers = (
{
layerId = m01;
shapes = (
{
closed = 1;
nodes = (
(127,387,o),
(117,396,o),
(100,396,cs),
(84,396,o),
(77,390,o),
(75,374,cs),
(38,29,ls),
(36,14,o),
(46,0,o),
(63,0,cs),
(83,0,o),
(87,16,o),
(88,22,cs),
(125,368,ls)
);
}
);
width = 157;
},
{
layerId = m002;
shapes = (
{
closed = 1;
nodes = (
(181,373,o),
(158,396,o),
(128,396,cs),
(102,396,o),
(81,379,o),
(78,354,cs),
(46,51,ls),
(43,23,o),
(63,0,o),
(93,0,cs),
(122,0,o),
(143,17,o),
(145,38,cs),
(177,339,ls)
);
}
);
width = 220;
}
);
metricLeft = I;
metricRight = I;
},
{
glyphname = j.sc;
lastChange = "2022-03-05 17:56:27 +0000";
layers = (
{
layerId = m01;
shapes = (
{
closed = 1;
nodes = (
(163,128,ls),
(160,100,o),
(156,74,o),
(141,59,cs),
(133,50,o),
(119,46,o),
(101,46,cs),
(88,46,o),
(79,54,o),
(70,65,cs),
(57,81,o),
(39,85,o),
(28,75,cs),
(17,64,o),
(18,50,o),
(33,32,cs),
(50,13,o),
(72,-4,o),
(104,-4,cs),
(135,-4,o),
(157,6,o),
(174,21,cs),
(197,43,o),
(208,80,o),
(213,124,cs),
(239,366,ls),
(241,384,o),
(232,396,o),
(214,396,cs),
(199,396,o),
(192,389,o),
(189,373,c)
);
}
);
width = 251;
},
{
layerId = m002;
shapes = (
{
closed = 1;
nodes = (
(168,172,ls),
(166,149,o),
(162,111,o),
(152,100,cs),
(145,93,o),
(140,91,o),
(131,91,cs),
(121,91,o),
(115,98,o),
(110,103,cs),
(88,122,o),
(52,121,o),
(35,95,cs),
(24,79,o),
(28,54,o),
(43,39,cs),
(52,32,o),
(78,-4,o),
(140,-4,cs),
(175,-4,o),
(202,10,o),
(226,34,cs),
(256,68,o),
(263,134,o),
(266,160,cs),
(284,337,ls),
(288,371,o),
(267,396,o),
(235,396,cs),
(204,396,o),
(190,374,o),
(187,351,cs)
);
}
);
width = 308;
}
);
metricLeft = J;
metricRight = J;
},
{
glyphname = k.sc;
lastChange = "2022-03-05 17:56:27 +0000";
layers = (
{
layerId = m01;
shapes = (
{
closed = 1;
nodes = (
(289,347,ls),
(298,355,o),
(302,365,o),
(302,374,cs),
(302,383,o),
(293,395,o),
(282,396,cs),
(271,396,o),
(264,393,o),
(255,385,cs),
(67,226,l),
(69,203,l),
(115,199,l)
);
},
{
closed = 1;
nodes = (
(67,228,l),
(69,207,l),
(215,16,ls),
(222,6,o),
(231,0,o),
(242,0,cs),
(252,0,o),
(261,7,o),
(264,18,cs),
(265,26,o),
(261,34,o),
(255,42,cs),
(115,227,l)
);
},
{
closed = 1;
nodes = (
(105,382,o),
(97,396,o),
(80,396,cs),
(64,396,o),
(56,388,o),
(54,368,cs),
(18,32,ls),
(16,15,o),
(28,0,o),
(44,0,cs),
(61,0,o),
(67,14,o),
(68,27,cs),
(103,362,ls)
);
}
);
width = 313;
},
{
layerId = m002;
shapes = (
{
closed = 1;
nodes = (
(315,307,ls),
(328,319,o),
(333,332,o),
(334,343,cs),
(336,369,o),
(314,393,o),
(285,393,cs),
(273,393,o),
(256,388,o),
(244,378,cs),
(141,294,l),
(131,171,l),
(157,171,l)
);
},
{
closed = 1;
nodes = (
(137,240,l),
(126,133,l),
(209,23,ls),
(220,8,o),
(237,0,o),
(255,0,cs),
(275,0,o),
(296,12,o),
(300,34,cs),
(302,46,o),
(299,60,o),
(290,72,cs),
(161,240,l)
);
},
{
closed = 1;
nodes = (
(160,375,o),
(132,393,o),
(108,393,cs),
(82,393,o),
(60,377,o),
(58,354,cs),
(26,54,ls),
(23,25,o),
(46,0,o),
(77,0,cs),
(102,0,o),
(122,15,o),
(125,41,cs),
(156,339,ls)
);
}
);
width = 356;
}
);
metricLeft = K;
metricRight = K;
},
{
glyphname = l.sc;
lastChange = "2022-03-05 17:56:27 +0000";
layers = (
{
layerId = m01;
shapes = (
{
closed = 1;
nodes = (
(106,385,o),
(98,396,o),
(81,396,cs),
(67,396,o),
(57,391,o),
(55,374,cs),
(18,29,ls),
(16,13,o),
(27,0,o),
(44,0,cs),
(61,0,o),
(66,13,o),
(67,23,cs),
(104,368,ls)
);
},
{
closed = 1;
nodes = (
(242,0,ls),
(258,0,o),
(265,13,o),
(265,26,cs),
(265,39,o),
(254,51,o),
(238,51,cs),
(60,51,l),
(37,0,l)
);
}
);
width = 313;
},
{
layerId = m002;
shapes = (
{
closed = 1;
nodes = (
(159,373,o),
(137,396,o),
(107,396,cs),
(78,396,o),
(60,376,o),
(58,353,cs),
(26,50,ls),
(23,22,o),
(44,0,o),
(73,0,cs),
(101,0,o),
(121,17,o),
(123,38,cs),
(155,339,ls)
);
},
{
closed = 1;
nodes = (
(256,0,ls),
(284,0,o),
(302,21,o),
(302,46,cs),
(302,71,o),
(278,91,o),
(250,91,cs),
(109,91,l),
(72,0,l)
);
}
);
width = 356;
}
);
metricLeft = L;
metricRight = L;
},
{
glyphname = m.sc;
lastChange = "2022-03-05 17:56:27 +0000";
layers = (
{
layerId = m01;
shapes = (
{
closed = 1;
nodes = (
(110,379,ls),
(107,390,o),
(96,396,o),
(80,396,c),
(69,352,l),
(189,17,ls),
(193,6,o),
(200,0,o),
(214,0,c),
(227,51,l)
);
},
{
closed = 1;
nodes = (
(81,396,l),
(68,396,o),
(57,392,o),
(55,374,cs),
(18,29,ls),
(16,14,o),
(26,0,o),
(43,0,cs),
(61,0,o),
(67,13,o),
(68,25,cs),
(103,368,l)
);
},
{
closed = 1;
nodes = (
(402,0,o),
(408,12,o),
(409,23,cs),
(445,368,ls),
(447,386,o),
(438,396,o),
(423,396,c),
(393,345,l),
(359,29,ls),
(357,14,o),
(368,0,o),
(384,0,cs)
);
},
{
closed = 1;
nodes = (
(213,0,l),
(225,0,o),
(231,4,o),
(237,15,cs),
(431,339,l),
(424,396,l),
(416,396,o),
(404,393,o),
(399,385,cs),
(199,50,l)
);
}
);
width = 457;
},
{
layerId = m002;
shapes = (
{
closed = 1;
nodes = (
(160,362,ls),
(151,387,o),
(131,396,o),
(103,396,c),
(87,283,l),
(179,34,ls),
(187,11,o),
(204,0,o),
(237,0,c),
(264,77,l)
);
},
{
closed = 1;
nodes = (
(104,396,l),
(76,396,o),
(61,383,o),
(58,353,cs),
(26,51,ls),
(24,20,o),
(48,0,o),
(75,0,cs),
(103,0,o),
(123,18,o),
(125,41,cs),
(151,290,l)
);
},
{
closed = 1;
nodes = (
(426,0,o),
(441,16,o),
(443,39,cs),
(475,339,ls),
(480,377,o),
(459,396,o),
(429,396,c),
(370,278,l),
(345,49,ls),
(342,24,o),
(365,0,o),
(399,0,cs)
);
},
{
closed = 1;
nodes = (
(233,0,l),
(266,0,o),
(281,6,o),
(293,28,cs),
(430,262,l),
(430,396,l),
(403,396,o),
(388,387,o),
(376,367,cs),
(209,83,l)
);
}
);
width = 498;
}
);
metricLeft = M;
metricRight = M;
},
{
glyphname = n.sc;
lastChange = "2022-03-05 17:56:27 +0000";
layers = (
{
layerId = m01;
shapes = (
{
closed = 1;
nodes = (
(112,377,ls),
(109,384,o),
(101,396,o),
(81,396,c),
(78,327,l),
(201,17,ls),
(206,5,o),
(217,0,o),
(238,0,c),
(241,52,l)
);
},
{
closed = 1;
nodes = (
(82,396,l),
(62,396,o),
(56,384,o),
(55,374,cs),
(18,29,ls),
(16,13,o),
(27,0,o),
(44,0,cs),
(61,0,o),
(67,12,o),
(68,25,cs),
(100,325,l)
);
},
{
closed = 1;
nodes = (
(259,0,o),
(264,16,o),
(265,22,cs),
(301,368,ls),
(302,379,o),
(298,396,o),
(278,396,cs),
(259,396,o),
(252,381,o),
(251,368,cs),
(216,37,l),
(236,0,l)
);
}
);
width = 313;
},
{
layerId = m002;
shapes = (
{
closed = 1;
nodes = (
(159,365,ls),
(153,380,o),
(135,396,o),
(103,396,c),
(100,279,l),
(203,28,ls),
(210,10,o),
(232,0,o),
(258,0,c),
(252,140,l)
);
},
{
closed = 1;
nodes = (
(105,396,l),
(71,396,o),
(60,376,o),
(58,353,cs),
(26,51,ls),
(23,20,o),
(42,0,o),
(69,0,cs),
(97,0,o),
(123,18,o),
(125,41,cs),
(149,271,l)
);
},
{
closed = 1;
nodes = (
(291,0,o),
(299,19,o),
(301,39,cs),
(333,339,ls),
(336,369,o),
(315,396,o),
(284,396,cs),
(258,396,o),
(236,376,o),
(234,354,cs),
(212,138,l),
(256,0,l)
);
}
);
width = 356;
}
);
metricLeft = N;
metricRight = N;
},
{
glyphname = o.sc;
lastChange = "2022-03-05 17:44:14 +0000";
layers = (
{
layerId = m01;
shapes = (
{
closed = 1;
nodes = (
(228,0,o),
(279,155,o),
(290,265,cs),
(298,332,o),
(252,396,o),
(170,396,cs),
(56,396,o),
(35,269,o),
(35,175,cs),
(33,94,o),
(59,0,o),
(125,0,cs)
);
},
{
closed = 1;
nodes = (
(100,50,o),
(83,122,o),
(85,167,cs),
(89,252,o),
(96,346,o),
(170,346,cs),
(231,346,o),
(243,295,o),
(240,266,cs),
(231,175,o),
(187,50,o),
(125,50,cs)
);
}
);
width = 304;
},
{
layerId = m002;
shapes = (
{
closed = 1;
nodes = (
(255,0,o),
(316,149,o),
(325,251,cs),
(334,328,o),
(307,396,o),
(184,396,cs),
(80,396,o),
(43,267,o),
(42,178,cs),
(41,100,o),
(63,0,o),
(149,0,cs)
);
},
{
closed = 1;
nodes = (
(145,90,o),
(131,124,o),
(132,167,cs),
(132,211,o),
(137,305,o),
(199,305,cs),
(240,305,o),
(238,284,o),
(235,258,cs),
(227,184,o),
(181,90,o),
(159,90,cs)
);
}
);
width = 348;
}
);
metricLeft = O;
metricRight = O;
},
{
glyphname = p.sc;
lastChange = "2022-03-05 17:56:27 +0000";
layers = (
{
layerId = m01;
shapes = (
{
closed = 1;
nodes = (
(178,187,o),
(282,184,o),
(293,287,cs),
(301,368,o),
(200,396,o),
(81,396,c),
(85,350,l),
(192,350,o),
(248,331,o),
(243,294,cs),
(238,235,o),
(161,238,o),
(79,238,c),
(76,187,l)
);
},
{
closed = 1;
nodes = (
(106,387,o),
(99,396,o),
(81,396,cs),
(64,396,o),
(56,387,o),
(55,376,cs),
(18,31,ls),
(16,14,o),
(28,0,o),
(44,0,cs),
(62,0,o),
(67,14,o),
(68,25,cs),
(104,370,ls)
);
}
);
width = 304;
},
{
layerId = m002;
shapes = (
{
closed = 1;
nodes = (
(186,165,o),
(315,168,o),
(326,272,cs),
(336,370,o),
(227,396,o),
(106,396,c),
(113,305,l),
(209,309,o),
(232,303,o),
(229,283,cs),
(226,255,o),
(181,250,o),
(114,250,c),
(108,165,l)
);
},
{
closed = 1;
nodes = (
(159,379,o),
(133,396,o),
(106,396,cs),
(79,396,o),
(61,382,o),
(58,357,cs),
(26,54,ls),
(23,26,o),
(45,0,o),
(77,0,cs),
(104,0,o),
(122,17,o),
(124,41,cs),
(155,342,ls)
);
}
);
width = 347;
}
);
metricLeft = P;
metricRight = P;
},
{
glyphname = q.sc;
lastChange = "2022-03-05 17:44:14 +0000";
layers = (
{
layerId = m01;
shapes = (
{
closed = 1;
nodes = (
(155,116,o),
(139,115,o),
(129,103,cs),
(123,94,o),
(124,80,o),
(138,67,cs),
(218,-9,ls),
(231,-21,o),
(246,-23,o),
(256,-15,cs),
(266,-7,o),
(265,12,o),
(253,24,cs),
(169,103,ls)
);
},
{
closed = 1;
nodes = (
(228,0,o),
(279,155,o),
(290,265,cs),
(298,332,o),
(252,396,o),
(170,396,cs),
(56,396,o),
(35,269,o),
(35,175,cs),
(33,94,o),
(59,0,o),
(125,0,cs)
);
},
{
closed = 1;
nodes = (
(100,50,o),
(83,122,o),
(85,167,cs),
(89,252,o),
(96,346,o),
(170,346,cs),
(231,346,o),
(243,295,o),
(240,266,cs),
(231,175,o),
(187,50,o),
(125,50,cs)
);
}
);
width = 304;
},
{
layerId = m002;
shapes = (
{
closed = 1;
nodes = (
(195,148,o),
(172,153,o),
(157,133,cs),
(142,116,o),
(153,90,o),
(175,68,cs),
(244,1,ls),
(265,-20,o),
(286,-21,o),
(302,-5,cs),
(322,13,o),
(313,36,o),
(291,57,cs),
(219,127,l)
);
},
{
closed = 1;
nodes = (
(255,0,o),
(316,149,o),
(325,251,cs),
(334,328,o),
(307,396,o),
(184,396,cs),
(80,396,o),
(43,267,o),
(42,178,cs),
(41,100,o),
(63,0,o),
(149,0,cs)
);
},
{
closed = 1;
nodes = (
(145,90,o),
(131,124,o),
(132,167,cs),
(132,211,o),
(137,305,o),
(199,305,cs),
(240,305,o),
(238,284,o),
(235,258,cs),
(227,184,o),
(181,90,o),
(159,90,cs)
);
}
);
width = 361;
}
);
metricLeft = Q;
metricRight = Q;
},
{
glyphname = r.sc;
lastChange = "2022-03-05 17:56:27 +0000";
layers = (
{
layerId = m01;
shapes = (
{
closed = 1;
nodes = (
(174,186,o),
(282,182,o),
(293,285,cs),
(301,366,o),
(220,396,o),
(80,396,c),
(77,345,l),
(197,346,o),
(248,330,o),
(244,292,cs),
(237,232,o),
(157,238,o),
(79,238,c),
(76,187,l)
);
},
{
closed = 1;
nodes = (
(60,219,l),
(216,14,ls),
(224,4,o),
(232,0,o),
(240,0,cs),
(250,0,o),
(259,6,o),
(263,14,cs),
(266,19,o),
(266,30,o),
(259,39,cs),
(127,213,l)
);
},
{
closed = 1;
nodes = (
(105,387,o),
(97,396,o),
(80,396,cs),
(63,396,o),
(57,390,o),
(55,374,cs),
(18,32,ls),
(16,13,o),
(28,0,o),
(43,0,cs),
(61,0,o),
(67,13,o),
(68,27,cs),
(104,368,l)
);
}
);
width = 304;
},
{
layerId = m002;
shapes = (
{
closed = 1;
nodes = (
(155,150,o),
(312,146,o),
(325,269,cs),
(336,367,o),
(212,396,o),
(106,396,c),
(113,302,l),
(201,304,o),
(231,299,o),
(228,269,cs),
(225,242,o),
(143,238,o),
(115,238,c),
(118,150,l)
);
},
{
closed = 1;
nodes = (
(98,177,l),
(214,21,ls),
(225,6,o),
(242,0,o),
(257,0,cs),
(276,0,o),
(296,12,o),
(301,31,cs),
(304,45,o),
(301,58,o),
(292,70,cs),
(213,177,l)
);
},
{
closed = 1;
nodes = (
(160,373,o),
(137,396,o),
(106,396,cs),
(79,396,o),
(61,378,o),
(58,353,cs),
(26,54,ls),
(22,21,o),
(45,0,o),
(73,0,cs),
(100,0,o),
(122,20,o),
(125,47,cs),
(156,339,ls)
);
}
);
width = 347;
}
);
metricLeft = R;
metricRight = R;
},
{
glyphname = s.sc;
lastChange = "2022-03-05 17:44:14 +0000";
layers = (
{
layerId = m01;
shapes = (
{
closed = 1;
nodes = (
(88,47,o),
(71,60,o),
(68,73,cs),
(65,85,o),
(49,93,o),
(36,89,cs),
(22,86,o),
(19,72,o),
(22,60,cs),
(32,19,o),
(69,-4,o),
(112,-4,cs),
(198,-4,o),
(262,31,o),
(270,109,cs),
(276,166,o),
(222,205,o),
(178,233,cs),
(134,261,o),
(95,278,o),
(96,294,cs),
(99,322,o),
(148,345,o),
(190,345,cs),
(234,345,o),
(245,338,o),
(247,323,cs),
(249,310,o),
(268,303,o),
(281,307,cs),
(294,310,o),
(297,324,o),
(295,336,cs),
(283,380,o),
(250,396,o),
(186,396,cs),
(108,396,o),
(52,351,o),
(47,303,cs),
(42,258,o),
(86,231,o),
(136,202,cs),
(183,175,o),
(225,154,o),
(221,116,cs),
(216,70,o),
(176,47,o),
(109,47,cs)
);
}
);
width = 303;
},
{
layerId = m002;
shapes = (
{
closed = 1;
nodes = (
(133,87,o),
(121,94,o),
(114,107,cs),
(107,117,o),
(88,131,o),
(62,124,cs),
(38,119,o),
(26,97,o),
(33,72,cs),
(44,25,o),
(83,-4,o),
(128,-4,cs),
(213,-4,o),
(291,32,o),
(299,111,cs),
(307,186,o),
(238,218,o),
(215,234,cs),
(198,246,o),
(152,265,o),
(149,282,cs),
(148,291,o),
(175,305,o),
(193,305,cs),
(213,305,o),
(231,298,o),
(236,288,cs),
(242,274,o),
(266,260,o),
(292,268,cs),
(316,277,o),
(326,297,o),
(320,321,cs),
(306,372,o),
(264,396,o),
(206,396,cs),
(118,396,o),
(49,344,o),
(53,280,cs),
(57,230,o),
(101,202,o),
(133,183,cs),
(161,167,o),
(205,140,o),
(203,123,cs),
(202,101,o),
(183,87,o),
(157,87,cs)
);
}
);
width = 339;
}
);
metricLeft = S;
metricRight = S;
},
{
glyphname = t.sc;
lastChange = "2022-03-05 17:56:27 +0000";
layers = (
{
layerId = m01;
shapes = (
{
closed = 1;
nodes = (
(150,357,l),
(116,35,ls),
(113,11,o),
(124,0,o),
(141,0,cs),
(159,0,o),
(164,13,o),
(165,23,cs),
(200,357,l)
);
},
{
closed = 1;
nodes = (
(293,345,o),
(301,357,o),
(301,371,cs),
(301,383,o),
(291,396,o),
(274,396,cs),
(77,396,ls),
(60,396,o),
(54,384,o),
(54,371,cs),
(54,357,o),
(64,345,o),
(81,345,cs),
(278,345,ls)
);
}
);
width = 313;
},
{
layerId = m002;
shapes = (
{
closed = 1;
nodes = (
(139,330,l),
(108,50,ls),
(104,22,o),
(128,-1,o),
(158,-1,cs),
(184,-1,o),
(203,15,o),
(205,38,cs),
(236,321,l)
);
},
{
closed = 1;
nodes = (
(304,305,o),
(321,325,o),
(320,350,cs),
(318,376,o),
(296,396,o),
(267,396,cs),
(103,396,ls),
(75,396,o),
(56,376,o),
(58,350,cs),
(59,325,o),
(81,305,o),
(110,305,cs),
(274,305,ls)
);
}
);
width = 342;
}
);
metricLeft = T;
metricRight = T;
},
{
glyphname = u.sc;
lastChange = "2022-03-05 17:56:27 +0000";
layers = (
{
layerId = m01;
shapes = (
{
closed = 1;
nodes = (
(241,224,l),
(237,215,o),
(233,208,o),
(230,203,cs),
(198,144,o),
(123,46,o),
(85,46,cs),
(70,46,o),
(73,76,o),
(77,113,cs),
(105,370,ls),
(107,384,o),
(97,395,o),
(81,396,cs),
(67,396,o),
(57,387,o),
(55,373,cs),
(27,119,ls),
(18,37,o),
(42,-4,o),
(84,-4,cs),
(122,-4,o),
(179,39,o),
(229,106,c)
);
},
{
closed = 1;
nodes = (
(304,387,o),
(295,396,o),
(278,396,cs),
(263,396,o),
(253,389,o),
(252,376,cs),
(216,34,ls),
(213,10,o),
(225,0,o),
(242,0,cs),
(254,0,o),
(264,8,o),
(265,22,cs),
(302,371,ls)
);
}
);
width = 313;
},
{
layerId = m002;
shapes = (
{
closed = 1;
nodes = (
(236,222,l),
(234,218,o),
(232,215,o),
(230,212,cs),
(204,173,o),
(140,88,o),
(130,88,cs),
(120,88,o),
(123,108,o),
(126,137,cs),
(149,342,ls),
(153,376,o),
(136,396,o),
(108,396,cs),
(80,397,o),
(61,376,o),
(58,351,cs),
(34,130,ls),
(24,42,o),
(57,-4,o),
(101,-4,cs),
(143,-4,o),
(185,23,o),
(222,62,c)
);
},
{
closed = 1;
nodes = (
(337,376,o),
(318,396,o),
(286,396,cs),
(261,396,o),
(246,376,o),
(244,357,cs),
(212,51,ls),
(209,19,o),
(226,0,o),
(253,0,cs),
(279,0,o),
(300,16,o),
(302,38,cs),
(334,343,ls)
);
}
);
width = 356;
}
);
metricLeft = U;
metricRight = U;
},
{
glyphname = v.sc;
lastChange = "2022-03-05 18:33:28 +0000";
layers = (
{
layerId = m01;
shapes = (
{
closed = 1;
nodes = (
(99,0,o),
(105,8,o),
(111,20,cs),
(266,364,ls),
(274,383,o),
(262,396,o),
(245,396,cs),
(229,396,o),
(223,390,o),
(218,380,cs),
(74,60,l),
(85,0,l)
);
},
{
closed = 1;
nodes = (
(72,374,ls),
(71,387,o),
(60,396,o),
(43,396,cs),
(28,396,o),
(20,389,o),
(22,373,cs),
(58,27,ls),
(59,13,o),
(71,0,o),
(87,0,c),
(105,60,l)
);
}
);
width = 262;
},
{
layerId = m002;
shapes = (
{
closed = 1;
nodes = (
(138,0,o),
(157,8,o),
(167,29,cs),
(309,330,ls),
(327,367,o),
(301,396,o),
(267,396,cs),
(241,396,o),
(226,382,o),
(217,364,cs),
(92,101,l),
(119,0,l)
);
},
{
closed = 1;
nodes = (
(133,352,ls),
(130,379,o),
(107,396,o),
(81,396,cs),
(51,396,o),
(35,374,o),
(38,345,cs),
(69,43,ls),
(72,14,o),
(100,0,o),
(123,0,c),
(158,103,l)
);
}
);
width = 315;
}
);
metricLeft = V;
metricRight = V;
},
{
glyphname = w.sc;
lastChange = "2022-03-05 18:33:28 +0000";
layers = (
{
layerId = m01;
shapes = (
{
closed = 1;
nodes = (
(302,0,o),
(306,8,o),
(312,20,cs),
(467,364,ls),
(472,375,o),
(471,396,o),
(445,396,cs),
(431,396,o),
(424,390,o),
(419,380,cs),
(275,60,l),
(285,0,l)
);
},
{
closed = 1;
nodes = (
(72,375,ls),
(71,386,o),
(61,396,o),
(43,396,cs),
(28,396,o),
(20,386,o),
(22,372,cs),
(59,26,ls),
(61,10,o),
(72,0,o),
(89,0,c),
(106,57,l)
);
},
{
closed = 1;
nodes = (
(103,0,o),
(107,12,o),
(112,22,cs),
(252,332,l),
(243,396,l),
(230,396,o),
(222,387,o),
(218,379,cs),
(72,55,l),
(88,0,l)
);
},
{
closed = 1;
nodes = (
(273,375,ls),
(272,388,o),
(259,396,o),
(242,396,c),
(227,332,l),
(260,21,ls),
(261,14,o),
(271,0,o),
(287,0,c),
(306,63,l)
);
}
);
width = 462;
},
{
layerId = m002;
shapes = (
{
closed = 1;
nodes = (
(346,0,o),
(360,8,o),
(370,29,cs),
(505,330,ls),
(518,361,o),
(498,396,o),
(460,396,cs),
(434,396,o),
(425,385,o),
(413,361,cs),
(305,125,l),
(327,0,l)
);
},
{
closed = 1;
nodes = (
(133,352,ls),
(130,376,o),
(109,396,o),
(80,396,cs),
(53,396,o),
(34,374,o),
(38,345,cs),
(84,43,ls),
(89,12,o),
(112,0,o),
(139,0,c),
(170,121,l)
);
},
{
closed = 1;
nodes = (
(162,0,o),
(172,10,o),
(181,29,cs),
(291,268,l),
(273,396,l),
(239,396,o),
(232,381,o),
(225,365,cs),
(115,121,l),
(135,0,l)
);
},
{
closed = 1;
nodes = (
(322,352,ls),
(318,380,o),
(303,396,o),
(271,396,c),
(239,267,l),
(273,36,ls),
(277,12,o),
(305,0,o),
(330,0,c),
(357,125,l)
);
}
);
width = 510;
}
);
metricLeft = W;
metricRight = W;
},
{
glyphname = x.sc;
lastChange = "2022-03-05 18:36:09 +0000";
layers = (
{
layerId = m01;
shapes = (
{
closed = 1;
nodes = (
(305,368,o),
(302,384,o),
(292,392,cs),
(281,400,o),
(264,399,o),
(255,385,cs),
(22,40,ls),
(15,30,o),
(16,16,o),
(27,6,cs),
(38,-3,o),
(56,-3,o),
(65,10,cs),
(296,355,ls)
);
},
{
closed = 1;
nodes = (
(97,397,o),
(81,399,o),
(69,395,cs),
(57,391,o),
(53,377,o),
(60,361,cs),
(217,17,ls),
(224,2,o),
(242,-5,o),
(256,3,cs),
(267,9,o),
(268,24,o),
(262,36,cs),
(104,381,ls)
);
}
);
width = 314;
},
{
layerId = m002;
shapes = (
{
closed = 1;
nodes = (
(337,338,o),
(336,366,o),
(316,384,cs),
(296,403,o),
(257,398,o),
(241,375,cs),
(37,72,ls),
(23,52,o),
(25,31,o),
(44,13,cs),
(63,-4,o),
(104,-7,o),
(120,16,cs),
(324,319,ls)
);
},
{
closed = 1;
nodes = (
(140,389,o),
(111,401,o),
(86,393,cs),
(60,383,o),
(50,357,o),
(64,328,cs),
(208,27,ls),
(221,0,o),
(256,-6,o),
(279,5,cs),
(300,17,o),
(307,39,o),
(296,63,cs),
(151,366,ls)
);
}
);
width = 355;
}
);
metricLeft = X;
metricRight = X;
},
{
glyphname = y.sc;
lastChange = "2022-03-05 18:36:09 +0000";
layers = (
{
layerId = m01;
shapes = (
{
closed = 1;
nodes = (
(178,230,l),
(105,377,ls),
(99,390,o),
(82,401,o),
(66,394,cs),
(52,387,o),
(52,372,o),
(58,359,cs),
(144,187,l)
);
},
{
closed = 1;
nodes = (
(305,366,o),
(302,383,o),
(292,391,cs),
(282,398,o),
(266,398,o),
(255,382,cs),
(27,39,ls),
(19,28,o),
(20,14,o),
(32,6,cs),
(42,-3,o),
(59,-3,o),
(68,10,cs),
(296,353,ls)
);
}
);
width = 313;
},
{
layerId = m002;
shapes = (
{
closed = 1;
nodes = (
(215,251,l),
(151,368,ls),
(132,401,o),
(100,401,o),
(85,393,cs),
(56,383,o),
(53,354,o),
(66,333,cs),
(151,177,l)
);
},
{
closed = 1;
nodes = (
(373,345,o),
(365,368,o),
(346,385,cs),
(326,402,o),
(293,401,o),
(276,378,cs),
(42,72,ls),
(26,52,o),
(30,31,o),
(49,13,cs),
(68,-4,o),
(104,-7,o),
(123,17,cs),
(355,323,ls)
);
}
);
width = 387;
}
);
metricLeft = Y;
metricRight = Y;
},
{
glyphname = z.sc;
lastChange = "2022-03-05 18:36:09 +0000";
layers = (
{
layerId = m01;
shapes = (
{
closed = 1;
nodes = (
(300,362,o),
(302,375,o),
(296,384,cs),
(292,391,o),
(282,396,o),
(271,396,cs),
(264,396,o),
(258,391,o),
(254,385,cs),
(23,41,ls),
(18,34,o),
(14,22,o),
(20,13,cs),
(25,5,o),
(34,0,o),
(48,0,cs),
(53,0,o),
(59,5,o),
(66,15,cs),
(294,354,ls)
);
},
{
closed = 1;
nodes = (
(241,0,ls),
(258,0,o),
(265,13,o),
(264,25,cs),
(263,39,o),
(252,50,o),
(237,50,cs),
(81,50,l),
(47,0,l)
);
},
{
closed = 1;
nodes = (
(273,396,l),
(78,396,ls),
(61,396,o),
(54,384,o),
(55,371,cs),
(56,357,o),
(65,346,o),
(82,346,cs),
(237,346,l)
);
}
);
width = 312;
},
{
layerId = m002;
shapes = (
{
closed = 1;
nodes = (
(359,335,o),
(360,355,o),
(350,371,cs),
(341,386,o),
(323,396,o),
(302,396,cs),
(289,396,o),
(275,388,o),
(266,376,cs),
(35,73,ls),
(25,59,o),
(22,41,o),
(31,24,cs),
(39,10,o),
(58,0,o),
(81,0,cs),
(96,0,o),
(110,9,o),
(117,17,cs),
(346,319,ls)
);
},
{
closed = 1;
nodes = (
(277,0,ls),
(306,0,o),
(325,19,o),
(323,44,cs),
(321,70,o),
(299,91,o),
(271,91,cs),
(149,91,l),
(80,0,l)
);
},
{
closed = 1;
nodes = (
(306,396,l),
(104,396,ls),
(76,396,o),
(57,376,o),
(59,350,cs),
(60,325,o),
(82,305,o),
(111,305,cs),
(235,305,l)
);
}
);
width = 379;
}
);
metricLeft = Z;
metricRight = Z;
},
{
glyphname = zero;
lastChange = "2022-03-05 20:14:30 +0000";
layers = (
{
layerId = m01;
shapes = (
{
closed = 1;
nodes = (
(285,-3,o),
(438,228,o),
(426,402,cs),
(421,477,o),
(385,568,o),
(279,568,cs),
(90,568,o),
(33,280,o),
(42,160,cs),
(47,81,o),
(87,-4,o),
(162,-4,cs)
);
},
{
closed = 1;
nodes = (
(127,47,o),
(99,84,o),
(94,155,cs),
(85,279,o),
(148,517,o),
(285,517,cs),
(350,517,o),
(370,463,o),
(374,405,cs),
(387,212,o),
(223,47,o),
(158,47,cs)
);
}
);
width = 445;
},
{
layerId = m002;
shapes = (
{
closed = 1;
nodes = (
(328,-3,o),
(477,223,o),
(465,395,cs),
(460,471,o),
(421,568,o),
(301,568,cs),
(101,568,o),
(46,290,o),
(54,172,cs),
(60,91,o),
(103,-4,o),
(193,-4,cs)
);
},
{
closed = 1;
nodes = (
(171,88,o),
(158,107,o),
(153,168,cs),
(145,281,o),
(200,476,o),
(310,476,cs),
(352,476,o),
(363,449,o),
(366,398,cs),
(378,225,o),
(237,88,o),
(187,88,cs)
);
}
);
width = 495;
}
);
unicode = 48;
},
{
glyphname = one;
lastChange = "2022-03-04 18:35:51 +0000";
layers = (
{
layerId = m01;
shapes = (
{
closed = 1;
nodes = (
(277,560,o),
(265,568,o),
(252,568,cs),
(239,568,o),
(226,561,o),
(224,543,cs),
(169,28,ls),
(167,9,o),
(180,0,o),
(193,0,cs),
(205,0,o),
(218,6,o),
(219,23,cs),
(275,543,ls)
);
}
);
width = 445;
},
{
layerId = m002;
shapes = (
{
closed = 1;
nodes = (
(327,548,o),
(301,568,o),
(274,568,cs),
(251,568,o),
(226,554,o),
(223,526,cs),
(172,51,ls),
(169,18,o),
(196,0,o),
(223,0,cs),
(245,0,o),
(269,12,o),
(272,39,cs),
(324,518,ls)
);
}
);
width = 495;
}
);
unicode = 49;
},
{
glyphname = two;
lastChange = "2022-03-04 18:35:51 +0000";
layers = (
{
layerId = m01;
shapes = (
{
closed = 1;
nodes = (
(126,49,l),
(178,115,o),
(296,263,o),
(308,278,cs),
(422,431,o),
(428,501,o),
(346,549,cs),
(274,591,o),
(157,558,o),
(98,505,cs),
(75,485,o),
(80,472,o),
(89,463,cs),
(97,454,o),
(113,451,o),
(137,471,cs),
(186,513,o),
(281,531,o),
(326,505,cs),
(378,475,o),
(331,393,o),
(283,332,cs),
(259,301,o),
(164,185,o),
(40,35,cs),
(24,16,o),
(36,0,o),
(58,0,c),
(79,0,l)
);
},
{
closed = 1;
nodes = (
(330,0,ls),
(350,0,o),
(355,13,o),
(354,25,cs),
(353,37,o),
(347,50,o),
(327,50,cs),
(72,50,l),
(75,0,l)
);
}
);
width = 445;
},
{
layerId = m002;
shapes = (
{
closed = 1;
nodes = (
(179,49,l),
(229,112,o),
(339,251,o),
(350,264,cs),
(464,417,o),
(473,491,o),
(378,547,cs),
(300,593,o),
(174,558,o),
(114,504,cs),
(82,476,o),
(89,454,o),
(108,434,cs),
(121,421,o),
(151,413,o),
(187,443,cs),
(230,479,o),
(302,493,o),
(335,473,cs),
(363,457,o),
(330,398,o),
(287,343,cs),
(263,313,o),
(174,205,o),
(58,65,cs),
(30,29,o),
(57,0,o),
(97,0,cs),
(140,0,l)
);
},
{
closed = 1;
nodes = (
(352,0,ls),
(382,0,o),
(401,14,o),
(399,41,cs),
(397,65,o),
(378,86,o),
(346,86,cs),
(90,86,l),
(96,0,l)
);
}
);
width = 495;
}
);
unicode = 50;
},
{
glyphname = three;
lastChange = "2022-03-04 18:35:51 +0000";
layers = (
{
layerId = m01;
shapes = (
{
closed = 1;
nodes = (
(172,296,o),
(210,305,o),
(238,305,cs),
(297,305,o),
(318,266,o),
(321,225,cs),
(328,125,o),
(216,47,o),
(128,47,cs),
(104,47,o),
(81,53,o),
(63,66,cs),
(38,84,o),
(25,72,o),
(20,65,cs),
(16,58,o),
(12,45,o),
(38,25,cs),
(64,5,o),
(96,-4,o),
(130,-4,cs),
(244,-4,o),
(380,98,o),
(371,226,cs),
(366,303,o),
(311,354,o),
(228,354,cs),
(192,354,o),
(151,345,o),
(106,324,c),
(126,275,l)
);
},
{
closed = 1;
nodes = (
(241,355,o),
(353,437,o),
(349,499,cs),
(346,542,o),
(305,568,o),
(246,568,cs),
(198,568,o),
(137,551,o),
(80,511,cs),
(56,495,o),
(63,478,o),
(68,470,cs),
(75,460,o),
(91,455,o),
(104,464,cs),
(162,505,o),
(218,522,o),
(255,522,cs),
(282,522,o),
(298,513,o),
(299,499,cs),
(301,466,o),
(173,368,o),
(93,316,cs),
(77,305,o),
(81,288,o),
(85,280,cs),
(91,270,o),
(110,263,o),
(124,273,cs)
);
}
);
width = 445;
},
{
layerId = m002;
shapes = (
{
closed = 1;
nodes = (
(214,279,o),
(233,282,o),
(261,282,cs),
(300,282,o),
(318,262,o),
(314,228,cs),
(305,145,o),
(219,86,o),
(144,86,cs),
(126,86,o),
(113,90,o),
(99,100,cs),
(66,124,o),
(32,113,o),
(22,93,cs),
(13,76,o),
(12,54,o),
(47,28,cs),
(75,7,o),
(112,-4,o),
(149,-4,cs),
(269,-4,o),
(397,96,o),
(411,229,cs),
(420,313,o),
(357,379,o),
(265,379,cs),
(222,379,o),
(172,366,o),
(121,339,c),
(160,250,l)
);
},
{
closed = 1;
nodes = (
(277,334,o),
(382,410,o),
(390,481,cs),
(397,535,o),
(334,568,o),
(266,568,cs),
(212,568,o),
(153,550,o),
(95,510,cs),
(64,489,o),
(67,463,o),
(80,445,cs),
(93,423,o),
(122,424,o),
(144,439,cs),
(197,476,o),
(246,488,o),
(277,488,cs),
(284,488,o),
(294,487,o),
(293,481,cs),
(291,465,o),
(183,381,o),
(110,333,cs),
(84,316,o),
(85,290,o),
(96,270,cs),
(109,249,o),
(143,237,o),
(169,256,cs)
);
}
);
width = 495;
}
);
unicode = 51;
},
{
glyphname = four;
lastChange = "2022-03-04 18:35:51 +0000";
layers = (
{
layerId = m01;
shapes = (
{
closed = 1;
nodes = (
(150,558,o),
(137,568,o),
(125,568,cs),
(113,568,o),
(100,562,o),
(98,544,cs),
(56,159,ls),
(55,147,o),
(65,135,o),
(83,135,cs),
(100,135,o),
(106,148,o),
(107,160,cs),
(148,540,ls)
);
},
{
closed = 1;
nodes = (
(280,299,o),
(268,309,o),
(256,311,cs),
(243,313,o),
(230,306,o),
(228,289,cs),
(199,31,ls),
(196,11,o),
(208,1,o),
(221,0,cs),
(233,-1,o),
(247,6,o),
(249,26,cs),
(278,282,ls)
);
},
{
closed = 1;
nodes = (
(383,135,ls),
(399,135,o),
(408,146,o),
(407,158,cs),
(406,170,o),
(395,180,o),
(379,180,cs),
(80,180,l),
(84,135,l)
);
}
);
width = 445;
},
{
layerId = m002;
shapes = (
{
closed = 1;
nodes = (
(209,551,o),
(182,568,o),
(156,568,cs),
(133,568,o),
(108,555,o),
(105,527,cs),
(67,170,ls),
(65,145,o),
(87,122,o),
(119,122,cs),
(145,122,o),
(165,140,o),
(168,164,cs),
(206,519,ls)
);
},
{
closed = 1;
nodes = (
(320,308,o),
(308,326,o),
(284,331,cs),
(260,335,o),
(241,320,o),
(238,292,cs),
(212,59,ls),
(208,26,o),
(220,0,o),
(246,0,cs),
(274,0,o),
(289,16,o),
(292,44,cs),
(317,279,ls)
);
},
{
closed = 1;
nodes = (
(401,122,ls),
(429,122,o),
(449,143,o),
(447,168,cs),
(446,192,o),
(423,212,o),
(395,212,cs),
(112,212,l),
(118,122,l)
);
}
);
width = 495;
}
);
unicode = 52;
},
{
glyphname = five;
lastChange = "2022-03-04 18:35:51 +0000";
layers = (
{
layerId = m01;
shapes = (
{
closed = 1;
nodes = (
(139,299,o),
(167,304,o),
(192,304,cs),
(271,304,o),
(308,252,o),
(311,211,cs),
(316,149,o),
(247,47,o),
(150,47,cs),
(125,47,o),
(102,54,o),
(87,67,cs),
(80,74,o),
(73,76,o),
(66,76,cs),
(53,76,o),
(42,67,o),
(43,54,cs),
(44,46,o),
(48,37,o),
(58,28,cs),
(80,8,o),
(114,-3,o),
(153,-3,cs),
(284,-3,o),
(367,125,o),
(361,212,cs),
(356,287,o),
(287,354,o),
(185,354,cs),
(157,354,o),
(130,349,o),
(95,337,c),
(103,288,l)
);
},
{
closed = 1;
nodes = (
(126,568,l),
(116,568,o),
(108,566,o),
(104,562,cs),
(99,558,o),
(95,551,o),
(94,541,cs),
(69,310,ls),
(67,295,o),
(81,286,o),
(94,286,cs),
(106,286,o),
(118,294,o),
(120,310,cs),
(145,541,l)
);
},
{
closed = 1;
nodes = (
(372,523,ls),
(392,523,o),
(398,533,o),
(397,545,cs),
(396,557,o),
(389,568,o),
(369,568,cs),
(125,568,l),
(128,523,l)
);
}
);
width = 445;
},
{
layerId = m002;
shapes = (
{
closed = 1;
nodes = (
(196,281,o),
(200,281,o),
(227,281,cs),
(287,281,o),
(308,248,o),
(310,215,cs),
(314,164,o),
(262,83,o),
(184,83,cs),
(166,83,o),
(151,86,o),
(140,93,cs),
(128,101,o),
(118,110,o),
(105,110,cs),
(80,110,o),
(58,97,o),
(60,72,cs),
(61,58,o),
(68,45,o),
(83,31,cs),
(108,8,o),
(148,-3,o),
(189,-3,cs),
(329,-3,o),
(416,125,o),
(410,216,cs),
(404,298,o),
(329,372,o),
(218,372,cs),
(184,372,o),
(148,364,o),
(108,348,c),
(145,265,l)
);
},
{
closed = 1;
nodes = (
(179,571,l),
(157,571,o),
(136,571,o),
(126,562,cs),
(116,554,o),
(111,543,o),
(109,528,cs),
(85,312,ls),
(81,281,o),
(112,264,o),
(136,264,cs),
(158,264,o),
(184,281,o),
(187,304,cs),
(210,529,l)
);
},
{
closed = 1;
nodes = (
(399,487,ls),
(431,487,o),
(447,505,o),
(445,529,cs),
(443,556,o),
(423,571,o),
(393,571,cs),
(177,571,l),
(168,487,l)
);
}
);
width = 495;
}
);
unicode = 53;
},
{
glyphname = six;
lastChange = "2022-03-04 18:35:51 +0000";
layers = (
{
layerId = m01;
shapes = (
{
closed = 1;
nodes = (
(111,209,o),
(140,288,o),
(203,387,cs),
(227,425,o),
(270,471,o),
(341,523,cs),
(352,530,o),
(355,540,o),
(355,548,cs),
(353,559,o),
(344,568,o),
(331,568,cs),
(325,568,o),
(318,566,o),
(311,562,cs),
(266,535,o),
(188,460,o),
(157,412,cs),
(96,316,o),
(62,213,o),
(69,113,c),
(118,113,l)
);
},
{
closed = 1;
nodes = (
(73,53,o),
(125,0,o),
(193,0,cs),
(295,0,o),
(393,149,o),
(385,257,cs),
(381,321,o),
(340,353,o),
(268,353,cs),
(181,353,o),
(124,306,o),
(93,244,c),
(69,114,l)
);
},
{
closed = 1;
nodes = (
(155,50,o),
(122,78,o),
(118,135,cs),
(112,215,o),
(167,303,o),
(270,303,cs),
(311,303,o),
(333,289,o),
(335,251,cs),
(341,173,o),
(258,50,o),
(188,50,cs)
);
}
);
width = 445;
},
{
layerId = m002;
shapes = (
{
closed = 1;
nodes = (
(162,195,o),
(206,274,o),
(267,371,cs),
(291,407,o),
(329,447,o),
(392,494,cs),
(409,506,o),
(416,521,o),
(414,537,cs),
(412,559,o),
(391,576,o),
(366,576,cs),
(356,576,o),
(345,573,o),
(334,568,c),
(288,540,o),
(212,467,o),
(183,421,cs),
(118,319,o),
(89,279,o),
(87,118,c),
(182,114,l)
);
},
{
closed = 1;
nodes = (
(79,84,o),
(142,-1,o),
(223,-1,cs),
(330,-1,o),
(422,143,o),
(415,247,cs),
(410,316,o),
(362,354,o),
(286,354,cs),
(195,354,o),
(121,308,o),
(109,243,cs),
(87,126,ls)
);
},
{
closed = 1;
nodes = (
(197,87,o),
(183,99,o),
(180,140,cs),
(176,204,o),
(213,266,o),
(290,266,cs),
(313,266,o),
(320,260,o),
(321,242,cs),
(325,180,o),
(263,87,o),
(215,87,cs)
);
}
);
width = 495;
}
);
unicode = 54;
},
{
glyphname = seven;
lastChange = "2022-03-04 18:35:51 +0000";
layers = (
{
layerId = m01;
shapes = (
{
closed = 1;
nodes = (
(353,556,o),
(346,568,o),
(326,568,cs),
(315,568,o),
(304,560,o),
(303,549,cs),
(246,26,ls),
(244,8,o),
(256,0,o),
(269,0,cs),
(281,0,o),
(294,8,o),
(296,26,cs),
(352,544,ls)
);
},
{
closed = 1;
nodes = (
(327,568,l),
(80,568,ls),
(62,568,o),
(54,557,o),
(55,546,cs),
(56,534,o),
(65,523,o),
(83,523,cs),
(330,523,l)
);
}
);
width = 445;
},
{
layerId = m002;
shapes = (
{
closed = 1;
nodes = (
(395,551,o),
(385,568,o),
(342,568,cs),
(320,568,o),
(298,558,o),
(295,537,cs),
(244,50,ls),
(241,20,o),
(264,0,o),
(291,0,cs),
(314,0,o),
(338,15,o),
(341,42,cs),
(392,524,ls)
);
},
{
closed = 1;
nodes = (
(343,568,l),
(110,568,ls),
(80,568,o),
(61,551,o),
(63,527,cs),
(65,503,o),
(86,488,o),
(116,488,cs),
(349,488,l)
);
}
);
width = 495;
}
);
unicode = 55;
},
{
glyphname = eight;
lastChange = "2022-03-04 18:35:51 +0000";
layers = (
{
layerId = m01;
shapes = (
{
closed = 1;
nodes = (
(161,325,l),
(76,259,o),
(56,185,o),
(60,132,cs),
(64,74,o),
(98,-4,o),
(195,-4,cs),
(299,-4,o),
(349,84,o),
(345,149,cs),
(340,208,o),
(290,266,o),
(244,307,cs),
(228,321,l)
);
},
{
closed = 1;
nodes = (
(246,238,o),
(291,190,o),
(294,149,cs),
(297,105,o),
(255,45,o),
(198,45,cs),
(148,45,o),
(112,90,o),
(108,139,cs),
(106,178,o),
(123,231,o),
(196,285,c),
(209,273,ls)
);
},
{
closed = 1;
nodes = (
(307,368,o),
(384,431,o),
(380,488,cs),
(376,542,o),
(300,568,o),
(241,568,cs),
(168,568,o),
(84,529,o),
(90,442,cs),
(94,386,o),
(134,350,o),
(161,323,c),
(203,349,l),
(178,371,o),
(144,405,o),
(141,447,cs),
(137,504,o),
(194,518,o),
(235,518,cs),
(271,518,o),
(332,507,o),
(333,488,cs),
(335,462,o),
(232,369,o),
(160,322,c),
(230,312,l)
);
}
);
width = 445;
},
{
layerId = m002;
shapes = (
{
closed = 1;
nodes = (
(181,344,l),
(88,275,o),
(65,197,o),
(69,141,cs),
(73,80,o),
(113,-4,o),
(224,-4,cs),
(339,-4,o),
(393,87,o),
(388,157,cs),
(384,219,o),
(333,280,o),
(286,321,cs),
(262,341,l)
);
},
{
closed = 1;
nodes = (
(242,236,o),
(288,191,o),
(291,148,cs),
(293,114,o),
(264,81,o),
(223,81,cs),
(190,81,o),
(168,108,o),
(166,148,cs),
(164,177,o),
(174,213,o),
(223,254,c),
(229,249,ls)
);
},
{
closed = 1;
nodes = (
(342,343,o),
(427,405,o),
(422,472,cs),
(417,539,o),
(327,569,o),
(265,569,cs),
(188,569,o),
(92,526,o),
(99,428,cs),
(104,355,o),
(165,312,o),
(188,292,c),
(268,341,l),
(248,362,o),
(200,390,o),
(197,433,cs),
(194,470,o),
(220,488,o),
(255,488,cs),
(287,488,o),
(326,486,o),
(327,471,cs),
(328,456,o),
(251,391,o),
(194,355,c),
(264,287,l)
);
}
);
width = 495;
}
);
unicode = 56;
},
{
glyphname = nine;
lastChange = "2022-03-05 20:03:06 +0000";
layers = (
{
layerId = m01;
shapes = (
{
closed = 1;
nodes = (
(389,558,o),
(382,568,o),
(370,568,c),
(339,568,l),
(282,24,ls),
(280,8,o),
(293,0,o),
(305,0,cs),
(318,0,o),
(330,8,o),
(332,24,cs),
(388,546,ls)
);
},
{
closed = 1;
nodes = (
(337,470,l),
(329,470,l),
(320,381,o),
(235,264,o),
(198,264,cs),
(170,264,o),
(161,295,o),
(162,323,cs),
(164,399,o),
(192,518,o),
(266,518,cs),
(342,518,l),
(347,568,l),
(266,568,ls),
(153,568,o),
(113,425,o),
(112,313,cs),
(112,238,o),
(157,214,o),
(198,214,cs),
(242,214,o),
(288,259,o),
(322,315,c)
);
}
);
width = 445;
},
{
layerId = m002;
shapes = (
{
closed = 1;
nodes = (
(431,555,o),
(415,568,o),
(382,568,cs),
(330,568,l),
(275,43,ls),
(272,11,o),
(301,-5,o),
(323,-5,cs),
(346,-5,o),
(372,10,o),
(375,36,cs),
(428,529,ls)
);
},
{
closed = 1;
nodes = (
(334,456,l),
(325,456,l),
(320,402,o),
(259,301,o),
(231,301,cs),
(217,301,o),
(208,317,o),
(210,336,cs),
(215,382,o),
(225,482,o),
(284,482,c),
(335,482,l),
(344,568,l),
(291,568,l),
(161,568,o),
(133,451,o),
(121,338,cs),
(110,242,o),
(172,214,o),
(221,214,cs),
(255,214,o),
(287,229,o),
(314,253,c)
);
}
);
width = 495;
}
);
unicode = 57;
},
{
glyphname = zero.c2sc;
lastChange = "2022-03-05 20:14:59 +0000";
layers = (
{
layerId = m01;
shapes = (
{
closed = 1;
nodes = (
(211,0,o),
(314,157,o),
(306,276,cs),
(302,328,o),
(277,396,o),
(199,396,cs),
(67,396,o),
(29,196,o),
(35,115,cs),
(39,61,o),
(66,-1,o),
(123,-1,cs)
);
},
{
closed = 1;
nodes = (
(104,47,o),
(88,67,o),
(85,111,cs),
(80,193,o),
(120,348,o),
(205,348,cs),
(242,348,o),
(253,315,o),
(256,278,cs),
(264,152,o),
(160,47,o),
(120,47,cs)
);
}
);
width = 336;
},
{
layerId = m002;
shapes = (
{
closed = 1;
nodes = (
(248,0,o),
(345,152,o),
(337,267,cs),
(334,319,o),
(305,396,o),
(216,396,cs),
(78,396,o),
(43,201,o),
(48,125,cs),
(52,71,o),
(82,-1,o),
(152,-1,cs)
);
},
{
closed = 1;
nodes = (
(143,87,o),
(139,94,o),
(138,121,cs),
(133,191,o),
(163,308,o),
(224,308,cs),
(238,308,o),
(244,296,o),
(246,269,cs),
(253,166,o),
(172,87,o),
(151,87,c)
);
}
);
width = 379;
}
);
metricLeft = zero;
metricRight = zero;
},
{
glyphname = one.c2sc;
lastChange = "2022-03-04 20:08:11 +0000";
layers = (
{
layerId = m01;
shapes = (
{
closed = 1;
nodes = (
(258,387,o),
(244,396,o),
(232,396,cs),
(220,396,o),
(207,389,o),
(205,373,cs),
(168,26,ls),
(166,8,o),
(180,0,o),
(193,0,cs),
(203,0,o),
(217,5,o),
(219,21,cs),
(256,371,ls)
);
}
);
width = 444;
},
{
layerId = m002;
shapes = (
{
closed = 1;
nodes = (
(303,387,o),
(271,396,o),
(255,396,cs),
(239,396,o),
(208,389,o),
(204,355,cs),
(171,43,ls),
(167,8,o),
(199,0,o),
(216,0,cs),
(230,0,o),
(262,5,o),
(265,38,cs),
(299,353,ls)
);
}
);
width = 487;
}
);
metricLeft = one;
metricRight = one;
},
{
glyphname = two.c2sc;
lastChange = "2022-03-04 20:08:11 +0000";
layers = (
{
layerId = m01;
shapes = (
{
closed = 1;
nodes = (
(110,34,l),
(144,79,o),
(224,179,o),
(233,190,cs),
(313,295,o),
(318,347,o),
(256,382,cs),
(204,413,o),
(120,389,o),
(79,352,cs),
(61,335,o),
(64,323,o),
(73,313,cs),
(81,305,o),
(98,302,o),
(117,319,cs),
(149,347,o),
(207,358,o),
(235,341,cs),
(263,325,o),
(235,275,o),
(204,234,cs),
(188,213,o),
(123,135,o),
(40,34,cs),
(24,15,o),
(38,0,o),
(59,0,cs),
(76,0,l)
);
},
{
closed = 1;
nodes = (
(242,0,ls),
(262,0,o),
(267,14,o),
(266,24,cs),
(266,34,o),
(259,48,o),
(239,48,cs),
(68,48,l),
(71,0,l)
);
}
);
width = 357;
},
{
layerId = m002;
shapes = (
{
closed = 1;
nodes = (
(160,38,l),
(191,78,o),
(262,167,o),
(269,176,cs),
(347,278,o),
(353,339,o),
(281,381,cs),
(224,414,o),
(137,389,o),
(95,351,cs),
(69,327,o),
(72,305,o),
(89,285,cs),
(104,269,o),
(139,264,o),
(164,288,cs),
(188,309,o),
(223,315,o),
(234,308,cs),
(243,303,o),
(228,279,o),
(203,244,cs),
(188,225,o),
(131,157,o),
(58,68,cs),
(32,35,o),
(58,0,o),
(97,0,cs),
(122,0,l)
);
},
{
closed = 1;
nodes = (
(259,0,ls),
(289,0,o),
(305,22,o),
(304,44,cs),
(302,66,o),
(283,88,o),
(253,88,cs),
(107,88,l),
(113,0,l)
);
}
);
width = 399;
}
);
metricLeft = two;
metricRight = two;
},
{
glyphname = three.c2sc;
lastChange = "2022-03-05 19:40:00 +0000";
layers = (
{
layerId = m01;
shapes = (
{
closed = 1;
nodes = (
(127,196,o),
(152,203,o),
(171,203,cs),
(206,203,o),
(217,183,o),
(219,157,cs),
(223,93,o),
(154,45,o),
(97,45,cs),
(82,45,o),
(71,48,o),
(59,57,cs),
(38,71,o),
(23,59,o),
(20,54,cs),
(15,47,o),
(10,36,o),
(34,18,cs),
(52,4,o),
(76,-3,o),
(100,-3,cs),
(180,-3,o),
(275,68,o),
(269,157,cs),
(265,213,o),
(226,250,o),
(165,250,cs),
(138,250,o),
(106,243,o),
(74,226,c),
(92,180,l)
);
},
{
closed = 1;
nodes = (
(179,239,o),
(257,297,o),
(254,342,cs),
(252,375,o),
(217,396,o),
(175,396,cs),
(142,396,o),
(99,383,o),
(61,357,cs),
(42,344,o),
(46,328,o),
(52,321,c),
(56,311,o),
(74,304,o),
(86,313,cs),
(125,341,o),
(159,351,o),
(182,351,cs),
(198,351,o),
(204,348,o),
(204,342,cs),
(205,324,o),
(123,258,o),
(69,223,cs),
(55,213,o),
(59,198,o),
(62,191,cs),
(66,182,o),
(86,173,o),
(100,183,cs)
);
}
);
width = 350;
},
{
layerId = m002;
shapes = (
{
closed = 1;
nodes = (
(141,174,o),
(160,181,o),
(175,181,cs),
(188,181,o),
(195,176,o),
(196,159,cs),
(199,119,o),
(154,86,o),
(118,86,cs),
(102,86,o),
(97,90,o),
(89,95,cs),
(64,112,o),
(32,99,o),
(23,84,cs),
(12,66,o),
(9,43,o),
(40,19,cs),
(60,4,o),
(89,-4,o),
(117,-4,cs),
(200,-4,o),
(296,71,o),
(290,163,cs),
(285,225,o),
(240,264,o),
(172,264,cs),
(140,264,o),
(105,253,o),
(75,239,c),
(134,169,l)
);
},
{
closed = 1;
nodes = (
(203,218,o),
(281,271,o),
(277,325,cs),
(275,364,o),
(236,396,o),
(180,396,cs),
(146,396,o),
(102,382,o),
(66,357,cs),
(39,339,o),
(40,314,o),
(50,296,cs),
(62,274,o),
(92,269,o),
(113,285,cs),
(145,308,o),
(169,322,o),
(181,325,cs),
(188,327,o),
(190,325,o),
(186,318,cs),
(180,307,o),
(124,265,o),
(74,239,cs),
(53,228,o),
(51,204,o),
(59,186,cs),
(69,164,o),
(108,150,o),
(132,168,cs)
);
}
);
width = 383;
},
{
associatedMasterId = m01;
attr = {
axisRules = (
{
max = 800;
min = 600;
}
);
};
layerId = "35E1D01B-5AD9-4CD1-B5CB-DB0E6C87546B";
name = "28 Feb 22, 07:47";
shapes = (
{
closed = 1;
nodes = (
(138,196,o),
(163,203,o),
(182,203,cs),
(217,203,o),
(227,183,o),
(227,157,cs),
(227,93,o),
(154,45,o),
(97,45,cs),
(82,45,o),
(71,48,o),
(60,57,cs),
(40,71,o),
(24,59,o),
(21,54,cs),
(15,47,o),
(10,36,o),
(32,18,cs),
(49,4,o),
(73,-3,o),
(97,-3,cs),
(177,-3,o),
(277,68,o),
(277,157,cs),
(277,213,o),
(240,250,o),
(179,250,cs),
(152,250,o),
(120,243,o),
(87,226,c),
(102,180,l)
);
},
{
closed = 1;
nodes = (
(193,239,o),
(275,297,o),
(275,342,cs),
(275,375,o),
(242,396,o),
(200,396,cs),
(167,396,o),
(123,383,o),
(83,357,cs),
(63,344,o),
(66,328,o),
(71,321,c),
(75,311,o),
(92,304,o),
(105,313,cs),
(146,341,o),
(181,351,o),
(204,351,cs),
(220,351,o),
(225,348,o),
(225,342,cs),
(225,324,o),
(138,258,o),
(82,223,cs),
(67,213,o),
(70,198,o),
(72,191,cs),
(76,182,o),
(95,173,o),
(110,183,cs)
);
}
);
visible = 1;
width = 357;
},
{
associatedMasterId = m002;
attr = {
axisRules = (
{
max = 800;
min = 600;
}
);
};
layerId = "1F5825D2-B087-4D37-A840-724583DD09F8";
name = "28 Feb 22, 07:47";
shapes = (
{
closed = 1;
nodes = (
(148,174,o),
(168,181,o),
(183,181,cs),
(196,181,o),
(202,176,o),
(202,159,cs),
(202,119,o),
(155,86,o),
(119,86,cs),
(103,86,o),
(98,90,o),
(91,95,cs),
(67,112,o),
(34,99,o),
(24,84,cs),
(12,66,o),
(7,43,o),
(36,19,cs),
(55,4,o),
(84,-4,o),
(112,-4,cs),
(195,-4,o),
(296,71,o),
(296,163,cs),
(296,225,o),
(253,258,o),
(185,258,cs),
(153,258,o),
(118,247,o),
(87,233,c),
(141,169,l)
);
},
{
closed = 1;
nodes = (
(219,208,o),
(295,271,o),
(295,325,cs),
(295,364,o),
(259,396,o),
(203,396,cs),
(169,396,o),
(124,382,o),
(86,357,cs),
(58,339,o),
(57,314,o),
(66,296,cs),
(76,274,o),
(102,276,o),
(124,293,cs),
(158,319,o),
(178,328,o),
(192,328,cs),
(199,328,o),
(210,322,o),
(205,315,cs),
(186,286,o),
(138,259,o),
(86,233,cs),
(64,222,o),
(60,198,o),
(67,180,cs),
(75,158,o),
(113,155,o),
(139,168,cs)
);
}
);
visible = 1;
width = 388;
}
);
metricLeft = three;
metricRight = three;
},
{
glyphname = four.c2sc;
lastChange = "2022-03-04 18:35:51 +0000";
layers = (
{
layerId = m01;
shapes = (
{
closed = 1;
nodes = (
(133,387,o),
(119,396,o),
(106,396,cs),
(96,396,o),
(83,390,o),
(81,374,cs),
(52,116,l),
(52,103,o),
(62,91,o),
(79,91,cs),
(95,91,o),
(102,103,o),
(102,114,c),
(131,369,ls)
);
},
{
closed = 1;
nodes = (
(219,211,o),
(208,221,o),
(197,224,cs),
(184,226,o),
(170,219,o),
(168,202,cs),
(148,29,ls),
(146,11,o),
(158,0,o),
(172,0,cs),
(182,0,o),
(197,6,o),
(198,23,cs),
(217,195,ls)
);
},
{
closed = 1;
nodes = (
(281,91,ls),
(297,91,o),
(306,103,o),
(305,114,cs),
(304,125,o),
(294,135,o),
(278,135,cs),
(69,135,l),
(72,91,l)
);
}
);
width = 348;
},
{
layerId = m002;
shapes = (
{
closed = 1;
nodes = (
(188,376,o),
(161,396,o),
(135,396,cs),
(114,396,o),
(92,383,o),
(89,358,cs),
(63,129,ls),
(60,103,o),
(84,80,o),
(113,80,cs),
(139,80,o),
(155,99,o),
(157,122,cs),
(184,345,ls)
);
},
{
closed = 1;
nodes = (
(288,218,o),
(267,241,o),
(247,243,cs),
(222,246,o),
(193,235,o),
(190,206,cs),
(172,53,ls),
(169,23,o),
(192,0,o),
(218,0,cs),
(239,0,o),
(264,12,o),
(267,39,cs),
(285,191,ls)
);
},
{
closed = 1;
nodes = (
(312,80,ls),
(339,80,o),
(359,101,o),
(357,124,cs),
(356,147,o),
(333,165,o),
(306,165,cs),
(104,165,l),
(110,80,l)
);
}
);
width = 410;
}
);
metricLeft = four;
metricRight = four;
},
{
glyphname = five.c2sc;
lastChange = "2022-03-04 20:08:11 +0000";
layers = (
{
layerId = m01;
shapes = (
{
closed = 1;
nodes = (
(113,200,o),
(132,204,o),
(151,204,cs),
(199,204,o),
(220,174,o),
(222,149,cs),
(224,109,o),
(182,44,o),
(122,44,cs),
(106,44,o),
(94,50,o),
(85,57,cs),
(79,63,o),
(70,65,o),
(64,65,cs),
(52,65,o),
(41,56,o),
(42,44,cs),
(42,38,o),
(47,29,o),
(55,21,c),
(72,7,o),
(96,-4,o),
(125,-4,cs),
(217,-4,o),
(276,89,o),
(272,150,cs),
(268,203,o),
(218,252,o),
(144,252,cs),
(123,252,o),
(103,248,o),
(76,239,c),
(84,192,l)
);
},
{
closed = 1;
nodes = (
(109,395,l),
(103,398,o),
(90,394,o),
(86,389,c),
(80,386,o),
(77,379,o),
(76,372,c),
(59,216,ls),
(57,202,o),
(70,193,o),
(85,193,cs),
(96,193,o),
(109,200,o),
(110,214,cs),
(126,371,l)
);
},
{
closed = 1;
nodes = (
(271,352,ls),
(289,352,o),
(296,362,o),
(295,373,cs),
(294,383,o),
(287,396,o),
(268,396,cs),
(96,396,l),
(99,352,l)
);
}
);
width = 362;
},
{
layerId = m002;
shapes = (
{
closed = 1;
nodes = (
(152,177,o),
(164,183,o),
(187,180,cs),
(209,177,o),
(218,171,o),
(219,151,cs),
(221,126,o),
(194,85,o),
(164,85,cs),
(145,85,o),
(140,89,o),
(133,93,cs),
(126,98,o),
(114,103,o),
(96,103,cs),
(80,103,o),
(58,85,o),
(59,67,cs),
(60,52,o),
(65,37,o),
(78,26,cs),
(96,10,o),
(126,-4,o),
(160,-4,cs),
(257,-4,o),
(318,92,o),
(313,156,cs),
(309,215,o),
(253,269,o),
(174,269,cs),
(147,269,o),
(118,261,o),
(112,259,c),
(133,172,l)
);
},
{
closed = 1;
nodes = (
(162,390,l),
(140,401,o),
(116,396,o),
(105,385,cs),
(97,378,o),
(91,367,o),
(90,356,cs),
(75,218,ls),
(72,191,o),
(96,171,o),
(124,171,cs),
(145,171,o),
(168,185,o),
(170,208,cs),
(185,355,l)
);
},
{
closed = 1;
nodes = (
(289,311,ls),
(318,311,o),
(335,330,o),
(333,353,cs),
(332,375,o),
(313,396,o),
(283,396,cs),
(137,396,l),
(143,311,l)
);
}
);
width = 403;
}
);
metricLeft = five;
metricRight = five;
},
{
glyphname = six.c2sc;
lastChange = "2022-03-04 20:08:11 +0000";
layers = (
{
layerId = m01;
shapes = (
{
closed = 1;
nodes = (
(107,138,o),
(127,191,o),
(169,259,cs),
(185,285,o),
(213,319,o),
(260,353,cs),
(269,358,o),
(272,367,o),
(272,376,cs),
(271,387,o),
(261,396,o),
(247,396,cs),
(242,396,o),
(236,395,o),
(230,391,cs),
(198,372,o),
(146,316,o),
(124,284,cs),
(82,216,o),
(58,142,o),
(65,72,c),
(114,72,l)
);
},
{
closed = 1;
nodes = (
(67,36,o),
(105,-4,o),
(156,-4,cs),
(229,-4,o),
(297,100,o),
(292,175,cs),
(288,223,o),
(258,247,o),
(206,247,cs),
(144,247,o),
(101,212,o),
(80,169,c),
(64,81,l)
);
},
{
closed = 1;
nodes = (
(132,44,o),
(115,58,o),
(112,94,cs),
(109,145,o),
(143,199,o),
(208,199,cs),
(232,199,o),
(242,193,o),
(243,172,cs),
(247,121,o),
(194,44,o),
(152,44,cs)
);
}
);
width = 360;
},
{
layerId = m002;
shapes = (
{
closed = 1;
nodes = (
(164,133,o),
(184,175,o),
(225,242,cs),
(239,264,o),
(260,286,o),
(299,314,cs),
(312,323,o),
(320,338,o),
(319,354,cs),
(318,376,o),
(296,396,o),
(271,396,cs),
(262,396,o),
(252,393,o),
(242,386,cs),
(209,366,o),
(163,320,o),
(143,290,cs),
(98,219,o),
(80,158,o),
(86,92,c),
(175,92,l)
);
},
{
closed = 1;
nodes = (
(88,47,o),
(132,-4,o),
(193,-4,cs),
(275,-4,o),
(342,105,o),
(336,180,cs),
(332,236,o),
(293,267,o),
(233,267,cs),
(166,267,o),
(120,226,o),
(100,183,c),
(85,97,l)
);
},
{
closed = 1;
nodes = (
(184,84,o),
(178,94,o),
(177,113,cs),
(175,147,o),
(195,179,o),
(229,179,cs),
(241,179,o),
(244,175,o),
(245,163,cs),
(247,133,o),
(214,84,o),
(194,84,cs)
);
}
);
width = 423;
}
);
metricLeft = six;
metricRight = six;
},
{
glyphname = seven.c2sc;
lastChange = "2022-03-04 20:08:07 +0000";
layers = (
{
layerId = m01;
shapes = (
{
closed = 1;
nodes = (
(254,383,o),
(246,396,o),
(226,396,cs),
(217,396,o),
(205,389,o),
(204,377,cs),
(166,26,ls),
(164,8,o),
(176,0,o),
(189,0,cs),
(200,0,o),
(214,7,o),
(215,24,cs),
(252,372,l)
);
},
{
closed = 1;
nodes = (
(235,396,l),
(61,396,ls),
(44,396,o),
(36,384,o),
(37,374,cs),
(38,363,o),
(47,351,o),
(64,351,cs),
(238,351,l)
);
}
);
width = 363;
},
{
layerId = m002;
shapes = (
{
closed = 1;
nodes = (
(287,372,o),
(268,396,o),
(235,396,cs),
(215,396,o),
(194,382,o),
(192,359,cs),
(159,50,ls),
(155,19,o),
(179,0,o),
(205,0,cs),
(226,0,o),
(249,14,o),
(252,40,cs),
(285,348,ls)
);
},
{
closed = 1;
nodes = (
(236,396,l),
(89,396,ls),
(61,396,o),
(43,376,o),
(44,354,cs),
(46,331,o),
(67,310,o),
(95,310,cs),
(242,310,l)
);
}
);
width = 407;
}
);
metricLeft = seven;
metricRight = seven;
},
{
glyphname = eight.c2sc;
lastChange = "2022-03-04 20:08:11 +0000";
layers = (
{
layerId = m01;
shapes = (
{
closed = 1;
nodes = (
(127,231,l),
(66,184,o),
(52,132,o),
(54,94,cs),
(57,53,o),
(83,-4,o),
(153,-4,cs),
(228,-4,o),
(265,59,o),
(262,106,cs),
(259,147,o),
(223,187,o),
(191,217,cs),
(178,229,l)
);
},
{
closed = 1;
nodes = (
(182,161,o),
(210,131,o),
(212,106,cs),
(213,79,o),
(188,44,o),
(154,44,cs),
(125,44,o),
(105,68,o),
(103,99,cs),
(101,124,o),
(111,154,o),
(154,187,c),
(157,184,ls)
);
},
{
closed = 1;
nodes = (
(233,246,o),
(288,291,o),
(285,333,cs),
(282,374,o),
(225,396,o),
(183,396,cs),
(131,396,o),
(70,366,o),
(75,302,cs),
(78,259,o),
(112,230,o),
(130,214,c),
(170,239,l),
(153,254,o),
(127,275,o),
(125,306,cs),
(122,339,o),
(154,348,o),
(180,348,cs),
(204,348,o),
(237,340,o),
(238,333,cs),
(239,317,o),
(164,252,o),
(119,227,c),
(178,208,l)
);
}
);
width = 366;
},
{
layerId = m002;
shapes = (
{
closed = 1;
nodes = (
(148,245,l),
(82,197,o),
(63,145,o),
(66,106,cs),
(69,64,o),
(97,-3,o),
(177,-3,cs),
(258,-3,o),
(296,66,o),
(293,117,cs),
(290,160,o),
(249,197,o),
(219,225,cs),
(201,242,l)
);
},
{
closed = 1;
nodes = (
(170,166,o),
(211,137,o),
(213,117,cs),
(214,99,o),
(194,78,o),
(175,78,cs),
(161,78,o),
(147,89,o),
(145,110,cs),
(144,129,o),
(158,147,o),
(176,161,c),
(175,162,ls)
);
},
{
closed = 1;
nodes = (
(250,223,o),
(317,267,o),
(314,317,cs),
(310,369,o),
(245,396,o),
(200,396,cs),
(146,396,o),
(79,361,o),
(84,290,cs),
(87,243,o),
(124,212,o),
(153,186,c),
(219,225,l),
(205,248,o),
(165,266,o),
(163,294,cs),
(162,308,o),
(179,325,o),
(199,325,cs),
(214,325,o),
(232,322,o),
(233,316,cs),
(233,309,o),
(205,290,o),
(123,225,c),
(199,187,l)
);
}
);
width = 403;
}
);
metricLeft = eight;
metricRight = eight;
},
{
glyphname = nine.c2sc;
lastChange = "2022-03-05 20:13:25 +0000";
layers = (
{
layerId = m01;
shapes = (
{
closed = 1;
nodes = (
(289,346,l),
(268,297,o),
(201,191,o),
(170,191,cs),
(132,191,o),
(160,291,o),
(174,315,cs),
(191,343,o),
(222,348,o),
(244,348,c),
(301,348,l),
(306,396,l),
(240,396,l),
(199,396,o),
(158,383,o),
(133,343,cs),
(98,282,o),
(72,143,o),
(170,143,cs),
(216,143,o),
(264,195,o),
(294,250,c),
(301,346,l)
);
},
{
closed = 1;
nodes = (
(344,387,o),
(334,396,o),
(322,396,cs),
(294,396,l),
(255,23,ls),
(253,7,o),
(267,0,o),
(280,0,cs),
(291,0,o),
(303,6,o),
(305,21,cs),
(342,372,ls)
);
}
);
width = 417;
},
{
layerId = m002;
shapes = (
{
closed = 1;
nodes = (
(285,315,l),
(269,285,o),
(240,248,o),
(228,236,cs),
(196,197,o),
(184,261,o),
(211,304,cs),
(221,320,o),
(249,318,o),
(259,318,cs),
(293,318,l),
(301,396,l),
(259,396,l),
(218,396,o),
(166,386,o),
(138,343,cs),
(103,279,o),
(87,135,o),
(192,135,cs),
(221,135,o),
(252,155,o),
(279,183,c),
(293,315,l)
);
},
{
closed = 1;
nodes = (
(380,376,o),
(357,396,o),
(332,396,cs),
(289,396,l),
(252,46,ls),
(249,15,o),
(275,0,o),
(298,0,cs),
(318,0,o),
(340,13,o),
(343,37,cs),
(377,348,ls)
);
}
);
width = 463;
}
);
metricLeft = nine;
metricRight = nine;
},
{
glyphname = .notdef;
lastChange = "2022-03-05 17:56:27 +0000";
layers = (
{
layerId = m01;
shapes = (
{
closed = 1;
nodes = (
(450,0,o),
(460,12,o),
(462,27,cs),
(531,673,ls),
(533,689,o),
(525,700,o),
(511,700,cs),
(115,700,ls),
(98,700,o),
(88,689,o),
(86,673,cs),
(17,27,ls),
(15,12,o),
(24,0,o),
(43,0,cs),
(439,0,ls)
);
},
{
closed = 1;
nodes = (
(135,655,l),
(478,655,l),
(414,45,l),
(70,45,l)
);
}
);
width = 511;
},
{
layerId = m002;
shapes = (
{
closed = 1;
nodes = (
(483,0,o),
(504,26,o),
(507,49,cs),
(571,659,ls),
(574,687,o),
(558,700,o),
(521,700,c),
(141,700,l),
(113,700,o),
(93,687,o),
(90,659,cs),
(26,49,ls),
(23,21,o),
(38,0,o),
(77,0,cs),
(458,0,ls)
);
},
{
closed = 1;
nodes = (
(187,605,l),
(464,605,l),
(409,95,l),
(132,95,l)
);
}
);
width = 560;
}
);
metricLeft = N;
metricRight = N;
},
{
glyphname = period;
lastChange = "2022-03-05 17:49:18 +0000";
layers = (
{
layerId = m01;
shapes = (
{
closed = 1;
nodes = (
(75,-30,o),
(92,-12,o),
(90,9,cs),
(89,29,o),
(70,46,o),
(50,46,cs),
(29,46,o),
(14,29,o),
(15,9,cs),
(17,-11,o),
(34,-30,o),
(55,-30,cs)
);
}
);
width = 140;
},
{
layerId = m002;
shapes = (
{
closed = 1;
nodes = (
(113,-30,o),
(137,-4,o),
(135,26,cs),
(133,55,o),
(105,80,o),
(76,80,cs),
(45,80,o),
(23,55,o),
(25,26,cs),
(27,-3,o),
(53,-30,o),
(84,-30,cs)
);
}
);
width = 191;
}
);
metricLeft = n;
metricRight = n;
unicode = 46;
},
{
glyphname = comma;
lastChange = "2022-03-05 17:49:18 +0000";
layers = (
{
layerId = m01;
shapes = (
{
closed = 1;
nodes = (
(69,39,o),
(58,49,o),
(45,50,cs),
(31,52,o),
(19,45,o),
(17,28,cs),
(7,-71,ls),
(5,-89,o),
(16,-99,o),
(28,-101,cs),
(40,-103,o),
(55,-96,o),
(56,-78,cs),
(68,21,ls)
);
}
);
width = 116;
},
{
layerId = m002;
shapes = (
{
closed = 1;
nodes = (
(131,71,o),
(109,91,o),
(81,94,cs),
(56,97,o),
(30,83,o),
(27,54,cs),
(17,-45,ls),
(14,-76,o),
(36,-97,o),
(61,-101,cs),
(85,-105,o),
(114,-90,o),
(117,-60,cs),
(128,39,ls)
);
}
);
width = 182;
}
);
metricLeft = n;
metricRight = n;
unicode = 44;
},
{
glyphname = colon;
lastChange = "2022-03-05 17:49:18 +0000";
layers = (
{
layerId = m01;
shapes = (
{
closed = 1;
nodes = (
(76,-30,o),
(93,-12,o),
(91,9,cs),
(90,29,o),
(71,46,o),
(50,46,cs),
(29,46,o),
(14,29,o),
(15,9,cs),
(17,-11,o),
(34,-30,o),
(55,-30,cs)
);
},
{
closed = 1;
nodes = (
(97,175,o),
(113,194,o),
(112,214,cs),
(111,235,o),
(91,251,o),
(71,251,cs),
(50,251,o),
(36,234,o),
(37,214,cs),
(38,195,o),
(56,175,o),
(77,175,cs)
);
}
);
width = 141;
},
{
layerId = m002;
shapes = (
{
closed = 1;
nodes = (
(135,175,o),
(159,202,o),
(157,232,cs),
(155,261,o),
(127,285,o),
(98,285,cs),
(67,285,o),
(45,259,o),
(47,231,cs),
(49,203,o),
(75,175,o),
(105,175,cs)
);
},
{
closed = 1;
nodes = (
(113,-30,o),
(137,-4,o),
(135,26,cs),
(133,56,o),
(105,80,o),
(75,80,cs),
(44,80,o),
(23,55,o),
(25,26,cs),
(27,-3,o),
(52,-30,o),
(83,-30,cs)
);
}
);
width = 192;
}
);
metricLeft = n;
metricRight = n;
unicode = 58;
},
{
glyphname = semicolon;
lastChange = "2022-03-05 17:49:18 +0000";
layers = (
{
layerId = m01;
shapes = (
{
closed = 1;
nodes = (
(82,39,o),
(71,49,o),
(58,50,cs),
(44,52,o),
(32,45,o),
(30,28,cs),
(20,-71,ls),
(18,-90,o),
(31,-101,o),
(44,-102,cs),
(55,-103,o),
(68,-95,o),
(69,-78,cs),
(81,21,ls)
);
},
{
closed = 1;
nodes = (
(97,175,o),
(113,194,o),
(112,214,cs),
(111,235,o),
(91,251,o),
(71,251,cs),
(50,251,o),
(36,234,o),
(37,214,cs),
(38,195,o),
(56,175,o),
(77,175,cs)
);
}
);
width = 140;
},
{
layerId = m002;
shapes = (
{
closed = 1;
nodes = (
(135,71,o),
(112,91,o),
(84,94,cs),
(59,97,o),
(33,83,o),
(30,54,cs),
(20,-45,ls),
(16,-78,o),
(42,-100,o),
(69,-102,cs),
(92,-104,o),
(117,-89,o),
(120,-60,cs),
(131,39,ls)
);
},
{
closed = 1;
nodes = (
(134,175,o),
(158,203,o),
(156,231,cs),
(154,262,o),
(126,285,o),
(97,285,cs),
(66,285,o),
(45,260,o),
(47,231,cs),
(49,204,o),
(74,175,o),
(105,175,cs)
);
}
);
width = 191;
}
);
metricLeft = n;
metricRight = n;
unicode = 59;
},
{
glyphname = ellipsis;
lastChange = "2022-03-05 17:49:18 +0000";
layers = (
{
layerId = m01;
shapes = (
{
closed = 1;
nodes = (
(295,-30,o),
(312,-12,o),
(310,9,cs),
(309,29,o),
(290,46,o),
(270,46,cs),
(249,46,o),
(234,29,o),
(235,9,cs),
(237,-11,o),
(254,-30,o),
(275,-30,cs)
);
},
{
closed = 1;
nodes = (
(75,-30,o),
(92,-12,o),
(90,9,cs),
(89,29,o),
(70,46,o),
(50,46,cs),
(29,46,o),
(14,29,o),
(15,9,cs),
(17,-11,o),
(34,-30,o),
(55,-30,cs)
);
},
{
closed = 1;
nodes = (
(185,-30,o),
(202,-12,o),
(200,9,cs),
(199,29,o),
(180,46,o),
(160,46,cs),
(139,46,o),
(124,29,o),
(125,9,cs),
(127,-11,o),
(144,-30,o),
(165,-30,cs)
);
}
);
width = 360;
},
{
layerId = m002;
shapes = (
{
closed = 1;
nodes = (
(402,-31,o),
(427,-6,o),
(425,25,cs),
(423,56,o),
(394,79,o),
(365,79,cs),
(337,79,o),
(313,57,o),
(315,25,cs),
(317,-6,o),
(345,-31,o),
(374,-31,cs)
);
},
{
closed = 1;
nodes = (
(112,-31,o),
(137,-6,o),
(135,25,cs),
(133,56,o),
(104,79,o),
(75,79,cs),
(47,79,o),
(23,57,o),
(25,25,cs),
(27,-6,o),
(55,-31,o),
(84,-31,cs)
);
},
{
closed = 1;
nodes = (
(257,-30,o),
(282,-6,o),
(280,25,cs),
(278,56,o),
(249,79,o),
(221,79,cs),
(192,79,o),
(168,56,o),
(170,25,cs),
(172,-6,o),
(200,-30,o),
(229,-30,cs)
);
}
);
width = 482;
}
);
metricLeft = n;
metricRight = n;
unicode = 8230;
},
{
glyphname = exclam;
lastChange = "2022-03-05 17:56:27 +0000";
layers = (
{
layerId = m01;
shapes = (
{
closed = 1;
nodes = (
(140,643,o),
(130,650,o),
(118,650,cs),
(105,650,o),
(90,643,o),
(88,629,cs),
(42,202,ls),
(40,185,o),
(53,176,o),
(65,175,cs),
(77,174,o),
(91,183,o),
(93,202,cs),
(139,629,ls)
);
},
{
closed = 1;
nodes = (
(68,-24,o),
(83,-8,o),
(81,9,cs),
(80,26,o),
(63,41,o),
(45,41,cs),
(27,41,o),
(15,25,o),
(16,9,cs),
(17,-7,o),
(32,-24,o),
(50,-24,cs)
);
}
);
width = 131;
},
{
layerId = m002;
shapes = (
{
closed = 1;
nodes = (
(196,632,o),
(168,650,o),
(144,650,cs),
(122,650,o),
(94,635,o),
(91,611,cs),
(49,226,ls),
(46,197,o),
(72,177,o),
(97,175,cs),
(120,173,o),
(148,191,o),
(151,220,cs),
(193,605,ls)
);
},
{
closed = 1;
nodes = (
(111,-24,o),
(137,2,o),
(135,31,cs),
(133,60,o),
(103,86,o),
(73,86,cs),
(42,86,o),
(23,58,o),
(25,31,cs),
(27,4,o),
(50,-24,o),
(81,-24,cs)
);
}
);
width = 191;
}
);
metricLeft = N;
metricRight = N;
unicode = 33;
},
{
glyphname = exclamdown;
lastChange = "2022-03-05 17:56:27 +0000";
layers = (
{
layerId = m01;
shapes = (
{
closed = 1;
nodes = (
(118,441,o),
(106,450,o),
(93,451,cs),
(81,452,o),
(67,443,o),
(65,424,cs),
(20,21,ls),
(18,6,o),
(30,-1,o),
(43,0,cs),
(55,0,o),
(69,7,o),
(71,21,cs),
(116,424,ls)
);
},
{
closed = 1;
nodes = (
(134,585,o),
(146,601,o),
(145,617,cs),
(144,633,o),
(130,650,o),
(112,650,cs),
(94,650,o),
(79,634,o),
(80,617,cs),
(81,600,o),
(98,585,o),
(116,585,cs)
);
}
);
width = 131;
},
{
layerId = m002;
shapes = (
{
closed = 1;
nodes = (
(174,433,o),
(147,450,o),
(123,452,cs),
(99,454,o),
(72,437,o),
(70,407,cs),
(31,47,ls),
(28,17,o),
(54,-2,o),
(82,0,cs),
(104,0,o),
(129,14,o),
(131,39,cs),
(170,399,ls)
);
},
{
closed = 1;
nodes = (
(176,540,o),
(196,566,o),
(194,594,cs),
(192,623,o),
(169,650,o),
(138,650,cs),
(108,650,o),
(82,623,o),
(84,594,cs),
(86,566,o),
(115,540,o),
(145,540,cs)
);
}
);
width = 191;
}
);
metricLeft = N;
metricRight = N;
unicode = 161;
},
{
glyphname = question;
lastChange = "2022-03-05 17:44:28 +0000";
layers = (
{
layerId = m01;
shapes = (
{
closed = 1;
nodes = (
(330,272,o),
(392,364,o),
(407,503,cs),
(415,582,o),
(342,654,o),
(251,654,cs),
(136,654,o),
(77,590,o),
(66,495,cs),
(64,473,o),
(70,460,o),
(81,457,cs),
(94,454,o),
(114,463,o),
(116,485,cs),
(122,542,o),
(156,604,o),
(241,604,cs),
(307,604,o),
(363,568,o),
(357,507,cs),
(352,461,o),
(337,322,o),
(175,322,c),
(174,272,l)
);
},
{
closed = 1;
nodes = (
(163,-24,o),
(178,-9,o),
(177,7,cs),
(175,26,o),
(159,41,o),
(140,41,cs),
(123,41,o),
(110,25,o),
(112,7,cs),
(113,-8,o),
(128,-24,o),
(145,-24,cs)
);
},
{
closed = 1;
nodes = (
(201,310,o),
(193,322,o),
(173,322,cs),
(162,322,o),
(151,314,o),
(150,303,cs),
(139,202,ls),
(138,188,o),
(149,178,o),
(161,175,cs),
(174,173,o),
(187,180,o),
(190,202,cs),
(201,303,ls)
);
}
);
width = 396;
},
{
layerId = m002;
shapes = (
{
closed = 1;
nodes = (
(345,256,o),
(413,353,o),
(430,492,cs),
(439,577,o),
(359,654,o),
(262,654,cs),
(145,654,o),
(83,586,o),
(73,493,cs),
(68,458,o),
(84,439,o),
(106,434,cs),
(131,427,o),
(165,443,o),
(168,476,cs),
(172,524,o),
(194,565,o),
(256,565,cs),
(307,565,o),
(339,545,o),
(334,504,cs),
(330,459,o),
(317,345,o),
(184,356,c),
(169,267,l)
);
},
{
closed = 1;
nodes = (
(186,-24,o),
(212,2,o),
(210,32,cs),
(208,61,o),
(180,86,o),
(150,86,cs),
(119,86,o),
(98,60,o),
(100,32,cs),
(102,4,o),
(127,-24,o),
(157,-24,cs)
);
},
{
closed = 1;
nodes = (
(239,338,o),
(214,356,o),
(185,356,cs),
(164,356,o),
(143,342,o),
(141,321,cs),
(131,233,ls),
(128,207,o),
(144,182,o),
(174,176,cs),
(200,171,o),
(223,193,o),
(226,225,cs),
(236,313,ls)
);
}
);
width = 428;
}
);
metricLeft = O;
metricRight = O;
unicode = 63;
},
{
glyphname = questiondown;
lastChange = "2022-03-05 17:44:28 +0000";
layers = (
{
layerId = m01;
shapes = (
{
closed = 1;
nodes = (
(106,382,o),
(45,290,o),
(29,151,cs),
(21,72,o),
(94,0,o),
(185,0,cs),
(300,0,o),
(360,64,o),
(370,159,cs),
(372,181,o),
(366,194,o),
(355,197,cs),
(342,200,o),
(323,191,o),
(320,169,cs),
(314,112,o),
(281,50,o),
(196,50,cs),
(130,50,o),
(73,86,o),
(80,147,cs),
(85,193,o),
(99,332,o),
(261,332,c),
(262,382,l)
);
},
{
closed = 1;
nodes = (
(298,466,o),
(288,476,o),
(276,479,cs),
(262,481,o),
(249,474,o),
(246,452,cs),
(235,351,ls),
(235,344,o),
(243,332,o),
(263,332,cs),
(274,332,o),
(285,340,o),
(286,351,cs),
(297,452,ls)
);
},
{
closed = 1;
nodes = (
(310,585,o),
(323,601,o),
(322,619,cs),
(321,634,o),
(306,650,o),
(289,650,cs),
(271,650,o),
(256,635,o),
(257,619,cs),
(258,600,o),
(274,585,o),
(293,585,cs)
);
}
);
width = 395;
},
{
layerId = m002;
shapes = (
{
closed = 1;
nodes = (
(127,398,o),
(53,296,o),
(38,160,cs),
(30,76,o),
(106,1,o),
(201,1,cs),
(316,1,o),
(383,67,o),
(394,159,cs),
(396,194,o),
(382,212,o),
(361,217,cs),
(336,224,o),
(302,208,o),
(299,175,cs),
(295,128,o),
(273,89,o),
(213,89,cs),
(163,89,o),
(133,108,o),
(138,148,cs),
(142,192,o),
(158,300,o),
(280,289,c),
(302,386,l)
);
},
{
closed = 1;
nodes = (
(340,454,o),
(320,473,o),
(296,479,cs),
(269,484,o),
(240,470,o),
(237,435,cs),
(226,333,ls),
(223,310,o),
(249,289,o),
(280,289,cs),
(302,289,o),
(324,304,o),
(326,326,cs),
(337,428,ls)
);
},
{
closed = 1;
nodes = (
(339,540,o),
(359,568,o),
(357,597,cs),
(355,625,o),
(330,650,o),
(300,650,cs),
(269,650,o),
(245,625,o),
(247,598,cs),
(249,568,o),
(276,540,o),
(308,540,cs)
);
}
);
width = 427;
}
);
metricLeft = O;
metricRight = O;
unicode = 191;
},
{
glyphname = periodcentered;
lastChange = "2022-03-05 17:49:18 +0000";
layers = (
{
layerId = m01;
shapes = (
{
closed = 1;
nodes = (
(92,138,o),
(109,157,o),
(108,177,cs),
(106,198,o),
(87,214,o),
(67,214,cs),
(46,214,o),
(31,197,o),
(33,177,cs),
(34,158,o),
(51,138,o),
(72,138,cs)
);
}
);
width = 140;
},
{
layerId = m002;
shapes = (
{
closed = 1;
nodes = (
(128,121,o),
(153,149,o),
(151,178,cs),
(148,209,o),
(120,231,o),
(91,231,cs),
(60,231,o),
(39,207,o),
(41,178,cs),
(42,151,o),
(68,121,o),
(99,121,cs)
);
}
);
width = 191;
}
);
metricLeft = n;
metricRight = n;
unicode = 183;
},
{
glyphname = bullet;
lastChange = "2022-03-05 17:49:18 +0000";
layers = (
{
layerId = m01;
shapes = (
{
closed = 1;
nodes = (
(171,278,o),
(205,314,o),
(202,355,cs),
(199,396,o),
(161,430,o),
(121,430,cs),
(79,430,o),
(49,395,o),
(52,355,cs),
(55,316,o),
(89,278,o),
(131,278,cs)
);
}
);
width = 216;
},
{
layerId = m002;
shapes = (
{
closed = 1;
nodes = (
(218,254,o),
(264,301,o),
(260,355,cs),
(256,409,o),
(205,454,o),
(151,454,cs),
(96,454,o),
(56,408,o),
(60,355,cs),
(64,304,o),
(108,254,o),
(164,254,cs)
);
}
);
width = 282;
}
);
metricLeft = n;
metricRight = n;
unicode = 8226;
},
{
glyphname = asterisk;
lastChange = "2022-03-05 17:56:27 +0000";
layers = (
{
layerId = m01;
shapes = (
{
closed = 1;
nodes = (
(250,584,o),
(252,598,o),
(246,607,cs),
(240,614,o),
(228,617,o),
(213,608,cs),
(83,524,ls),
(67,513,o),
(64,499,o),
(71,491,cs),
(76,483,o),
(88,481,o),
(104,490,cs),
(234,574,ls)
);
},
{
closed = 1;
nodes = (
(217,482,o),
(230,484,o),
(237,492,cs),
(241,499,o),
(240,511,o),
(227,521,cs),
(113,606,ls),
(100,616,o),
(88,614,o),
(83,606,cs),
(76,599,o),
(77,586,o),
(91,576,cs),
(204,492,ls)
);
},
{
closed = 1;
nodes = (
(187,641,o),
(179,650,o),
(170,650,cs),
(160,650,o),
(148,641,o),
(146,623,cs),
(131,475,ls),
(129,458,o),
(137,450,o),
(146,448,cs),
(156,447,o),
(168,456,o),
(170,475,cs),
(185,623,ls)
);
}
);
width = 237;
},
{
layerId = m002;
shapes = (
{
closed = 1;
nodes = (
(297,570,o),
(305,594,o),
(289,617,cs),
(277,633,o),
(248,639,o),
(224,625,cs),
(97,543,l),
(76,527,o),
(66,504,o),
(80,483,cs),
(92,464,o),
(123,458,o),
(149,474,cs),
(272,554,ls)
);
},
{
closed = 1;
nodes = (
(240,460,o),
(269,464,o),
(281,481,cs),
(293,499,o),
(290,521,o),
(266,538,cs),
(156,621,ls),
(132,638,o),
(104,634,o),
(92,617,cs),
(78,599,o),
(82,576,o),
(107,558,cs),
(214,477,l)
);
},
{
closed = 1;
nodes = (
(240,648,o),
(218,668,o),
(194,668,cs),
(173,668,o),
(151,651,o),
(148,624,cs),
(133,482,ls),
(130,453,o),
(148,436,o),
(169,431,cs),
(191,426,o),
(218,443,o),
(222,474,cs),
(237,616,ls)
);
}
);
width = 294;
}
);
metricLeft = N;
metricRight = N;
unicode = 42;
},
{
glyphname = numbersign;
lastChange = "2022-03-05 17:56:27 +0000";
layers = (
{
layerId = m01;
shapes = (
{
closed = 1;
nodes = (
(271,559,o),
(259,568,o),
(246,568,cs),
(233,568,o),
(220,560,o),
(218,543,cs),
(163,28,ls),
(161,10,o),
(172,0,o),
(184,0,cs),
(197,-1,o),
(211,8,o),
(214,28,cs),
(269,543,ls)
);
},
{
closed = 1;
nodes = (
(623,147,o),
(631,159,o),
(630,170,cs),
(629,181,o),
(621,192,o),
(603,192,cs),
(58,192,ls),
(40,192,o),
(32,181,o),
(33,170,cs),
(34,159,o),
(44,147,o),
(61,147,cs),
(606,147,ls)
);
},
{
closed = 1;
nodes = (
(527,559,o),
(515,567,o),
(503,568,cs),
(490,568,o),
(476,560,o),
(474,543,cs),
(419,28,ls),
(417,9,o),
(429,-1,o),
(442,0,cs),
(455,0,o),
(468,9,o),
(470,28,cs),
(525,543,ls)
);
},
{
closed = 1;
nodes = (
(648,384,o),
(656,395,o),
(656,406,cs),
(655,417,o),
(645,429,o),
(627,429,cs),
(83,429,ls),
(65,429,o),
(57,417,o),
(58,406,cs),
(58,395,o),
(68,384,o),
(86,384,cs),
(630,384,ls)
);
}
);
width = 664;
},
{
layerId = m002;
shapes = (
{
closed = 1;
nodes = (
(556,555,o),
(531,568,o),
(508,568,cs),
(484,568,o),
(457,558,o),
(454,531,cs),
(403,47,ls),
(399,13,o),
(426,0,o),
(453,0,cs),
(477,0,o),
(498,11,o),
(501,39,cs),
(552,523,ls)
);
},
{
closed = 1;
nodes = (
(634,133,o),
(652,153,o),
(651,177,cs),
(649,200,o),
(629,218,o),
(599,218,cs),
(87,218,ls),
(57,218,o),
(38,200,o),
(40,177,cs),
(41,153,o),
(64,133,o),
(93,133,cs),
(605,133,ls)
);
},
{
closed = 1;
nodes = (
(314,552,o),
(289,568,o),
(262,568,cs),
(237,568,o),
(217,557,o),
(214,530,cs),
(162,47,ls),
(158,16,o),
(179,0,o),
(205,0,cs),
(229,0,o),
(257,10,o),
(260,39,cs),
(311,523,ls)
);
},
{
closed = 1;
nodes = (
(657,357,o),
(677,375,o),
(675,399,cs),
(673,422,o),
(651,442,o),
(621,442,cs),
(110,442,ls),
(80,442,o),
(61,422,o),
(63,399,cs),
(65,375,o),
(86,357,o),
(116,357,cs),
(627,357,ls)
);
}
);
width = 692;
}
);
metricLeft = N;
metricRight = N;
unicode = 35;
},
{
glyphname = slash;
lastChange = "2022-03-05 17:56:27 +0000";
layers = (
{
layerId = m01;
shapes = (
{
closed = 1;
nodes = (
(292,637,o),
(277,650,o),
(262,650,cs),
(251,650,o),
(240,644,o),
(234,627,cs),
(19,31,ls),
(12,12,o),
(27,0,o),
(43,0,cs),
(54,0,o),
(65,6,o),
(70,20,cs),
(285,616,ls)
);
}
);
width = 271;
},
{
layerId = m002;
shapes = (
{
closed = 1;
nodes = (
(342,624,o),
(310,650,o),
(280,650,cs),
(260,650,o),
(238,639,o),
(229,614,cs),
(28,60,ls),
(15,25,o),
(46,0,o),
(78,0,cs),
(97,0,o),
(118,10,o),
(127,32,cs),
(329,588,ls)
);
}
);
width = 327;
}
);
metricLeft = N;
metricRight = N;
unicode = 47;
},
{
glyphname = backslash;
lastChange = "2022-03-05 17:56:27 +0000";
layers = (
{
layerId = m01;
shapes = (
{
closed = 1;
nodes = (
(126,644,o),
(115,650,o),
(104,650,cs),
(89,650,o),
(74,637,o),
(85,616,cs),
(384,20,ls),
(391,5,o),
(403,0,o),
(414,0,cs),
(429,0,o),
(442,13,o),
(433,31,cs),
(134,627,ls)
);
}
);
width = 484;
},
{
layerId = m002;
shapes = (
{
closed = 1;
nodes = (
(165,648,o),
(133,655,o),
(109,646,cs),
(87,638,o),
(75,608,o),
(93,574,cs),
(366,32,ls),
(381,1,o),
(415,-6,o),
(440,4,cs),
(460,13,o),
(470,41,o),
(456,69,cs),
(182,614,ls)
);
}
);
width = 517;
}
);
metricLeft = N;
metricRight = N;
unicode = 92;
},
{
glyphname = exclam.c2sc;
lastChange = "2022-03-05 23:11:53 +0000";
layers = (
{
layerId = m01;
shapes = (
{
closed = 1;
nodes = (
(65,-24,o),
(81,-8,o),
(81,9,cs),
(81,26,o),
(65,41,o),
(47,41,cs),
(29,41,o),
(16,25,o),
(16,9,cs),
(16,-7,o),
(29,-24,o),
(47,-24,cs)
);
},
{
closed = 1;
nodes = (
(140,382,o),
(131,396,o),
(117,396,cs),
(99,396,o),
(90,386,o),
(87,372,cs),
(57,205,ls),
(54,188,o),
(66,175,o),
(79,175,cs),
(94,175,o),
(104,185,o),
(107,199,cs),
(137,367,ls)
);
}
);
width = 149;
},
{
layerId = m002;
shapes = (
{
closed = 1;
nodes = (
(105,-47,o),
(132,-20,o),
(132,9,cs),
(132,38,o),
(105,64,o),
(75,64,cs),
(44,64,o),
(22,36,o),
(22,9,cs),
(22,-18,o),
(44,-47,o),
(75,-47,cs)
);
},
{
closed = 1;
nodes = (
(192,370,o),
(172,396,o),
(142,396,cs),
(116,396,o),
(92,381,o),
(87,353,cs),
(57,186,ls),
(51,154,o),
(76,129,o),
(104,129,cs),
(130,129,o),
(150,146,o),
(156,172,cs),
(186,340,ls)
);
}
);
width = 209;
}
);
metricLeft = N;
metricRight = N;
},
{
glyphname = exclamdown.c2sc;
lastChange = "2022-03-05 23:11:53 +0000";
layers = (
{
layerId = m01;
shapes = (
{
closed = 1;
nodes = (
(90,420,o),
(74,404,o),
(74,387,cs),
(74,370,o),
(90,355,o),
(108,355,cs),
(126,355,o),
(139,371,o),
(139,387,cs),
(139,403,o),
(126,420,o),
(108,420,cs)
);
},
{
closed = 1;
nodes = (
(15,14,o),
(24,0,o),
(38,0,cs),
(56,0,o),
(65,10,o),
(68,24,cs),
(98,191,ls),
(101,208,o),
(89,221,o),
(76,221,cs),
(61,221,o),
(51,211,o),
(48,197,cs),
(18,29,ls)
);
}
);
width = 149;
},
{
layerId = m002;
shapes = (
{
closed = 1;
nodes = (
(108,443,o),
(81,416,o),
(81,387,cs),
(81,358,o),
(108,332,o),
(138,332,cs),
(169,332,o),
(191,360,o),
(191,387,cs),
(191,414,o),
(169,443,o),
(138,443,cs)
);
},
{
closed = 1;
nodes = (
(21,26,o),
(41,0,o),
(71,0,cs),
(97,0,o),
(121,15,o),
(126,43,cs),
(156,210,ls),
(162,242,o),
(137,267,o),
(109,267,cs),
(83,267,o),
(63,250,o),
(57,224,cs),
(27,56,ls)
);
}
);
width = 209;
}
);
metricLeft = N;
metricRight = N;
},
{
glyphname = question.c2sc;
lastChange = "2022-03-05 23:11:53 +0000";
layers = (
{
layerId = m01;
shapes = (
{
closed = 1;
nodes = (
(214,139,o),
(284,167,o),
(292,275,cs),
(298,345,o),
(263,395,o),
(178,395,cs),
(116,395,o),
(73,366,o),
(48,308,cs),
(41,292,o),
(49,277,o),
(57,274,cs),
(65,271,o),
(87,271,o),
(93,286,cs),
(108,324,o),
(131,345,o),
(175,345,cs),
(245,345,o),
(245,308,o),
(242,273,cs),
(233,184,o),
(169,189,o),
(120,189,cs),
(117,189,o),
(116,187,o),
(114,185,c),
(128,139,l)
);
},
{
closed = 1;
nodes = (
(106,-24,o),
(122,-9,o),
(122,7,cs),
(122,26,o),
(107,41,o),
(88,41,cs),
(71,41,o),
(57,25,o),
(57,7,cs),
(57,-8,o),
(71,-24,o),
(88,-24,cs)
);
},
{
closed = 1;
nodes = (
(117,87,o),
(131,94,o),
(135,116,cs),
(145,170,ls),
(146,177,o),
(139,189,o),
(119,189,cs),
(108,189,o),
(96,181,o),
(94,170,cs),
(84,116,ls),
(81,102,o),
(92,92,o),
(104,89,cs)
);
}
);
width = 305;
},
{
layerId = m002;
shapes = (
{
closed = 1;
nodes = (
(241,120,o),
(339,157,o),
(349,273,cs),
(356,356,o),
(310,418,o),
(210,418,cs),
(138,418,o),
(85,383,o),
(57,317,cs),
(46,291,o),
(56,262,o),
(80,252,cs),
(100,245,o),
(137,251,o),
(148,278,cs),
(162,311,o),
(176,322,o),
(207,322,cs),
(239,322,o),
(254,307,o),
(249,275,cs),
(240,218,o),
(196,222,o),
(149,222,cs),
(151,222,o),
(144,217,o),
(116,198,c),
(138,127,l)
);
},
{
closed = 1;
nodes = (
(147,-70,o),
(175,-44,o),
(175,-17,cs),
(175,15,o),
(149,41,o),
(117,41,cs),
(88,41,o),
(65,13,o),
(65,-17,cs),
(65,-42,o),
(88,-70,o),
(117,-70,cs)
);
},
{
closed = 1;
nodes = (
(156,72,o),
(184,86,o),
(191,122,cs),
(201,176,ls),
(206,201,o),
(182,222,o),
(150,222,cs),
(128,222,o),
(104,206,o),
(100,184,cs),
(90,131,ls),
(85,104,o),
(104,83,o),
(129,77,cs)
);
}
);
width = 370;
}
);
metricLeft = O;
metricRight = O;
},
{
glyphname = questiondown.c2sc;
lastChange = "2022-03-05 23:11:53 +0000";
layers = (
{
layerId = m01;
shapes = (
{
closed = 1;
nodes = (
(104,256,o),
(34,228,o),
(26,120,cs),
(20,50,o),
(55,0,o),
(140,0,cs),
(202,0,o),
(245,29,o),
(270,87,cs),
(277,103,o),
(269,118,o),
(261,121,cs),
(253,124,o),
(231,124,o),
(225,109,cs),
(210,71,o),
(187,50,o),
(143,50,cs),
(73,50,o),
(73,87,o),
(76,122,cs),
(85,211,o),
(149,206,o),
(198,206,cs),
(201,206,o),
(202,208,o),
(204,210,c),
(190,256,l)
);
},
{
closed = 1;
nodes = (
(212,419,o),
(196,404,o),
(196,388,cs),
(196,369,o),
(211,354,o),
(230,354,cs),
(247,354,o),
(261,370,o),
(261,388,cs),
(261,403,o),
(247,419,o),
(230,419,cs)
);
},
{
closed = 1;
nodes = (
(201,308,o),
(187,301,o),
(183,279,cs),
(173,225,ls),
(172,218,o),
(179,206,o),
(199,206,cs),
(210,206,o),
(222,214,o),
(224,225,cs),
(234,279,ls),
(237,293,o),
(226,303,o),
(214,306,cs)
);
}
);
width = 304;
},
{
layerId = m002;
shapes = (
{
closed = 1;
nodes = (
(145,298,o),
(47,261,o),
(37,145,cs),
(30,62,o),
(76,0,o),
(176,0,cs),
(248,0,o),
(301,35,o),
(329,101,cs),
(340,127,o),
(330,156,o),
(306,166,cs),
(286,173,o),
(249,167,o),
(238,140,cs),
(224,107,o),
(210,96,o),
(179,96,cs),
(147,96,o),
(132,111,o),
(137,143,cs),
(146,200,o),
(190,196,o),
(237,196,cs),
(235,196,o),
(242,201,o),
(270,220,c),
(248,291,l)
);
},
{
closed = 1;
nodes = (
(239,488,o),
(211,462,o),
(211,435,cs),
(211,403,o),
(237,377,o),
(269,377,cs),
(298,377,o),
(321,405,o),
(321,435,cs),
(321,460,o),
(298,488,o),
(269,488,cs)
);
},
{
closed = 1;
nodes = (
(230,346,o),
(202,332,o),
(195,296,cs),
(185,242,ls),
(180,217,o),
(204,196,o),
(236,196,cs),
(258,196,o),
(282,212,o),
(286,234,cs),
(296,287,ls),
(301,314,o),
(282,335,o),
(257,341,cs)
);
}
);
width = 370;
}
);
metricLeft = O;
metricRight = O;
},
{
glyphname = asterisk.c2sc;
lastChange = "2022-03-05 23:31:54 +0000";
layers = (
{
layerId = m01;
shapes = (
{
closed = 1;
nodes = (
(233,423,o),
(235,437,o),
(229,446,cs),
(223,453,o),
(211,456,o),
(196,447,cs),
(66,363,ls),
(50,352,o),
(47,338,o),
(54,330,cs),
(59,322,o),
(71,320,o),
(87,329,cs),
(217,413,ls)
);
},
{
closed = 1;
nodes = (
(200,321,o),
(213,323,o),
(220,331,cs),
(224,338,o),
(223,350,o),
(210,360,cs),
(96,445,ls),
(83,455,o),
(71,453,o),
(66,445,cs),
(59,438,o),
(60,425,o),
(74,415,cs),
(187,331,ls)
);
},
{
closed = 1;
nodes = (
(170,480,o),
(162,489,o),
(153,489,cs),
(143,489,o),
(131,480,o),
(129,462,cs),
(114,314,ls),
(112,297,o),
(120,289,o),
(129,287,cs),
(139,286,o),
(151,295,o),
(153,314,cs),
(168,462,ls)
);
}
);
width = 237;
},
{
layerId = m002;
shapes = (
{
closed = 1;
nodes = (
(282,402,o),
(291,425,o),
(276,449,cs),
(264,465,o),
(234,473,o),
(211,459,cs),
(81,381,l),
(60,366,o),
(49,343,o),
(62,322,cs),
(73,303,o),
(104,295,o),
(131,311,cs),
(256,386,ls)
);
},
{
closed = 1;
nodes = (
(230,302,o),
(259,307,o),
(270,324,cs),
(281,343,o),
(278,364,o),
(253,381,cs),
(140,460,ls),
(117,476,o),
(88,471,o),
(76,454,cs),
(63,435,o),
(68,413,o),
(93,395,cs),
(203,318,l)
);
},
{
closed = 1;
nodes = (
(227,488,o),
(205,508,o),
(181,508,cs),
(160,508,o),
(138,491,o),
(135,464,cs),
(120,322,ls),
(117,293,o),
(135,276,o),
(156,271,cs),
(178,266,o),
(206,283,o),
(209,314,cs),
(224,456,ls)
);
}
);
width = 298;
}
);
metricLeft = N;
metricRight = N;
},
{
glyphname = hyphen;
lastChange = "2022-03-05 17:49:18 +0000";
layers = (
{
layerId = m01;
shapes = (
{
closed = 1;
nodes = (
(230,175,o),
(238,186,o),
(237,198,cs),
(236,209,o),
(227,220,o),
(209,220,cs),
(61,220,ls),
(42,220,o),
(33,208,o),
(35,196,cs),
(37,185,o),
(47,175,o),
(64,175,cs),
(212,175,ls)
);
}
);
width = 267;
},
{
layerId = m002;
shapes = (
{
closed = 1;
nodes = (
(277,153,o),
(297,173,o),
(295,198,cs),
(293,222,o),
(271,242,o),
(240,242,cs),
(92,242,ls),
(59,242,o),
(40,220,o),
(43,194,cs),
(47,171,o),
(69,153,o),
(98,153,cs),
(246,153,ls)
);
}
);
width = 333;
}
);
metricLeft = n;
metricRight = n;
unicode = 45;
},
{
glyphname = endash;
lastChange = "2022-03-05 17:49:18 +0000";
layers = (
{
layerId = m01;
shapes = (
{
closed = 1;
nodes = (
(309,175,o),
(317,187,o),
(316,199,cs),
(315,210,o),
(306,220,o),
(288,220,cs),
(61,220,ls),
(43,220,o),
(34,210,o),
(35,199,cs),
(36,187,o),
(46,175,o),
(64,175,cs),
(291,175,ls)
);
}
);
width = 346;
},
{
layerId = m002;
shapes = (
{
closed = 1;
nodes = (
(356,153,o),
(376,174,o),
(374,199,cs),
(372,223,o),
(350,242,o),
(319,242,cs),
(92,242,ls),
(61,242,o),
(41,223,o),
(43,199,cs),
(45,174,o),
(67,153,o),
(98,153,cs),
(325,153,ls)
);
}
);
width = 412;
}
);
metricLeft = n;
metricRight = n;
unicode = 8211;
},
{
glyphname = emdash;
lastChange = "2022-03-05 17:49:18 +0000";
layers = (
{
layerId = m01;
shapes = (
{
closed = 1;
nodes = (
(410,175,o),
(420,187,o),
(419,199,cs),
(418,209,o),
(408,220,o),
(387,220,cs),
(64,220,ls),
(44,220,o),
(34,209,o),
(35,199,cs),
(36,187,o),
(48,175,o),
(67,175,cs),
(390,175,ls)
);
}
);
width = 449;
},
{
layerId = m002;
shapes = (
{
closed = 1;
nodes = (
(457,153,o),
(479,174,o),
(477,199,cs),
(475,222,o),
(452,242,o),
(418,242,cs),
(95,242,ls),
(62,242,o),
(41,222,o),
(43,199,cs),
(45,174,o),
(69,153,o),
(101,153,cs),
(424,153,ls)
);
}
);
width = 515;
}
);
metricLeft = n;
metricRight = n;
unicode = 8212;
},
{
glyphname = underscore;
lastChange = "2022-03-05 17:49:18 +0000";
layers = (
{
layerId = m01;
shapes = (
{
closed = 1;
nodes = (
(343,-77,o),
(352,-66,o),
(351,-54,cs),
(350,-43,o),
(340,-32,o),
(322,-32,cs),
(33,-32,ls),
(14,-32,o),
(7,-43,o),
(8,-55,cs),
(9,-66,o),
(19,-77,o),
(36,-77,cs),
(325,-77,ls)
);
}
);
width = 407;
},
{
layerId = m002;
shapes = (
{
closed = 1;
nodes = (
(392,-99,o),
(412,-79,o),
(410,-54,cs),
(408,-30,o),
(386,-10,o),
(355,-10,cs),
(66,-10,ls),
(34,-10,o),
(15,-30,o),
(17,-55,cs),
(19,-79,o),
(42,-99,o),
(72,-99,cs),
(361,-99,ls)
);
}
);
width = 475;
}
);
metricLeft = n;
metricRight = n;
unicode = 95;
},
{
glyphname = parenleft;
lastChange = "2022-03-05 17:44:28 +0000";
layers = (
{
layerId = m01;
shapes = (
{
closed = 1;
nodes = (
(209,-292,o),
(209,-278,o),
(200,-261,cs),
(102,-81,o),
(78,77,o),
(93,219,cs),
(107,347,o),
(173,480,o),
(291,607,cs),
(307,625,o),
(308,639,o),
(301,646,cs),
(292,654,o),
(274,651,o),
(256,633,cs),
(133,506,o),
(48,329,o),
(37,219,cs),
(23,94,o),
(63,-101,o),
(166,-283,cs),
(175,-299,o),
(191,-303,o),
(202,-297,cs)
);
}
);
width = 289;
},
{
layerId = m002;
shapes = (
{
closed = 1;
nodes = (
(260,-283,o),
(263,-264,o),
(249,-235,c),
(157,-66,o),
(134,80,o),
(149,213,cs),
(162,333,o),
(223,456,o),
(333,574,cs),
(362,605,o),
(355,628,o),
(340,643,cs),
(324,658,o),
(291,659,o),
(262,631,cs),
(139,505,o),
(56,330,o),
(45,221,cs),
(32,96,o),
(71,-95,o),
(172,-275,cs),
(189,-303,o),
(226,-310,o),
(246,-295,cs)
);
}
);
width = 347;
}
);
metricLeft = O;
metricRight = N;
unicode = 40;
},
{
glyphname = parenright;
lastChange = "2022-03-05 17:56:27 +0000";
layers = (
{
layerId = m01;
shapes = (
{
closed = 1;
nodes = (
(-1,-284,o),
(16,-285,o),
(28,-273,cs),
(164,-133,o),
(243,42,o),
(257,167,cs),
(269,276,o),
(225,476,o),
(132,640,cs),
(118,664,o),
(102,673,o),
(91,668,cs),
(83,664,o),
(81,650,o),
(93,627,cs),
(179,465,o),
(216,314,o),
(203,186,cs),
(188,44,o),
(132,-100,o),
(-1,-240,cs),
(-13,-253,o),
(-16,-267,o),
(-10,-274,cs)
);
}
);
width = 281;
},
{
layerId = m002;
shapes = (
{
closed = 1;
nodes = (
(214,-132,o),
(291,41,o),
(306,164,cs),
(316,274,o),
(274,469,o),
(183,631,cs),
(159,669,o),
(130,679,o),
(108,669,cs),
(91,660,o),
(80,640,o),
(100,601,cs),
(182,448,o),
(215,309,o),
(203,190,cs),
(189,56,o),
(137,-76,o),
(14,-207,cs),
(-4,-225,o),
(-13,-249,o),
(4,-267,cs),
(21,-289,o),
(58,-291,o),
(78,-270,cs)
);
}
);
width = 338;
}
);
metricLeft = N;
metricRight = O;
unicode = 41;
},
{
glyphname = braceleft;
lastChange = "2022-03-05 17:56:27 +0000";
layers = (
{
layerId = m01;
shapes = (
{
closed = 1;
nodes = (
(118,237,o),
(129,268,o),
(134,312,cs),
(139,365,o),
(117,476,o),
(133,535,cs),
(148,585,o),
(192,606,o),
(223,617,cs),
(236,622,o),
(239,631,o),
(234,642,cs),
(228,655,o),
(212,649,o),
(199,644,cs),
(171,630,o),
(115,603,o),
(99,551,cs),
(82,489,o),
(103,376,o),
(97,318,cs),
(92,290,o),
(81,265,o),
(58,241,cs),
(46,229,o),
(36,222,o),
(36,206,c),
(80,198,l)
);
},
{
closed = 1;
nodes = (
(37,188,o),
(44,179,o),
(54,163,cs),
(72,130,o),
(79,101,o),
(78,72,cs),
(75,15,o),
(38,-93,o),
(45,-159,cs),
(52,-216,o),
(91,-266,o),
(117,-293,cs),
(129,-305,o),
(142,-309,o),
(149,-299,cs),
(156,-290,o),
(148,-281,o),
(137,-271,cs),
(108,-244,o),
(87,-211,o),
(81,-157,cs),
(75,-94,o),
(113,10,o),
(116,64,cs),
(117,108,o),
(111,145,o),
(80,198,c),
(36,206,l)
);
}
);
width = 233;
},
{
layerId = m002;
shapes = (
{
closed = 1;
nodes = (
(166,219,o),
(178,255,o),
(184,302,cs),
(189,357,o),
(168,459,o),
(182,511,cs),
(195,552,o),
(228,567,o),
(257,576,cs),
(279,585,o),
(290,605,o),
(278,628,cs),
(266,656,o),
(233,652,o),
(211,642,cs),
(183,629,o),
(119,599,o),
(102,540,cs),
(85,475,o),
(103,369,o),
(98,316,cs),
(94,291,o),
(85,273,o),
(67,254,cs),
(48,235,o),
(37,225,o),
(46,187,c),
(117,173,l)
);
},
{
closed = 1;
nodes = (
(36,182,o),
(49,172,o),
(60,153,cs),
(75,126,o),
(81,103,o),
(79,79,cs),
(76,26,o),
(38,-75,o),
(46,-143,cs),
(53,-203,o),
(94,-256,o),
(123,-285,cs),
(148,-311,o),
(179,-308,o),
(191,-289,cs),
(207,-268,o),
(194,-252,o),
(177,-235,cs),
(152,-211,o),
(135,-187,o),
(130,-139,cs),
(125,-83,o),
(164,12,o),
(165,66,cs),
(168,114,o),
(159,155,o),
(124,216,c),
(45,224,l)
);
}
);
width = 285;
}
);
metricLeft = N;
metricRight = N;
unicode = 123;
},
{
glyphname = braceright;
lastChange = "2022-03-05 17:56:27 +0000";
layers = (
{
layerId = m01;
shapes = (
{
closed = 1;
nodes = (
(109,125,o),
(96,91,o),
(90,48,cs),
(81,-5,o),
(98,-119,o),
(80,-178,cs),
(64,-228,o),
(38,-253,o),
(4,-270,cs),
(-8,-276,o),
(-18,-282,o),
(-13,-293,cs),
(-8,-305,o),
(5,-305,o),
(19,-297,cs),
(50,-280,o),
(97,-244,o),
(114,-191,cs),
(135,-130,o),
(119,-13,o),
(127,43,cs),
(132,72,o),
(144,97,o),
(168,123,cs),
(180,136,o),
(189,142,o),
(194,159,c),
(149,166,l)
);
},
{
closed = 1;
nodes = (
(196,175,o),
(188,185,o),
(179,200,cs),
(161,231,o),
(156,259,o),
(156,288,cs),
(162,346,o),
(204,448,o),
(198,514,cs),
(193,569,o),
(144,614,o),
(120,636,cs),
(108,645,o),
(93,657,o),
(85,646,cs),
(78,637,o),
(80,627,o),
(92,618,cs),
(119,597,o),
(158,563,o),
(163,509,cs),
(167,447,o),
(124,347,o),
(118,294,cs),
(115,250,o),
(120,216,o),
(149,166,c),
(194,159,l)
);
}
);
width = 228;
},
{
layerId = m002;
shapes = (
{
closed = 1;
nodes = (
(119,139,o),
(104,101,o),
(97,55,cs),
(89,0,o),
(101,-99,o),
(86,-151,cs),
(71,-195,o),
(52,-213,o),
(24,-227,cs),
(0,-240,o),
(-12,-254,o),
(-4,-275,cs),
(5,-300,o),
(39,-309,o),
(65,-291,c),
(98,-273,o),
(147,-235,o),
(166,-179,cs),
(187,-116,o),
(175,-10,o),
(182,40,cs),
(187,66,o),
(196,85,o),
(217,107,cs),
(229,122,o),
(245,130,o),
(245,175,c),
(169,187,l)
);
},
{
closed = 1;
nodes = (
(253,171,o),
(244,182,o),
(230,205,cs),
(215,231,o),
(210,253,o),
(211,278,c),
(217,332,o),
(257,430,o),
(251,497,cs),
(246,558,o),
(194,607,o),
(167,630,cs),
(145,648,o),
(113,662,o),
(96,637,cs),
(83,618,o),
(86,598,o),
(109,580,cs),
(134,562,o),
(163,536,o),
(168,493,cs),
(170,437,o),
(130,343,o),
(124,289,cs),
(120,241,o),
(127,202,o),
(164,143,c),
(237,132,l)
);
}
);
width = 286;
}
);
metricLeft = N;
metricRight = N;
unicode = 125;
},
{
glyphname = bracketleft;
lastChange = "2022-03-05 17:56:27 +0000";
layers = (
{
layerId = m01;
shapes = (
{
closed = 1;
nodes = (
(134,636,o),
(133,650,o),
(112,650,cs),
(91,650,o),
(83,639,o),
(81,623,cs),
(-14,-273,ls),
(-16,-288,o),
(-7,-300,o),
(13,-300,cs),
(35,-300,o),
(36,-283,o),
(37,-273,cs),
(132,618,ls)
);
},
{
closed = 1;
nodes = (
(155,-300,ls),
(172,-300,o),
(180,-288,o),
(179,-277,cs),
(179,-266,o),
(170,-255,o),
(152,-255,cs),
(13,-255,l),
(10,-300,l)
);
},
{
closed = 1;
nodes = (
(251,605,ls),
(268,605,o),
(276,616,o),
(276,627,cs),
(276,638,o),
(267,650,o),
(248,650,cs),
(110,650,l),
(108,605,l)
);
}
);
width = 261;
},
{
layerId = m002;
shapes = (
{
closed = 1;
nodes = (
(190,640,o),
(165,650,o),
(138,650,cs),
(108,650,o),
(88,637,o),
(85,609,cs),
(-6,-251,ls),
(-9,-279,o),
(12,-300,o),
(46,-300,cs),
(79,-300,o),
(92,-278,o),
(95,-255,cs),
(186,600,ls)
);
},
{
closed = 1;
nodes = (
(182,-300,ls),
(212,-300,o),
(228,-284,o),
(231,-258,cs),
(234,-230,o),
(207,-215,o),
(176,-215,cs),
(50,-215,l),
(44,-300,l)
);
},
{
closed = 1;
nodes = (
(274,565,ls),
(302,565,o),
(320,582,o),
(323,605,cs),
(326,633,o),
(298,650,o),
(269,650,cs),
(136,650,l),
(131,565,l)
);
}
);
width = 318;
}
);
metricLeft = N;
metricRight = N;
unicode = 91;
},
{
glyphname = bracketright;
lastChange = "2022-03-05 17:56:27 +0000";
layers = (
{
layerId = m01;
shapes = (
{
closed = 1;
nodes = (
(277,638,o),
(269,650,o),
(249,650,cs),
(227,650,o),
(226,634,o),
(224,624,cs),
(130,-268,ls),
(128,-286,o),
(129,-300,o),
(150,-300,c),
(172,-300,o),
(178,-289,o),
(180,-273,cs),
(275,623,ls)
);
},
{
closed = 1;
nodes = (
(157,-255,l),
(12,-255,ls),
(-5,-255,o),
(-14,-266,o),
(-14,-277,cs),
(-13,-289,o),
(-4,-300,o),
(15,-300,cs),
(153,-300,l)
);
},
{
closed = 1;
nodes = (
(253,650,l),
(108,650,ls),
(90,650,o),
(81,638,o),
(82,627,cs),
(83,616,o),
(93,605,o),
(111,605,cs),
(248,605,l)
);
}
);
width = 260;
},
{
layerId = m002;
shapes = (
{
closed = 1;
nodes = (
(325,629,o),
(304,650,o),
(270,650,cs),
(236,650,o),
(224,632,o),
(221,610,cs),
(130,-246,ls),
(125,-291,o),
(151,-300,o),
(178,-300,cs),
(209,-300,o),
(227,-287,o),
(230,-259,cs),
(322,601,ls)
);
},
{
closed = 1;
nodes = (
(187,-215,l),
(42,-215,ls),
(16,-215,o),
(-4,-233,o),
(-6,-257,cs),
(-8,-281,o),
(14,-300,o),
(48,-300,cs),
(179,-300,l)
);
},
{
closed = 1;
nodes = (
(271,650,l),
(135,650,ls),
(104,650,o),
(89,634,o),
(86,607,cs),
(83,583,o),
(109,565,o),
(140,565,cs),
(260,565,l)
);
}
);
width = 317;
}
);
metricLeft = N;
metricRight = N;
unicode = 93;
},
{
glyphname = quotedbl;
lastChange = "2022-03-05 17:56:27 +0000";
layers = (
{
layerId = m01;
shapes = (
{
closed = 1;
nodes = (
(134,640,o),
(121,650,o),
(108,650,cs),
(96,650,o),
(82,641,o),
(80,624,cs),
(70,528,ls),
(68,510,o),
(81,500,o),
(94,500,cs),
(106,500,o),
(119,508,o),
(121,524,cs),
(132,620,ls)
);
},
{
closed = 1;
nodes = (
(241,640,o),
(229,650,o),
(215,650,cs),
(203,650,o),
(191,642,o),
(189,628,cs),
(178,528,ls),
(176,509,o),
(189,500,o),
(203,500,cs),
(215,500,o),
(229,507,o),
(230,521,cs),
(240,620,ls)
);
}
);
width = 226;
},
{
layerId = m002;
shapes = (
{
closed = 1;
nodes = (
(348,629,o),
(321,650,o),
(293,650,cs),
(270,650,o),
(247,635,o),
(243,610,cs),
(232,510,ls),
(228,472,o),
(260,456,o),
(284,456,cs),
(306,456,o),
(332,470,o),
(334,496,cs),
(344,595,ls)
);
},
{
closed = 1;
nodes = (
(189,628,o),
(164,650,o),
(136,650,cs),
(113,650,o),
(88,634,o),
(85,606,cs),
(74,510,ls),
(71,477,o),
(97,456,o),
(125,456,cs),
(148,456,o),
(172,471,o),
(175,498,cs),
(185,594,ls)
);
}
);
width = 340;
}
);
metricLeft = N;
metricRight = N;
unicode = 34;
},
{
glyphname = quotesingle;
lastChange = "2022-03-05 17:56:27 +0000";
layers = (
{
layerId = m01;
shapes = (
{
closed = 1;
nodes = (
(133,640,o),
(121,650,o),
(107,650,cs),
(95,650,o),
(83,642,o),
(81,628,cs),
(70,528,ls),
(68,509,o),
(81,500,o),
(95,500,cs),
(107,500,o),
(121,507,o),
(122,521,cs),
(132,620,ls)
);
}
);
width = 118;
},
{
layerId = m002;
shapes = (
{
closed = 1;
nodes = (
(189,629,o),
(163,650,o),
(135,650,cs),
(112,650,o),
(90,635,o),
(85,610,cs),
(74,510,ls),
(71,472,o),
(102,456,o),
(126,456,cs),
(148,456,o),
(174,470,o),
(176,496,cs),
(186,595,ls)
);
}
);
width = 182;
}
);
metricLeft = N;
metricRight = N;
unicode = 39;
},
{
glyphname = quotedbl.c2sc;
lastChange = "2022-03-05 23:34:04 +0000";
layers = (
{
layerId = m01;
shapes = (
{
closed = 1;
nodes = (
(114,448,o),
(101,458,o),
(88,458,cs),
(76,458,o),
(62,449,o),
(60,432,cs),
(50,336,ls),
(48,318,o),
(61,308,o),
(74,308,cs),
(86,308,o),
(99,316,o),
(101,332,cs),
(112,428,ls)
);
},
{
closed = 1;
nodes = (
(221,448,o),
(209,458,o),
(195,458,cs),
(183,458,o),
(171,450,o),
(169,436,cs),
(158,336,ls),
(156,317,o),
(169,308,o),
(183,308,cs),
(195,308,o),
(209,315,o),
(210,329,cs),
(220,428,ls)
);
}
);
width = 226;
},
{
layerId = m002;
shapes = (
{
closed = 1;
nodes = (
(331,461,o),
(304,482,o),
(276,482,cs),
(253,482,o),
(230,467,o),
(226,442,cs),
(215,342,ls),
(211,304,o),
(243,288,o),
(267,288,cs),
(289,288,o),
(315,302,o),
(317,328,cs),
(327,427,ls)
);
},
{
closed = 1;
nodes = (
(172,460,o),
(147,482,o),
(119,482,cs),
(96,482,o),
(71,466,o),
(68,438,cs),
(57,342,ls),
(54,309,o),
(80,288,o),
(108,288,cs),
(131,288,o),
(155,303,o),
(158,330,cs),
(168,426,ls)
);
}
);
width = 341;
}
);
metricLeft = N;
metricRight = N;
},
{
glyphname = quotesingle.c2sc;
lastChange = "2022-03-05 23:26:25 +0000";
layers = (
{
layerId = m01;
shapes = (
{
closed = 1;
nodes = (
(113,448,o),
(101,458,o),
(87,458,cs),
(75,458,o),
(63,450,o),
(61,436,cs),
(50,336,ls),
(48,317,o),
(61,308,o),
(75,308,cs),
(87,308,o),
(101,315,o),
(102,329,cs),
(112,428,ls)
);
}
);
width = 118;
},
{
layerId = m002;
shapes = (
{
closed = 1;
nodes = (
(171,458,o),
(145,479,o),
(117,479,cs),
(94,479,o),
(72,464,o),
(67,439,cs),
(56,339,ls),
(53,301,o),
(84,285,o),
(108,285,cs),
(130,285,o),
(156,299,o),
(158,325,cs),
(168,424,ls)
);
}
);
width = 182;
}
);
metricLeft = N;
metricRight = N;
},
{
glyphname = at;
lastChange = "2022-03-05 17:49:18 +0000";
layers = (
{
layerId = m01;
shapes = (
{
closed = 1;
nodes = (
(612,153,o),
(624,204,o),
(625,238,cs),
(636,403,o),
(548,476,o),
(391,476,cs),
(301,476,o),
(202,458,o),
(148,418,cs),
(64,356,o),
(30,228,o),
(24,124,cs),
(15,-20,o),
(75,-118,o),
(222,-118,cs),
(276,-118,o),
(317,-105,o),
(349,-84,cs),
(385,-60,o),
(392,-36,o),
(380,-22,cs),
(371,-11,o),
(358,-15,o),
(338,-29,cs),
(296,-60,o),
(252,-68,o),
(215,-68,cs),
(104,-68,o),
(65,4,o),
(75,123,cs),
(82,192,o),
(102,317,o),
(177,375,cs),
(220,409,o),
(308,426,o),
(392,426,cs),
(514,426,o),
(582,379,o),
(577,256,cs),
(575,214,o),
(561,166,o),
(535,125,c),
(578,98,l)
);
},
{
closed = 1;
nodes = (
(418,300,l),
(393,253,o),
(364,204,o),
(326,152,cs),
(271,76,o),
(236,46,o),
(217,46,cs),
(203,46,o),
(202,61,o),
(201,77,cs),
(198,115,o),
(210,205,o),
(233,244,cs),
(260,289,o),
(310,299,o),
(344,299,cs),
(351,299,o),
(419,299,o),
(427,299,c),
(438,299,l),
(438,301,o),
(435,346,o),
(435,349,c),
(423,349,o),
(361,349,o),
(341,349,cs),
(284,349,o),
(226,332,o),
(192,275,cs),
(163,227,o),
(147,130,o),
(151,72,cs),
(155,21,o),
(179,0,o),
(212,0,cs),
(270,0,o),
(316,49,o),
(354,101,cs),
(398,162,o),
(440,239,o),
(460,291,cs),
(463,300,l)
);
},
{
closed = 1;
nodes = (
(516,92,o),
(475,48,o),
(459,48,cs),
(448,48,o),
(449,66,o),
(449,78,cs),
(447,93,o),
(450,124,o),
(451,132,cs),
(472,327,ls),
(474,343,o),
(468,349,o),
(453,349,cs),
(423,349,l),
(401,146,ls),
(398,122,o),
(397,95,o),
(399,75,cs),
(402,26,o),
(421,0,o),
(457,0,cs),
(510,0,o),
(550,54,o),
(583,105,c),
(542,135,l)
);
}
);
width = 641;
},
{
layerId = m002;
shapes = (
{
closed = 1;
nodes = (
(642,131,o),
(654,193,o),
(657,228,cs),
(675,391,o),
(589,487,o),
(407,487,cs),
(324,487,o),
(221,473,o),
(156,423,cs),
(67,353,o),
(42,227,o),
(33,134,cs),
(18,-4,o),
(68,-128,o),
(247,-128,cs),
(299,-128,o),
(343,-116,o),
(373,-96,cs),
(421,-65,o),
(417,-43,o),
(399,-19,cs),
(388,-4,o),
(363,9,o),
(333,-12,cs),
(300,-36,o),
(267,-40,o),
(237,-40,cs),
(157,-40,o),
(117,28,o),
(127,127,cs),
(133,186,o),
(146,295,o),
(214,349,cs),
(263,389,o),
(340,397,o),
(411,397,cs),
(539,397,o),
(574,348,o),
(564,249,cs),
(559,208,o),
(543,160,o),
(512,118,c),
(592,69,l)
);
},
{
closed = 1;
nodes = (
(429,303,l),
(405,258,o),
(379,211,o),
(345,163,cs),
(296,97,o),
(275,86,o),
(270,86,cs),
(265,86,o),
(264,105,o),
(263,110,cs),
(262,133,o),
(271,195,o),
(288,225,cs),
(308,258,o),
(340,265,o),
(364,265,cs),
(370,265,o),
(430,265,o),
(437,265,cs),
(471,265,l),
(470,289,o),
(467,328,o),
(466,350,c),
(443,350,o),
(378,350,o),
(359,350,cs),
(304,350,o),
(242,335,o),
(208,276,cs),
(181,229,o),
(167,139,o),
(171,85,cs),
(175,25,o),
(194,-2,o),
(235,-2,cs),
(298,-2,o),
(356,52,o),
(391,97,cs),
(430,153,o),
(476,223,o),
(488,269,cs),
(498,307,l)
);
},
{
closed = 1;
nodes = (
(517,116,o),
(491,111,o),
(487,111,cs),
(480,111,o),
(480,121,o),
(481,131,cs),
(482,143,o),
(485,169,o),
(486,175,cs),
(501,305,ls),
(504,333,o),
(485,350,o),
(457,350,cs),
(410,350,l),
(387,153,ls),
(385,132,o),
(385,106,o),
(386,87,cs),
(390,27,o),
(428,-1,o),
(471,-1,cs),
(539,-1,o),
(595,60,o),
(619,113,c),
(540,166,l)
);
}
);
width = 682;
}
);
metricLeft = o;
metricRight = "=o-5";
unicode = 64;
},
{
glyphname = ampersand;
lastChange = "2022-03-05 17:44:28 +0000";
layers = (
{
layerId = m01;
shapes = (
{
closed = 1;
nodes = (
(379,4,o),
(397,-7,o),
(412,4,cs),
(424,14,o),
(420,29,o),
(411,41,cs),
(202,317,l),
(132,324,l),
(74,279,o),
(37,227,o),
(32,178,cs),
(23,103,o),
(84,-4,o),
(204,-4,cs),
(294,-4,o),
(329,56,o),
(389,169,c),
(396,181,o),
(391,195,o),
(379,201,cs),
(366,208,o),
(351,203,o),
(343,190,c),
(288,96,o),
(270,46,o),
(201,46,cs),
(127,46,o),
(74,103,o),
(81,164,cs),
(86,205,o),
(118,249,o),
(166,285,c),
(371,14,ls)
);
},
{
closed = 1;
nodes = (
(164,363,o),
(114,424,o),
(112,455,cs),
(110,487,o),
(154,518,o),
(211,518,cs),
(255,518,o),
(273,500,o),
(278,486,cs),
(290,449,o),
(222,383,o),
(126,319,c),
(202,309,l),
(285,371,o),
(348,432,o),
(323,500,cs),
(307,547,o),
(260,568,o),
(207,568,cs),
(119,568,o),
(58,510,o),
(62,453,cs),
(66,403,o),
(119,342,o),
(143,309,c),
(185,335,l)
);
}
);
width = 459;
},
{
layerId = m002;
shapes = (
{
closed = 1;
nodes = (
(374,3,o),
(411,-9,o),
(433,8,cs),
(457,27,o),
(450,52,o),
(435,73,cs),
(238,335,l),
(150,344,l),
(89,297,o),
(48,243,o),
(42,190,cs),
(32,108,o),
(100,-4,o),
(227,-4,cs),
(326,-4,o),
(364,63,o),
(418,168,cs),
(431,190,o),
(421,213,o),
(399,225,cs),
(376,238,o),
(345,231,o),
(331,209,cs),
(280,120,o),
(268,86,o),
(221,86,cs),
(165,86,o),
(131,123,o),
(137,169,cs),
(140,197,o),
(158,225,o),
(187,251,c),
(359,23,ls)
);
},
{
closed = 1;
nodes = (
(208,369,o),
(168,419,o),
(166,441,cs),
(165,460,o),
(189,478,o),
(234,478,cs),
(261,478,o),
(268,473,o),
(270,465,cs),
(278,438,o),
(217,386,o),
(127,333,c),
(233,284,l),
(315,344,o),
(387,409,o),
(359,489,cs),
(340,543,o),
(284,568,o),
(227,568,cs),
(132,568,o),
(66,504,o),
(70,439,cs),
(74,386,o),
(127,325,o),
(164,276,c),
(242,325,l)
);
}
);
width = 494;
}
);
metricLeft = O;
metricRight = O;
unicode = 38;
},
{
glyphname = degree;
lastChange = "2022-03-05 17:44:28 +0000";
layers = (
{
layerId = m01;
shapes = (
{
closed = 1;
nodes = (
(182,433,o),
(241,532,o),
(236,595,cs),
(234,634,o),
(209,655,o),
(164,655,cs),
(127,655,o),
(103,630,o),
(90,604,cs),
(80,583,o),
(66,543,o),
(69,496,cs),
(73,449,o),
(91,433,o),
(118,433,cs)
);
},
{
closed = 1;
nodes = (
(110,472,o),
(109,486,o),
(108,503,cs),
(106,530,o),
(116,559,o),
(128,588,c),
(138,608,o),
(148,615,o),
(165,615,cs),
(187,615,o),
(195,609,o),
(197,588,cs),
(200,550,o),
(153,472,o),
(122,472,cs)
);
}
);
width = 217;
},
{
layerId = m002;
shapes = (
{
closed = 1;
nodes = (
(224,398,o),
(287,508,o),
(283,577,cs),
(279,625,o),
(245,654,o),
(189,654,cs),
(140,654,o),
(111,621,o),
(97,593,cs),
(86,573,o),
(72,528,o),
(76,478,cs),
(80,410,o),
(117,398,o),
(145,398,cs)
);
},
{
closed = 1;
nodes = (
(153,476,o),
(150,492,o),
(150,504,cs),
(151,524,o),
(156,543,o),
(165,562,cs),
(172,577,o),
(181,580,o),
(191,580,cs),
(202,580,o),
(203,571,o),
(203,555,cs),
(203,523,o),
(175,476,o),
(157,476,cs)
);
}
);
width = 273;
}
);
metricLeft = O;
metricRight = O;
unicode = 176;
},
{
glyphname = bar;
lastChange = "2022-03-05 17:56:27 +0000";
layers = (
{
layerId = m01;
shapes = (
{
closed = 1;
nodes = (
(140,690,o),
(128,700,o),
(115,700,cs),
(103,700,o),
(89,690,o),
(87,672,cs),
(-14,-273,ls),
(-16,-288,o),
(-6,-300,o),
(12,-300,cs),
(34,-300,o),
(36,-285,o),
(37,-275,cs),
(137,668,ls)
);
}
);
width = 117;
},
{
layerId = m002;
shapes = (
{
closed = 1;
nodes = (
(194,681,o),
(170,702,o),
(142,702,cs),
(120,702,o),
(95,685,o),
(92,657,cs),
(-6,-250,ls),
(-10,-278,o),
(14,-302,o),
(46,-302,cs),
(80,-302,o),
(91,-281,o),
(94,-260,c),
(191,645,ls)
);
}
);
width = 182;
}
);
metricLeft = N;
metricRight = N;
unicode = 124;
},
{
glyphname = brokenbar;
lastChange = "2022-03-05 17:56:27 +0000";
layers = (
{
layerId = m01;
shapes = (
{
closed = 1;
nodes = (
(82,152,o),
(71,162,o),
(59,162,cs),
(46,162,o),
(31,152,o),
(30,135,cs),
(-14,-273,ls),
(-16,-288,o),
(-6,-300,o),
(12,-300,cs),
(34,-300,o),
(36,-285,o),
(37,-275,cs),
(81,135,ls)
);
},
{
closed = 1;
nodes = (
(140,690,o),
(128,700,o),
(115,700,cs),
(103,700,o),
(89,690,o),
(87,672,cs),
(43,266,ls),
(42,249,o),
(53,238,o),
(66,239,cs),
(79,239,o),
(93,249,o),
(94,266,cs),
(137,668,ls)
);
}
);
width = 117;
},
{
layerId = m002;
shapes = (
{
closed = 1;
nodes = (
(137,141,o),
(114,163,o),
(87,163,cs),
(64,163,o),
(38,146,o),
(35,119,cs),
(-5,-248,ls),
(-8,-276,o),
(15,-300,o),
(47,-300,cs),
(81,-300,o),
(93,-279,o),
(95,-258,cs),
(134,111,ls)
);
},
{
closed = 1;
nodes = (
(195,679,o),
(170,700,o),
(142,700,cs),
(120,700,o),
(95,683,o),
(92,655,cs),
(53,290,ls),
(49,259,o),
(74,236,o),
(102,238,cs),
(125,239,o),
(149,256,o),
(152,282,cs),
(191,643,ls)
);
}
);
width = 182;
}
);
metricLeft = N;
metricRight = N;
unicode = 166;
},
{
glyphname = degree.c2sc;
lastChange = "2022-03-05 23:36:32 +0000";
layers = (
{
layerId = m01;
shapes = (
{
closed = 1;
nodes = (
(165,272,o),
(224,371,o),
(219,434,cs),
(217,473,o),
(192,494,o),
(147,494,cs),
(110,494,o),
(86,469,o),
(73,443,cs),
(63,422,o),
(49,382,o),
(52,335,cs),
(56,288,o),
(74,272,o),
(101,272,cs)
);
},
{
closed = 1;
nodes = (
(93,311,o),
(92,325,o),
(91,342,cs),
(89,369,o),
(99,398,o),
(111,427,c),
(121,447,o),
(131,454,o),
(148,454,cs),
(170,454,o),
(178,448,o),
(180,427,cs),
(183,389,o),
(136,311,o),
(105,311,cs)
);
}
);
width = 217;
},
{
layerId = m002;
shapes = (
{
closed = 1;
nodes = (
(209,255,o),
(272,365,o),
(268,434,cs),
(264,482,o),
(230,511,o),
(174,511,cs),
(125,511,o),
(96,478,o),
(82,450,cs),
(71,430,o),
(57,385,o),
(61,335,cs),
(65,267,o),
(102,255,o),
(130,255,cs)
);
},
{
closed = 1;
nodes = (
(138,333,o),
(135,349,o),
(135,361,cs),
(136,381,o),
(141,400,o),
(150,419,cs),
(157,434,o),
(166,437,o),
(176,437,cs),
(187,437,o),
(188,428,o),
(188,412,cs),
(188,380,o),
(160,333,o),
(142,333,cs)
);
}
);
width = 273;
}
);
metricLeft = O;
metricRight = O;
},
{
glyphname = dollar;
lastChange = "2022-03-05 17:44:28 +0000";
layers = (
{
layerId = m01;
shapes = (
{
closed = 1;
nodes = (
(246,0,o),
(419,17,o),
(409,153,cs),
(403,236,o),
(338,262,o),
(248,312,cs),
(180,350,o),
(112,381,o),
(109,425,cs),
(105,482,o),
(212,519,o),
(289,519,cs),
(432,519,ls),
(447,519,o),
(454,532,o),
(453,545,cs),
(452,557,o),
(443,569,o),
(424,569,cs),
(286,569,ls),
(154,569,o),
(54,503,o),
(60,420,cs),
(65,349,o),
(144,315,o),
(225,269,cs),
(304,225,o),
(356,206,o),
(359,152,cs),
(366,57,o),
(210,50,o),
(145,50,cs),
(42,50,ls),
(26,50,o),
(15,37,o),
(16,24,cs),
(17,12,o),
(26,0,o),
(45,0,cs),
(148,0,ls)
);
},
{
closed = 1;
nodes = (
(302,639,o),
(292,650,o),
(280,650,cs),
(269,650,o),
(256,641,o),
(255,622,cs),
(183,-52,ls),
(181,-71,o),
(192,-80,o),
(203,-80,cs),
(214,-80,o),
(226,-71,o),
(228,-54,cs),
(300,618,ls)
);
}
);
width = 438;
},
{
layerId = m002;
shapes = (
{
closed = 1;
nodes = (
(272,-4,o),
(457,13,o),
(447,161,cs),
(440,253,o),
(365,282,o),
(282,329,cs),
(217,365,o),
(167,388,o),
(165,417,cs),
(162,455,o),
(243,477,o),
(311,477,cs),
(445,477,ls),
(472,477,o),
(490,498,o),
(488,523,cs),
(487,548,o),
(465,568,o),
(434,568,cs),
(305,568,ls),
(170,568,o),
(62,504,o),
(68,412,cs),
(74,331,o),
(161,294,o),
(237,251,cs),
(313,209,o),
(347,197,o),
(350,160,cs),
(355,92,o),
(231,87,o),
(171,87,cs),
(75,87,ls),
(47,87,o),
(25,66,o),
(27,41,cs),
(29,16,o),
(50,-4,o),
(81,-4,cs),
(177,-4,ls)
);
},
{
closed = 1;
nodes = (
(349,629,o),
(325,650,o),
(299,650,cs),
(277,650,o),
(253,635,o),
(250,606,cs),
(183,-28,ls),
(179,-61,o),
(204,-80,o),
(229,-80,cs),
(251,-80,o),
(275,-65,o),
(278,-38,cs),
(345,594,ls)
);
}
);
width = 483;
}
);
metricLeft = O;
metricRight = O;
unicode = 36;
},
{
glyphname = plus;
lastChange = "2022-03-05 17:49:18 +0000";
layers = (
{
layerId = m01;
shapes = (
{
closed = 1;
nodes = (
(211,323,o),
(199,334,o),
(187,334,cs),
(177,334,o),
(167,327,o),
(165,311,cs),
(142,87,ls),
(140,68,o),
(153,57,o),
(165,57,cs),
(175,57,o),
(185,64,o),
(186,80,cs),
(210,304,ls)
);
},
{
closed = 1;
nodes = (
(309,175,o),
(317,187,o),
(316,198,cs),
(315,209,o),
(306,220,o),
(288,220,cs),
(61,220,ls),
(43,220,o),
(34,209,o),
(35,198,cs),
(36,187,o),
(46,175,o),
(64,175,cs),
(291,175,ls)
);
}
);
width = 346;
},
{
layerId = m002;
shapes = (
{
closed = 1;
nodes = (
(263,329,o),
(239,350,o),
(212,350,cs),
(192,350,o),
(170,337,o),
(167,310,cs),
(145,95,ls),
(143,62,o),
(167,41,o),
(194,41,cs),
(214,41,o),
(235,54,o),
(238,81,cs),
(260,296,ls)
);
},
{
closed = 1;
nodes = (
(345,154,o),
(364,174,o),
(362,198,cs),
(361,221,o),
(339,241,o),
(308,241,cs),
(91,241,ls),
(60,241,o),
(42,221,o),
(43,198,cs),
(45,174,o),
(66,154,o),
(97,154,cs),
(314,154,ls)
);
}
);
width = 400;
}
);
metricLeft = n;
metricRight = n;
unicode = 43;
},
{
glyphname = multiply;
lastChange = "2022-03-05 17:49:18 +0000";
layers = (
{
layerId = m01;
shapes = (
{
closed = 1;
nodes = (
(332,302,o),
(329,317,o),
(319,325,cs),
(310,334,o),
(293,337,o),
(280,325,cs),
(30,101,ls),
(19,91,o),
(22,76,o),
(30,67,cs),
(40,58,o),
(55,54,o),
(70,67,cs),
(319,290,ls)
);
},
{
closed = 1;
nodes = (
(79,336,o),
(64,335,o),
(55,327,cs),
(47,318,o),
(44,303,o),
(55,291,cs),
(259,69,ls),
(271,56,o),
(286,58,o),
(294,66,cs),
(304,74,o),
(307,89,o),
(295,102,cs),
(93,321,ls)
);
}
);
width = 346;
},
{
layerId = m002;
shapes = (
{
closed = 1;
nodes = (
(382,292,o),
(379,319,o),
(358,336,cs),
(339,351,o),
(308,355,o),
(286,337,cs),
(46,122,ls),
(26,102,o),
(28,78,o),
(45,59,cs),
(64,40,o),
(96,36,o),
(121,56,cs),
(360,270,l)
);
},
{
closed = 1;
nodes = (
(117,355,o),
(82,353,o),
(67,335,cs),
(53,317,o),
(50,294,o),
(70,273,cs),
(266,59,l),
(287,38,o),
(320,40,o),
(336,55,cs),
(354,72,o),
(357,97,o),
(336,120,cs),
(142,331,l)
);
}
);
width = 402;
}
);
metricLeft = n;
metricRight = n;
unicode = 215;
},
{
glyphname = divide;
lastChange = "2022-03-05 17:49:18 +0000";
layers = (
{
layerId = m01;
shapes = (
{
closed = 1;
nodes = (
(325,175,o),
(324,220,o),
(287,220,cs),
(60,220,ls),
(23,220,o),
(28,175,o),
(63,175,cs),
(290,175,ls)
);
},
{
closed = 1;
nodes = (
(182,57,o),
(197,73,o),
(196,90,cs),
(194,108,o),
(176,122,o),
(159,122,cs),
(140,122,o),
(130,106,o),
(131,90,cs),
(132,73,o),
(146,57,o),
(164,57,cs)
);
},
{
closed = 1;
nodes = (
(205,273,o),
(220,289,o),
(219,306,cs),
(217,323,o),
(200,338,o),
(183,338,cs),
(165,338,o),
(152,322,o),
(154,306,cs),
(155,290,o),
(170,273,o),
(188,273,cs)
);
}
);
width = 345;
},
{
layerId = m002;
shapes = (
{
closed = 1;
nodes = (
(380,154,o),
(377,241,o),
(308,241,cs),
(91,241,ls),
(22,241,o),
(31,154,o),
(97,154,cs),
(314,154,ls)
);
},
{
closed = 1;
nodes = (
(223,16,o),
(248,40,o),
(246,69,cs),
(244,100,o),
(214,122,o),
(185,122,cs),
(154,122,o),
(132,98,o),
(134,69,cs),
(136,40,o),
(163,16,o),
(193,16,cs)
);
},
{
closed = 1;
nodes = (
(251,273,o),
(276,297,o),
(274,327,cs),
(272,356,o),
(243,379,o),
(213,379,cs),
(183,379,o),
(160,355,o),
(162,327,cs),
(164,298,o),
(191,273,o),
(221,273,cs)
);
}
);
width = 400;
}
);
metricLeft = n;
metricRight = n;
unicode = 247;
},
{
glyphname = equal;
lastChange = "2022-03-05 17:49:18 +0000";
layers = (
{
layerId = m01;
shapes = (
{
closed = 1;
nodes = (
(316,248,o),
(324,260,o),
(323,271,cs),
(322,282,o),
(313,293,o),
(295,293,cs),
(68,293,ls),
(50,293,o),
(41,282,o),
(42,271,cs),
(43,260,o),
(53,248,o),
(71,248,cs),
(298,248,ls)
);
},
{
closed = 1;
nodes = (
(300,97,o),
(308,108,o),
(308,120,cs),
(307,131,o),
(297,142,o),
(279,142,cs),
(52,142,ls),
(34,142,o),
(26,131,o),
(27,120,cs),
(27,109,o),
(37,97,o),
(55,97,cs),
(282,97,ls)
);
}
);
width = 346;
},
{
layerId = m002;
shapes = (
{
closed = 1;
nodes = (
(355,248,o),
(374,266,o),
(373,290,cs),
(371,314,o),
(349,333,o),
(319,333,cs),
(101,333,ls),
(71,333,o),
(51,314,o),
(53,290,cs),
(54,266,o),
(77,248,o),
(107,248,cs),
(325,248,ls)
);
},
{
closed = 1;
nodes = (
(339,97,o),
(359,116,o),
(357,141,cs),
(355,165,o),
(333,182,o),
(303,182,cs),
(85,182,ls),
(55,182,o),
(35,165,o),
(37,141,cs),
(39,117,o),
(61,97,o),
(91,97,cs),
(309,97,ls)
);
}
);
width = 401;
}
);
metricLeft = n;
metricRight = n;
unicode = 61;
},
{
glyphname = notequal;
lastChange = "2022-03-05 17:49:18 +0000";
layers = (
{
layerId = m01;
shapes = (
{
closed = 1;
nodes = (
(256,337,o),
(244,350,o),
(230,350,cs),
(220,350,o),
(210,345,o),
(205,333,cs),
(102,72,ls),
(95,54,o),
(104,42,o),
(115,38,cs),
(126,35,o),
(138,38,o),
(143,51,cs),
(246,312,ls)
);
},
{
closed = 1;
nodes = (
(300,97,o),
(308,108,o),
(308,120,cs),
(307,131,o),
(297,142,o),
(279,142,cs),
(52,142,ls),
(34,142,o),
(26,131,o),
(27,120,cs),
(27,109,o),
(37,97,o),
(55,97,cs),
(282,97,ls)
);
},
{
closed = 1;
nodes = (
(316,248,o),
(324,260,o),
(323,271,cs),
(322,282,o),
(313,293,o),
(295,293,cs),
(68,293,ls),
(50,293,o),
(41,282,o),
(42,271,cs),
(43,260,o),
(53,248,o),
(71,248,cs),
(298,248,ls)
);
}
);
width = 346;
},
{
layerId = m002;
shapes = (
{
closed = 1;
nodes = (
(328,376,o),
(298,401,o),
(269,401,cs),
(252,401,o),
(231,391,o),
(223,372,cs),
(100,60,ls),
(88,30,o),
(104,8,o),
(130,-1,cs),
(150,-7,o),
(178,-1,o),
(187,22,cs),
(311,333,ls)
);
},
{
closed = 1;
nodes = (
(339,97,o),
(359,116,o),
(357,141,cs),
(355,165,o),
(333,182,o),
(303,182,cs),
(85,182,ls),
(55,182,o),
(35,165,o),
(37,141,cs),
(39,117,o),
(61,97,o),
(91,97,cs),
(309,97,ls)
);
},
{
closed = 1;
nodes = (
(355,248,o),
(374,266,o),
(373,290,cs),
(371,314,o),
(349,333,o),
(319,333,cs),
(101,333,ls),
(71,333,o),
(51,314,o),
(53,290,cs),
(54,266,o),
(77,248,o),
(107,248,cs),
(325,248,ls)
);
}
);
width = 401;
}
);
metricLeft = n;
metricRight = n;
unicode = 8800;
},
{
glyphname = greater;
lastChange = "2022-03-05 17:49:18 +0000";
layers = (
{
layerId = m01;
shapes = (
{
closed = 1;
nodes = (
(248,216,l),
(41,103,ls),
(21,93,o),
(19,81,o),
(24,70,cs),
(29,60,o),
(41,50,o),
(59,60,cs),
(276,179,l)
);
},
{
closed = 1;
nodes = (
(265,171,o),
(276,176,o),
(282,186,cs),
(289,197,o),
(289,207,o),
(273,217,cs),
(88,330,ls),
(71,340,o),
(58,339,o),
(51,329,cs),
(44,318,o),
(48,304,o),
(63,294,cs),
(249,181,ls)
);
}
);
width = 316;
},
{
layerId = m002;
shapes = (
{
closed = 1;
nodes = (
(279,245,l),
(62,127,ls),
(33,112,o),
(27,92,o),
(34,70,cs),
(43,46,o),
(74,30,o),
(104,45,cs),
(336,173,l)
);
},
{
closed = 1;
nodes = (
(286,147,o),
(316,154,o),
(329,176,cs),
(340,198,o),
(336,218,o),
(310,235,cs),
(131,344,ls),
(105,359,o),
(76,355,o),
(63,337,cs),
(49,315,o),
(56,291,o),
(82,272,c),
(261,164,l)
);
}
);
width = 376;
}
);
metricLeft = n;
metricRight = n;
unicode = 62;
},
{
glyphname = less;
lastChange = "2022-03-05 17:49:18 +0000";
layers = (
{
layerId = m01;
shapes = (
{
closed = 1;
nodes = (
(280,290,ls),
(299,300,o),
(301,312,o),
(296,323,cs),
(292,333,o),
(280,343,o),
(262,333,cs),
(44,214,l),
(73,177,l)
);
},
{
closed = 1;
nodes = (
(249,53,o),
(262,54,o),
(270,64,cs),
(277,75,o),
(273,89,o),
(257,99,cs),
(71,212,ls),
(55,222,o),
(45,217,o),
(39,207,cs),
(31,196,o),
(32,186,o),
(48,176,cs),
(233,63,ls)
);
}
);
width = 316;
},
{
layerId = m002;
shapes = (
{
closed = 1;
nodes = (
(318,266,ls),
(347,281,o),
(354,301,o),
(346,323,cs),
(338,347,o),
(307,363,o),
(277,348,cs),
(45,220,l),
(102,148,l)
);
},
{
closed = 1;
nodes = (
(276,34,o),
(304,38,o),
(317,56,cs),
(332,78,o),
(325,102,o),
(299,121,c),
(120,229,l),
(95,246,o),
(64,239,o),
(52,217,cs),
(40,195,o),
(45,175,o),
(71,158,cs),
(250,49,ls)
);
}
);
width = 375;
}
);
metricLeft = n;
metricRight = n;
unicode = 60;
},
{
glyphname = greaterequal;
lastChange = "2022-03-05 17:49:18 +0000";
layers = (
{
layerId = m01;
shapes = (
{
closed = 1;
nodes = (
(274,198,o),
(285,202,o),
(291,212,cs),
(298,223,o),
(298,233,o),
(282,243,cs),
(91,360,ls),
(74,370,o),
(61,369,o),
(54,359,cs),
(47,348,o),
(51,334,o),
(66,324,cs),
(259,207,ls)
);
},
{
closed = 1;
nodes = (
(279,97,o),
(287,108,o),
(287,120,cs),
(286,131,o),
(276,142,o),
(258,142,cs),
(54,142,ls),
(36,142,o),
(28,131,o),
(29,120,cs),
(29,109,o),
(39,97,o),
(57,97,cs),
(261,97,ls)
);
},
{
closed = 1;
nodes = (
(274,248,l),
(68,248,ls),
(46,248,o),
(38,239,o),
(37,227,cs),
(37,216,o),
(43,202,o),
(65,202,cs),
(278,202,l)
);
}
);
width = 325;
},
{
layerId = m002;
shapes = (
{
closed = 1;
nodes = (
(301,197,o),
(328,200,o),
(340,219,cs),
(353,241,o),
(350,261,o),
(323,279,c),
(138,393,ls),
(108,411,o),
(81,403,o),
(70,386,cs),
(56,364,o),
(64,344,o),
(90,325,c),
(277,212,ls)
);
},
{
closed = 1;
nodes = (
(314,57,o),
(333,75,o),
(331,99,cs),
(329,123,o),
(308,142,o),
(277,142,cs),
(81,142,ls),
(51,142,o),
(31,122,o),
(33,98,cs),
(35,75,o),
(57,57,o),
(87,57,cs),
(283,57,ls)
);
},
{
closed = 1;
nodes = (
(301,287,l),
(102,287,ls),
(68,287,o),
(50,271,o),
(49,247,cs),
(48,223,o),
(67,202,o),
(102,202,cs),
(309,202,l)
);
}
);
width = 381;
}
);
metricLeft = n;
metricRight = n;
unicode = 8805;
},
{
glyphname = lessequal;
lastChange = "2022-03-05 17:49:18 +0000";
layers = (
{
layerId = m01;
shapes = (
{
closed = 1;
nodes = (
(312,332,o),
(313,348,o),
(304,359,cs),
(295,369,o),
(283,369,o),
(267,360,cs),
(49,243,ls),
(35,235,o),
(35,223,o),
(44,212,cs),
(52,202,o),
(63,199,o),
(78,207,cs),
(296,324,ls)
);
},
{
closed = 1;
nodes = (
(278,97,o),
(286,109,o),
(286,120,cs),
(285,131,o),
(275,142,o),
(257,142,cs),
(53,142,ls),
(35,142,o),
(27,131,o),
(28,120,cs),
(28,108,o),
(38,97,o),
(56,97,cs),
(260,97,ls)
);
},
{
closed = 1;
nodes = (
(272,202,ls),
(288,202,o),
(297,213,o),
(296,225,cs),
(296,236,o),
(286,248,o),
(263,248,cs),
(57,248,l),
(59,202,l)
);
}
);
width = 324;
},
{
layerId = m002;
shapes = (
{
closed = 1;
nodes = (
(362,337,o),
(369,362,o),
(350,386,cs),
(337,403,o),
(310,408,o),
(283,393,cs),
(73,281,ls),
(46,266,o),
(44,242,o),
(62,221,cs),
(76,201,o),
(101,197,o),
(125,210,cs),
(335,322,ls)
);
},
{
closed = 1;
nodes = (
(313,57,o),
(333,75,o),
(331,98,cs),
(329,122,o),
(307,142,o),
(277,142,cs),
(81,142,ls),
(51,142,o),
(31,122,o),
(33,98,cs),
(35,74,o),
(57,57,o),
(87,57,cs),
(283,57,ls)
);
},
{
closed = 1;
nodes = (
(301,202,ls),
(329,202,o),
(349,222,o),
(348,245,cs),
(348,272,o),
(321,287,o),
(289,287,cs),
(96,287,l),
(100,202,l)
);
}
);
width = 382;
}
);
metricLeft = n;
metricRight = n;
unicode = 8804;
},
{
glyphname = plusminus;
lastChange = "2022-03-05 17:49:18 +0000";
layers = (
{
layerId = m01;
shapes = (
{
closed = 1;
nodes = (
(202,364,o),
(189,375,o),
(177,375,cs),
(167,375,o),
(157,368,o),
(155,352,cs),
(138,196,ls),
(137,177,o),
(149,166,o),
(161,166,cs),
(171,166,o),
(181,173,o),
(183,189,cs),
(200,345,ls)
);
},
{
closed = 1;
nodes = (
(270,97,o),
(278,108,o),
(278,120,cs),
(277,131,o),
(267,142,o),
(249,142,cs),
(52,142,ls),
(34,142,o),
(26,131,o),
(27,120,cs),
(27,109,o),
(37,97,o),
(55,97,cs),
(252,97,ls)
);
},
{
closed = 1;
nodes = (
(286,248,o),
(294,260,o),
(293,271,cs),
(292,282,o),
(283,293,o),
(265,293,cs),
(68,293,ls),
(50,293,o),
(41,282,o),
(42,271,cs),
(43,260,o),
(53,248,o),
(71,248,cs),
(268,248,ls)
);
}
);
width = 316;
},
{
layerId = m002;
shapes = (
{
closed = 1;
nodes = (
(258,390,o),
(231,411,o),
(205,411,cs),
(184,411,o),
(164,398,o),
(161,371,cs),
(144,222,ls),
(141,188,o),
(167,167,o),
(193,167,cs),
(214,167,o),
(234,181,o),
(238,207,cs),
(254,357,ls)
);
},
{
closed = 1;
nodes = (
(308,57,o),
(328,74,o),
(326,99,cs),
(324,122,o),
(302,142,o),
(272,142,cs),
(82,142,ls),
(52,142,o),
(33,122,o),
(35,99,cs),
(37,75,o),
(58,57,o),
(88,57,cs),
(278,57,ls)
);
},
{
closed = 1;
nodes = (
(326,248,o),
(344,266,o),
(343,290,cs),
(341,313,o),
(320,333,o),
(290,333,cs),
(100,333,ls),
(70,333,o),
(51,313,o),
(53,290,cs),
(54,266,o),
(76,248,o),
(106,248,cs),
(296,248,ls)
);
}
);
width = 375;
}
);
metricLeft = n;
metricRight = n;
unicode = 177;
},
{
glyphname = approxequal;
lastChange = "2022-03-05 17:49:18 +0000";
layers = (
{
layerId = m01;
shapes = (
{
closed = 1;
nodes = (
(259,227,o),
(278,237,o),
(299,246,cs),
(316,254,o),
(324,260,o),
(323,271,cs),
(322,282,o),
(309,302,o),
(292,294,cs),
(274,285,o),
(262,272,o),
(232,272,cs),
(204,272,o),
(158,310,o),
(127,310,cs),
(101,310,o),
(85,301,o),
(67,294,cs),
(50,287,o),
(41,282,o),
(42,271,cs),
(43,259,o),
(54,238,o),
(72,246,cs),
(86,253,o),
(99,265,o),
(122,265,cs),
(153,265,o),
(199,227,o),
(227,227,cs)
);
},
{
closed = 1;
nodes = (
(244,76,o),
(263,86,o),
(283,95,cs),
(301,103,o),
(308,109,o),
(308,120,cs),
(307,131,o),
(293,151,o),
(277,143,cs),
(259,134,o),
(247,121,o),
(217,121,cs),
(189,121,o),
(143,159,o),
(112,159,cs),
(86,159,o),
(70,150,o),
(52,143,cs),
(34,136,o),
(26,131,o),
(27,120,cs),
(27,108,o),
(39,87,o),
(56,95,cs),
(71,102,o),
(84,114,o),
(107,114,cs),
(138,114,o),
(184,76,o),
(212,76,cs)
);
}
);
width = 346;
},
{
layerId = m002;
shapes = (
{
closed = 1;
nodes = (
(294,229,o),
(318,241,o),
(336,249,cs),
(363,262,o),
(374,273,o),
(373,293,cs),
(371,321,o),
(336,351,o),
(306,335,cs),
(282,323,o),
(278,316,o),
(259,316,cs),
(242,316,o),
(197,352,o),
(158,352,cs),
(127,352,o),
(106,342,o),
(91,335,cs),
(64,324,o),
(51,313,o),
(53,293,cs),
(55,261,o),
(89,234,o),
(119,249,cs),
(136,258,o),
(143,265,o),
(156,265,cs),
(176,265,o),
(220,229,o),
(257,229,cs)
);
},
{
closed = 1;
nodes = (
(274,35,o),
(298,47,o),
(315,55,cs),
(342,68,o),
(353,79,o),
(352,99,cs),
(350,127,o),
(316,157,o),
(285,141,cs),
(262,129,o),
(257,122,o),
(238,122,cs),
(221,122,o),
(177,158,o),
(138,158,cs),
(107,158,o),
(86,148,o),
(70,141,cs),
(44,130,o),
(31,119,o),
(32,99,cs),
(34,67,o),
(68,40,o),
(98,55,cs),
(116,64,o),
(123,71,o),
(136,71,cs),
(156,71,o),
(200,35,o),
(237,35,cs)
);
}
);
width = 401;
}
);
metricLeft = n;
metricRight = n;
unicode = 8776;
},
{
glyphname = asciitilde;
lastChange = "2022-03-05 23:17:33 +0000";
layers = (
{
layerId = m01;
shapes = (
{
closed = 1;
nodes = (
(252,158,o),
(271,168,o),
(292,177,cs),
(309,185,o),
(317,191,o),
(316,202,cs),
(315,213,o),
(302,233,o),
(285,225,cs),
(267,216,o),
(255,203,o),
(225,203,cs),
(197,203,o),
(151,241,o),
(120,241,cs),
(94,241,o),
(78,232,o),
(60,225,cs),
(43,218,o),
(34,213,o),
(35,202,cs),
(36,190,o),
(47,169,o),
(65,177,cs),
(79,184,o),
(92,196,o),
(115,196,cs),
(146,196,o),
(192,158,o),
(220,158,cs)
);
}
);
width = 346;
},
{
layerId = m002;
shapes = (
{
closed = 1;
nodes = (
(285,139,o),
(309,151,o),
(327,159,cs),
(354,172,o),
(365,183,o),
(364,203,cs),
(362,231,o),
(328,261,o),
(297,245,cs),
(274,233,o),
(269,226,o),
(250,226,cs),
(233,226,o),
(189,262,o),
(150,262,cs),
(119,262,o),
(97,252,o),
(82,245,cs),
(56,234,o),
(42,223,o),
(44,203,cs),
(46,171,o),
(80,144,o),
(110,159,cs),
(127,168,o),
(135,175,o),
(148,175,cs),
(168,175,o),
(211,139,o),
(248,139,cs)
);
}
);
width = 402;
}
);
metricLeft = n;
metricRight = n;
unicode = 126;
},
{
glyphname = asciicircum;
lastChange = "2022-03-05 17:56:27 +0000";
layers = (
{
layerId = m01;
shapes = (
{
closed = 1;
nodes = (
(253,619,o),
(250,634,o),
(240,642,cs),
(230,651,o),
(214,654,o),
(201,642,cs),
(76,531,ls),
(65,521,o),
(68,506,o),
(76,497,cs),
(86,488,o),
(101,484,o),
(116,497,cs),
(240,607,ls)
);
},
{
closed = 1;
nodes = (
(204,609,l),
(305,499,ls),
(317,486,o),
(332,488,o),
(340,496,cs),
(350,504,o),
(352,520,o),
(341,532,cs),
(241,641,l)
);
}
);
width = 345;
},
{
layerId = m002;
shapes = (
{
closed = 1;
nodes = (
(311,590,o),
(307,617,o),
(288,635,cs),
(269,653,o),
(235,657,o),
(213,638,cs),
(88,527,ls),
(66,507,o),
(71,481,o),
(86,464,cs),
(105,442,o),
(140,439,o),
(163,459,cs),
(286,569,ls)
);
},
{
closed = 1;
nodes = (
(217,573,l),
(317,464,ls),
(337,441,o),
(372,443,o),
(389,460,cs),
(407,477,o),
(409,502,o),
(388,525,cs),
(288,635,l)
);
}
);
width = 410;
}
);
metricLeft = N;
metricRight = N;
unicode = 94;
},
{
glyphname = infinity;
lastChange = "2022-03-05 17:49:18 +0000";
layers = (
{
layerId = m01;
shapes = (
{
closed = 1;
nodes = (
(296,196,ls),
(333,146,o),
(386,90,o),
(444,80,cs),
(509,69,o),
(602,109,o),
(613,211,cs),
(624,307,o),
(549,349,o),
(491,359,cs),
(438,368,o),
(362,356,o),
(286,279,c),
(284,213,l)
);
},
{
closed = 1;
nodes = (
(235,214,o),
(130,123,o),
(105,127,cs),
(86,130,o),
(82,191,o),
(85,227,cs),
(89,267,o),
(109,322,o),
(166,312,cs),
(208,305,o),
(238,267,o),
(258,241,c),
(288,279,l),
(264,309,o),
(232,352,o),
(177,361,cs),
(90,377,o),
(42,298,o),
(34,226,cs),
(28,168,o),
(46,90,o),
(100,81,cs),
(157,71,o),
(228,140,o),
(292,210,c),
(289,280,l)
);
},
{
closed = 1;
nodes = (
(386,307,o),
(440,319,o),
(479,312,cs),
(528,303,o),
(570,263,o),
(564,214,cs),
(558,158,o),
(493,123,o),
(450,130,cs),
(408,137,o),
(365,186,o),
(334,227,cs),
(323,241,l)
);
}
);
width = 636;
},
{
layerId = m002;
shapes = (
{
closed = 1;
nodes = (
(289,179,ls),
(326,127,o),
(382,71,o),
(444,61,cs),
(514,49,o),
(611,92,o),
(623,205,cs),
(634,314,o),
(554,362,o),
(493,373,cs),
(437,383,o),
(356,369,o),
(277,284,c),
(272,204,l)
);
},
{
closed = 1;
nodes = (
(223,221,o),
(149,151,o),
(134,154,cs),
(119,156,o),
(121,195,o),
(125,227,cs),
(129,261,o),
(149,284,o),
(187,278,cs),
(229,271,o),
(253,220,o),
(271,198,c),
(329,272,l),
(311,296,o),
(275,361,o),
(202,374,cs),
(104,391,o),
(51,301,o),
(42,225,cs),
(36,164,o),
(57,72,o),
(124,60,cs),
(191,49,o),
(261,126,o),
(326,197,c),
(265,272,l)
);
},
{
closed = 1;
nodes = (
(410,277,o),
(447,284,o),
(475,279,cs),
(516,272,o),
(541,247,o),
(537,215,cs),
(533,175,o),
(497,150,o),
(463,156,cs),
(420,163,o),
(379,212,o),
(368,227,cs),
(364,233,l)
);
}
);
width = 656;
}
);
metricLeft = o;
metricRight = o;
unicode = 8734;
},
{
glyphname = percent;
lastChange = "2022-03-05 17:56:27 +0000";
layers = (
{
layerId = m01;
shapes = (
{
closed = 1;
nodes = (
(376,637,o),
(361,650,o),
(346,650,cs),
(335,650,o),
(324,644,o),
(318,627,cs),
(103,31,ls),
(96,12,o),
(111,0,o),
(127,0,cs),
(138,0,o),
(149,6,o),
(154,20,cs),
(369,616,ls)
);
},
{
closed = 1;
nodes = (
(356,-4,o),
(415,95,o),
(411,158,cs),
(408,197,o),
(384,218,o),
(339,218,cs),
(302,218,o),
(278,193,o),
(264,167,cs),
(255,146,o),
(241,106,o),
(244,59,cs),
(247,12,o),
(265,-4,o),
(292,-4,cs)
);
},
{
closed = 1;
nodes = (
(285,35,o),
(284,49,o),
(282,66,cs),
(280,93,o),
(290,122,o),
(302,151,c),
(313,171,o),
(323,178,o),
(340,178,cs),
(362,178,o),
(370,172,o),
(371,151,cs),
(374,113,o),
(328,35,o),
(297,35,cs)
);
},
{
closed = 1;
nodes = (
(183,432,o),
(242,531,o),
(237,594,cs),
(235,633,o),
(210,654,o),
(165,654,cs),
(128,654,o),
(104,629,o),
(91,603,cs),
(81,582,o),
(67,542,o),
(70,495,cs),
(74,448,o),
(92,432,o),
(119,432,cs)
);
},
{
closed = 1;
nodes = (
(111,471,o),
(110,485,o),
(109,502,cs),
(107,529,o),
(117,558,o),
(129,587,c),
(140,607,o),
(149,614,o),
(166,614,cs),
(188,614,o),
(196,608,o),
(198,587,cs),
(201,549,o),
(154,471,o),
(123,471,cs)
);
}
);
width = 446;
},
{
background = {
shapes = (
{
closed = 1;
nodes = (
(510,0,o),
(581,110,o),
(581,179,cs),
(581,227,o),
(549,256,o),
(493,256,cs),
(444,256,o),
(412,223,o),
(396,195,cs),
(384,175,o),
(367,130,o),
(367,80,cs),
(367,12,o),
(403,0,o),
(431,0,cs)
);
},
{
closed = 1;
nodes = (
(443,78,o),
(445,94,o),
(446,106,cs),
(449,126,o),
(457,145,o),
(467,164,cs),
(475,179,o),
(480,182,o),
(490,182,cs),
(501,182,o),
(502,173,o),
(500,157,cs),
(496,130,o),
(463,78,o),
(448,78,cs)
);
},
{
closed = 1;
nodes = (
(251,394,o),
(322,504,o),
(322,573,cs),
(322,621,o),
(290,650,o),
(234,650,cs),
(185,650,o),
(153,617,o),
(137,589,cs),
(125,569,o),
(108,524,o),
(108,474,cs),
(108,406,o),
(144,394,o),
(172,394,cs)
);
},
{
closed = 1;
nodes = (
(184,472,o),
(186,488,o),
(187,500,cs),
(190,520,o),
(198,539,o),
(208,558,cs),
(216,573,o),
(221,576,o),
(231,576,cs),
(242,576,o),
(243,567,o),
(241,551,cs),
(237,524,o),
(204,472,o),
(189,472,cs)
);
}
);
};
layerId = m002;
shapes = (
{
closed = 1;
nodes = (
(480,624,o),
(448,650,o),
(418,650,cs),
(398,650,o),
(376,639,o),
(367,614,cs),
(166,60,ls),
(153,25,o),
(184,0,o),
(216,0,cs),
(235,0,o),
(256,10,o),
(265,32,cs),
(467,588,ls)
);
},
{
closed = 1;
nodes = (
(510,-4,o),
(574,106,o),
(569,175,cs),
(565,223,o),
(531,252,o),
(475,252,cs),
(426,252,o),
(397,219,o),
(383,191,cs),
(372,171,o),
(358,126,o),
(362,76,cs),
(366,8,o),
(403,-4,o),
(431,-4,cs)
);
},
{
closed = 1;
nodes = (
(439,74,o),
(436,90,o),
(436,102,cs),
(437,122,o),
(442,141,o),
(451,160,cs),
(458,175,o),
(468,178,o),
(478,178,cs),
(489,178,o),
(489,169,o),
(489,153,cs),
(490,121,o),
(461,74,o),
(443,74,cs)
);
},
{
closed = 1;
nodes = (
(223,398,o),
(286,508,o),
(282,577,cs),
(278,625,o),
(244,654,o),
(188,654,cs),
(139,654,o),
(110,621,o),
(96,593,cs),
(85,573,o),
(71,528,o),
(75,478,cs),
(79,410,o),
(116,398,o),
(144,398,cs)
);
},
{
closed = 1;
nodes = (
(152,476,o),
(149,492,o),
(149,504,cs),
(150,524,o),
(155,543,o),
(164,562,cs),
(171,577,o),
(180,580,o),
(190,580,cs),
(201,580,o),
(202,571,o),
(202,555,cs),
(202,523,o),
(174,476,o),
(156,476,cs)
);
}
);
width = 611;
}
);
metricLeft = N;
metricRight = N;
unicode = 37;
},
